<svg id="Layer_1" data-name="Layer 1" xmlns="http://www.w3.org/2000/svg" viewBox="0 0 1032.19 1032.19"><circle cx="516.09" cy="516.09" r="516.09"/><path d="M747.41,253.45a48.45,48.45,0,0,1,2.54-9q1.69-4.35,3.61-8.69t3.71-8.7a82,82,0,0,0,3.08-8.8,87,87,0,0,1,3.07-8.91,89.61,89.61,0,0,0,3.08-8.91A102,102,0,0,0,769.15,189a67.9,67.9,0,0,1,3.39-12.41,31.88,31.88,0,0,1,6.05-10.07A13.89,13.89,0,0,1,789,162a21.8,21.8,0,0,1,7.74,1,14.88,14.88,0,0,0,11.56-.85c1.27-.64,2.51-1.27,3.71-1.91a35.52,35.52,0,0,1,3.71-1.7,11.72,11.72,0,0,1,4.24-.74,7.5,7.5,0,0,1,4.78,1.59,18.5,18.5,0,0,1,3.6,3.82,28.78,28.78,0,0,1,2.76,4.77c.77,1.7,1.52,3.26,2.23,4.67a71.82,71.82,0,0,1,4.45,12.83q1.49,6.25,3,13.25a128.21,128.21,0,0,0,8.17,24.93,232.23,232.23,0,0,0,12,23.43q2.32,4,4.77,8c1.62,2.61,3.15,5.33,4.56,8.16l2.55,5.09q3.18,6.36,6.15,12.83a82.42,82.42,0,0,0,7.21,12.62,12.89,12.89,0,0,1,2.65,8,18.31,18.31,0,0,1-2.44,8.37A43.44,43.44,0,0,1,877,321.74a30.11,30.11,0,0,1-7.32,4.88,14.68,14.68,0,0,0-6.47,5.72,23.47,23.47,0,0,0-3.07,9.12q-.75,5.31-1.81,9.76a35,35,0,0,0-1.27,6.58,19.44,19.44,0,0,0,.85,6.57,32.25,32.25,0,0,1,1.27,7.11,20.57,20.57,0,0,1-.85,7.1,21,21,0,0,1-1.8,4.77,15.79,15.79,0,0,0-1.59,5,28.28,28.28,0,0,0-.32,5.51,50.85,50.85,0,0,1-.1,5.52,12.08,12.08,0,0,1-1.6,4.77,12.63,12.63,0,0,1-3.18,3.82,4.39,4.39,0,0,1-3.71,1c-1.27-.28-2.26-1.63-3-4a7.93,7.93,0,0,1,.53-6.36,22.09,22.09,0,0,0,2.23-6.15,34.76,34.76,0,0,0,.42-5.62,23.35,23.35,0,0,0-.63-5.62,20.56,20.56,0,0,0-3.4-6.69,20.35,20.35,0,0,1-3.39-6.89,4.67,4.67,0,0,1,.21-3.71,23.44,23.44,0,0,0,1.7-3.5,27.43,27.43,0,0,0,1.48-9.12,37.07,37.07,0,0,0-.31-4.77,35.61,35.61,0,0,1-.32-4.77,22.89,22.89,0,0,1,.42-4.46c.28-1.41.57-2.9.85-4.45a23.16,23.16,0,0,0-.21-9.33,16.86,16.86,0,0,0-4.67-8.06A116.19,116.19,0,0,1,826.52,301q-5.31-7.83-10.39-15.27a26.16,26.16,0,0,1-2.76-5.09,71.9,71.9,0,0,0-3.29-6.57,22.45,22.45,0,0,0-4-5.3,4.49,4.49,0,0,0-4.77-1.28,5.21,5.21,0,0,0-3,2.65,17.33,17.33,0,0,0-1.59,4.46,39.15,39.15,0,0,0-.74,4.88,13.43,13.43,0,0,1-.85,3.92,28.33,28.33,0,0,1-2.65,5.51q-1.59,2.55-3.29,5.31a20,20,0,0,0-2.54,5.3,30.65,30.65,0,0,1-2.34,5.51,8.79,8.79,0,0,1-4.56,3.72,59.75,59.75,0,0,0-5.62,2.65,26.23,26.23,0,0,0-5.51,4.34,16.56,16.56,0,0,0-3.61,6.05,30.13,30.13,0,0,0-1.91,7.85,79.61,79.61,0,0,0-.42,8.27v4.45a21,21,0,0,1-.43,4.24,14.45,14.45,0,0,1-1.16,3.61,14.36,14.36,0,0,0-1.17,3.39,23.49,23.49,0,0,0-.85,7.85c.14,2.83.22,5.52.22,8.06,0,2.26.06,4.46.21,6.58a34.75,34.75,0,0,1-.21,6.57,9.73,9.73,0,0,1-1.07,3.5,4.21,4.21,0,0,1-1.8,2,1.69,1.69,0,0,1-1.91-.42c-.63-.57-1.16-1.84-1.59-3.82a43.58,43.58,0,0,1-1.27-8.48,83.67,83.67,0,0,0-.85-8.48c-.28-2.41-.6-4.81-.95-7.22s-.68-4.87-1-7.42-.21-5.16-.21-7.85a26.8,26.8,0,0,0-1.06-7.63q-.86-3-1.8-5.73a47.65,47.65,0,0,1-1.59-5.72,33.8,33.8,0,0,1-.32-6.05,11.26,11.26,0,0,0-1.38-5.83,5.2,5.2,0,0,0-1.8-2,7.45,7.45,0,0,1-2-1.8q-10.19-13.57-3.82-27.57a49.25,49.25,0,0,1,3.29-5.62q1.8-2.65,3.5-5.62a26.39,26.39,0,0,0,3.71-8.27Q746.35,258.53,747.41,253.45Zm52.17-31.18c-1,2.4-1.16,4.31-.53,5.72s2.23,2.12,4.77,2.12a2.77,2.77,0,0,0,3-2,30.68,30.68,0,0,0,1.06-5,18.8,18.8,0,0,0,.22-2.55,5.73,5.73,0,0,0-.43-2.12c-.14-.42-.42-1.13-.85-2.12a17.28,17.28,0,0,0-1.48-2.76,7.79,7.79,0,0,0-1.7-1.91c-.56-.42-1.13-.21-1.69.64a3.93,3.93,0,0,0-.53,2.44,13.21,13.21,0,0,1-.11,2.86,9.83,9.83,0,0,1-.74,2.44C800.18,220.82,799.86,221.56,799.58,222.27Z" transform="translate(-494.25 -14.47)" style="fill:#ea1573"/><path d="M891.2,238.81q.43-6.15,1.28-12.19a39.67,39.67,0,0,0-.21-12.2,48.57,48.57,0,0,1-.43-9q.21-4.35,0-9a66,66,0,0,1,.11-8.48q.31-4,.32-8.49a40.88,40.88,0,0,0-1-8.37,15.8,15.8,0,0,1,.32-8.38,8.55,8.55,0,0,1,4.13-4.67,23.74,23.74,0,0,1,6.79-2.44,39.2,39.2,0,0,1,7.64-.74,27.06,27.06,0,0,1,6.47.64c2,.42,3.85.92,5.62,1.48a12.62,12.62,0,0,1,5,3.18,20.31,20.31,0,0,1,2.65,3.93,20.22,20.22,0,0,0,2.65,3.92A65.79,65.79,0,0,0,939,175.5a30,30,0,0,1,5.84,8.38,11.32,11.32,0,0,1,1,4,9.1,9.1,0,0,0,1.17,4,29.52,29.52,0,0,0,2.43,3.71q1.38,1.8,2.66,3.5a30.5,30.5,0,0,1,3,4.45,34,34,0,0,0,3.72,5.31,11.39,11.39,0,0,0,4,3.18c1.34.56,2.65-.07,3.92-1.91a6.32,6.32,0,0,0,.95-3.18,38.67,38.67,0,0,0,0-4c-.07-1.42-.17-2.83-.31-4.25s-.22-2.61-.22-3.6a85.8,85.8,0,0,0,0-8.59,102.4,102.4,0,0,1,.22-11.45,46.51,46.51,0,0,1,1.91-10.61q1.47-4.77,5.09-6a23.65,23.65,0,0,1,6.78-1.59,45.45,45.45,0,0,0,7-1.17q3.39-.84,6.68-1.38a24.79,24.79,0,0,1,6.9-.1q10.17,1,13.78,11a14.94,14.94,0,0,1,1,5.62,27.56,27.56,0,0,0,.31,5.41,28.72,28.72,0,0,0,.53,3.5c.22.92.39,1.8.53,2.65s.25,1.77.32,2.76.11,2.12.11,3.39q-.21,4.46-.53,8.81a55.57,55.57,0,0,0,.1,9c.29,3.68.43,7.35.43,11v11a35.81,35.81,0,0,0,1.06,9.12,26,26,0,0,1,.64,8.91,58.29,58.29,0,0,0,.1,12.72q.74,6.58,1.17,12.73a44.86,44.86,0,0,1-2.12,19.51,36.85,36.85,0,0,0-1.7,8.06,26.09,26.09,0,0,1-2.12,8.06,51.27,51.27,0,0,1-4.14,8.16,88.5,88.5,0,0,0-4.56,8.38,27.43,27.43,0,0,0-2.33,8.7,22.18,22.18,0,0,1-2.76,8.69,37.61,37.61,0,0,0-2.54,5.73,19.47,19.47,0,0,0-.85,6.15,17.52,17.52,0,0,0,.85,5.41,34.69,34.69,0,0,1,1.27,5.62,10.29,10.29,0,0,1-.63,6.15,6,6,0,0,1-3.72,3.71c-1.62.5-3.07-.18-4.34-2a5.62,5.62,0,0,1-1.28-3,19.43,19.43,0,0,1-.1-3.61c.07-1.27.14-2.51.21-3.71s.1-2.3.1-3.29a39.89,39.89,0,0,0-1.37-7,30.62,30.62,0,0,1-1.17-7.22,78.09,78.09,0,0,0-1.17-11A31.63,31.63,0,0,0,982.83,323a10.38,10.38,0,0,0-3.82-4.13,40.75,40.75,0,0,1-4.66-3.08,26.46,26.46,0,0,1-5.73-5.83,83.64,83.64,0,0,1-4.77-7.32q-2.24-3.81-4.24-7.74c-1.35-2.62-2.73-5.05-4.14-7.32a16.81,16.81,0,0,1-1.49-3.71c-.42-1.48-.88-3-1.37-4.45a24.3,24.3,0,0,0-1.81-4.14,6.25,6.25,0,0,0-3-2.76c-1.41-.56-2.33-.42-2.75.43a6.69,6.69,0,0,0-.53,3.39,30.52,30.52,0,0,0,.53,4.35,29,29,0,0,0,.63,2.86q1.06,4.45,1.7,9a25.66,25.66,0,0,1-.42,9.22,17.2,17.2,0,0,1-4.25,8.49,68.63,68.63,0,0,0-6.15,7.63,10.89,10.89,0,0,0-1.91,5.2c-.14,1.76-.21,3.6-.21,5.51s0,3.82-.1,5.73A14.74,14.74,0,0,1,933,340a8.69,8.69,0,0,1-2.44,2.65,3.35,3.35,0,0,1-3.71.11c-.85-.43-1.49-1.59-1.91-3.5s-.78-3.43-1.06-4.56c-.43-1.28-.89-2.69-1.38-4.24a24.24,24.24,0,0,0-1.8-4.25,10.09,10.09,0,0,0-2.76-3.18,6.87,6.87,0,0,0-4.24-1.27,2.07,2.07,0,0,0-1.91,1.06,23.79,23.79,0,0,0-1.27,2.44c-.43.92-.85,1.8-1.28,2.65a2.55,2.55,0,0,1-1.91,1.49,1.92,1.92,0,0,1-2.33-.85,8,8,0,0,1-1.17-3c-.21-1.14-.39-2.3-.53-3.5a22.84,22.84,0,0,0-.42-2.65,22.12,22.12,0,0,0-3-6.37c-1.27-1.84-2.69-3.74-4.24-5.72a14.77,14.77,0,0,1-3.5-9.44q.11-4.77.74-10.29c.56-4.1,1-8.13,1.38-12.09a48.45,48.45,0,0,0-.53-12.3q-.86-6.15-1.91-12.19A50.32,50.32,0,0,1,891.2,238.81Z" transform="translate(-494.25 -14.47)" style="fill:#ea1573"/><path d="M1024.61,242.63q-.42-5.73-.74-11.14a65.35,65.35,0,0,1,.32-11.13,18.16,18.16,0,0,1,2.86-8.59c1.62-2.47,3.21-5.06,4.77-7.74a51.15,51.15,0,0,0,3.29-6.47,27,27,0,0,1,3.71-6.26q3-3.81,5.94-7.32a92.14,92.14,0,0,0,5.73-7.52,14,14,0,0,1,4-4.35q2.32-1.59,5.3-3.29a42.82,42.82,0,0,0,5.72-3.61,22.43,22.43,0,0,1,6.37-3.18,40,40,0,0,0,7.1-2.86c2.34-1.2,4.63-2.44,6.9-3.71a26.29,26.29,0,0,1,7.63-2.65,34.82,34.82,0,0,1,8.17-.53,83,83,0,0,1,8.27.84q4.14.65,8,1.49a34.72,34.72,0,0,0,9.33.85,25.48,25.48,0,0,1,9.55,1.48,51.37,51.37,0,0,1,9.33,4.35,41.05,41.05,0,0,1,8.06,6.26,34.84,34.84,0,0,1,4.14,5,44.39,44.39,0,0,0,3.92,5,23.67,23.67,0,0,0,2.65,2.65,10,10,0,0,1,2.23,2.65,10.2,10.2,0,0,1,1.16,7.74,13.13,13.13,0,0,1-3.92,6.89c-1.7,1.56-3.32,3.18-4.88,4.88l-4.66,5.09a7.57,7.57,0,0,0-1.7,2.76c-.43,1.13-.89,2.3-1.38,3.5a14.08,14.08,0,0,1-1.7,3.07,2.92,2.92,0,0,1-2.44,1.28,3.11,3.11,0,0,1-2.12-.75,10.11,10.11,0,0,1-1.59-1.8c-.49-.71-1-1.38-1.48-2a4.12,4.12,0,0,0-2-1.38,9.46,9.46,0,0,0-4.45-.64,10.42,10.42,0,0,1-4.24-.42,6.79,6.79,0,0,1-3.08-2c-.78-.92-1.52-1.83-2.22-2.76a28.82,28.82,0,0,0-2.34-2.65,8,8,0,0,0-3.39-1.91q-7.43-1.91-11,3.4-1.7,2.11-3,4c-.85,1.27-2.33,1.77-4.45,1.48a4.77,4.77,0,0,1-3.4-1.48c-.71-.85-1.91-1.2-3.6-1.06a7.46,7.46,0,0,0-4.46,2.22,17.63,17.63,0,0,0-2.86,4.14,23.42,23.42,0,0,0-1.8,4.88c-.43,1.69-.85,3.18-1.28,4.45a52,52,0,0,0-2,7.53c-.5,2.62-.95,5.2-1.38,7.74a51.64,51.64,0,0,1-1.16,5.52,17.06,17.06,0,0,0-.54,5.72,24.2,24.2,0,0,0,2,6.47,31.83,31.83,0,0,0,3.71,6.26,11.18,11.18,0,0,1,1.8,3.39,10.44,10.44,0,0,0,9.55,6.9,15.06,15.06,0,0,0,7.63-2.12,9.7,9.7,0,0,0,4.35-5.2q1.07-3.18-2.33-5.73a6.61,6.61,0,0,0-3.61-1.38c-1.27-.07-2.26-.88-3-2.44a4.53,4.53,0,0,1,0-3.81,27.39,27.39,0,0,0,1.28-3.4,8.9,8.9,0,0,0,.42-3.81l-.42-3.82a22.18,22.18,0,0,1-.11-3.82,8.84,8.84,0,0,1,1.17-3.82,14.06,14.06,0,0,1,5.51-5.41,19.49,19.49,0,0,1,7.42-2.65,13.44,13.44,0,0,1,4.46-.1c1.41.21,2.89.46,4.45.74a17.86,17.86,0,0,0,5.84-.11,14.7,14.7,0,0,1,5.83.11c2.4.57,4.84,1.13,7.31,1.7a34.08,34.08,0,0,0,7.53.84,17.61,17.61,0,0,1,15.06,7,13.58,13.58,0,0,1,2.23,4.35,20.72,20.72,0,0,1,.85,5.2,32.91,32.91,0,0,1-.21,5.3,28.92,28.92,0,0,1-1,4.67,20,20,0,0,0-.53,3.81q-.1,2.13-.42,4.35a14.14,14.14,0,0,1-1.17,4,4.49,4.49,0,0,1-2.76,2.44,3.41,3.41,0,0,1-3.6-.53c-.43-.35-.89-.71-1.38-1.06a4.79,4.79,0,0,0-1.59-.74,4,4,0,0,0-3.82,1.48,11.9,11.9,0,0,0-1.91,4.14,23.87,23.87,0,0,0-.74,5c-.07,1.7-.11,3-.11,3.82a11.84,11.84,0,0,0,.43,3.5,7.32,7.32,0,0,1,0,3.5,16,16,0,0,1-2.44,6.57c-1.35,2.12-2.58,4.18-3.71,6.15a14.19,14.19,0,0,1-5.41,5.41,19.21,19.21,0,0,1-7.32,2.23,37.45,37.45,0,0,0-9.33,2.23c-2.69,1.06-4,3.42-4,7.1a12.06,12.06,0,0,0,.74,4,10.41,10.41,0,0,1,.53,4.46,66,66,0,0,0-.53,6.68,23.12,23.12,0,0,1-1.17,6.68,58.38,58.38,0,0,1-2.54,7,24.36,24.36,0,0,0-1.91,7,12,12,0,0,0,.21,3.81,29.71,29.71,0,0,1,.53,4.35,12.28,12.28,0,0,1-.42,4,3.54,3.54,0,0,1-2.44,2.44c-1.7.71-3,.81-4,.32a4.82,4.82,0,0,1-2.23-2.33,11.4,11.4,0,0,1-1-3.61,16.41,16.41,0,0,1,0-3.71,51,51,0,0,1,1.17-6.58,21.28,21.28,0,0,0,.53-6.36l-.64-3.39a52.32,52.32,0,0,0-3.82-12.09q-2.54-5.52-4.88-11.67c-.56-1.41-1-2.69-1.37-3.81a5.66,5.66,0,0,0-2.44-3,15.78,15.78,0,0,0-8.17-2.87,26.77,26.77,0,0,1-8.59-2,8.86,8.86,0,0,1-2.33-1.49,2.07,2.07,0,0,0-2.76,0,2.61,2.61,0,0,0-1.06,2.44,15.53,15.53,0,0,0,.21,2.87,7,7,0,0,1-.53,4.56,28.52,28.52,0,0,0-2,4.34,16.36,16.36,0,0,0-1.06,5.94,22.49,22.49,0,0,1-.85,6.15,59.16,59.16,0,0,1-2.44,6.15q-1.38,3-2.44,5.94a15.89,15.89,0,0,0-.74,8.27,46.11,46.11,0,0,1,.74,8.28,36.09,36.09,0,0,1-.21,3.71,11.34,11.34,0,0,1-1,3.6,6.23,6.23,0,0,1-2.12,2.55,5.55,5.55,0,0,1-3.71.74,4.29,4.29,0,0,1-3.5-1.7,6.1,6.1,0,0,1-1-3.39,14.15,14.15,0,0,1,.63-4c.43-1.41.78-2.54,1.06-3.39a11,11,0,0,0,.43-6.68,45.4,45.4,0,0,1-1.28-6.69,24.09,24.09,0,0,1,.32-5.93,11.42,11.42,0,0,0-.53-5.94,18.18,18.18,0,0,0-1.59-3.82,9.92,9.92,0,0,1-1.16-4c-.29-5.09-.53-10.22-.75-15.38s-.6-10.28-1.16-15.37a37,37,0,0,0-2.87-10.82,52,52,0,0,0-5.62-9.76,30.24,30.24,0,0,1-3-4.45,29.46,29.46,0,0,0-3-4.45,20.67,20.67,0,0,0-2.65-3.29,9.93,9.93,0,0,1-2.22-3.71,15.23,15.23,0,0,1-1-8.49A30.93,30.93,0,0,0,1024.61,242.63Z" transform="translate(-494.25 -14.47)" style="fill:#ea1573"/><path d="M1173.71,226.51a73.37,73.37,0,0,1,1.27-11.24q1.07-5.52,1.7-11a42.47,42.47,0,0,0-.21-11.14,73.77,73.77,0,0,1-.85-11.13,72.24,72.24,0,0,1,.53-8.7,45.87,45.87,0,0,1,1.8-8.48,19.13,19.13,0,0,1,2.86-6.26c1.2-1.62,3.22-2.72,6-3.28a18.44,18.44,0,0,1,8.8,0,63.06,63.06,0,0,0,8.59,1.48,44,44,0,0,0,9-.53,19.22,19.22,0,0,1,8.81.53,7,7,0,0,1,4.45,4,17.6,17.6,0,0,1,1.38,6.47,40.69,40.69,0,0,1-.42,7.1q-.54,3.61-.75,5.94a83.65,83.65,0,0,0,0,8.38,26.54,26.54,0,0,1-.85,8.17,37.93,37.93,0,0,0-1.16,8.06,62.3,62.3,0,0,0,.32,8.06,100.84,100.84,0,0,0,1.48,11.13,103.52,103.52,0,0,1,1.49,11.14c.13,1.83.24,3.71.31,5.62a56.61,56.61,0,0,0,.53,5.83c.43,2.69.85,5.62,1.28,8.8a10.85,10.85,0,0,0,4.24,7.53,14.25,14.25,0,0,0,4.56,2.12,47.62,47.62,0,0,0,6.15,1.38,49.58,49.58,0,0,0,6.36.63,38.58,38.58,0,0,0,5.2-.1,154.28,154.28,0,0,1,15.8-.42,29.17,29.17,0,0,1,14.74,4.87,9.46,9.46,0,0,1,3.92,4.35,19.8,19.8,0,0,1,1.17,6.05,2.1,2.1,0,0,0,.11.74,2.37,2.37,0,0,1,.1.74,66,66,0,0,1-.21,8.91,30.1,30.1,0,0,1-2.23,9.33,15.73,15.73,0,0,1-5.09,6.68q-3.29,2.44-9,.74-3-.84-6-1.8a27.73,27.73,0,0,0-6.47-1.17,14.2,14.2,0,0,0-6,1,28.74,28.74,0,0,1-6,1.59q-7,1.07-9.76,5.2a21.56,21.56,0,0,0-3.39,9.75,62.55,62.55,0,0,0-.22,11.56,61.83,61.83,0,0,1,0,10.39V349q0,2.24-.21,4.35a11.53,11.53,0,0,1-1,3.71,3,3,0,0,1-2.44,1.81,3.45,3.45,0,0,1-3.5-1,6.94,6.94,0,0,1-1.49-3.5,18,18,0,0,1-.1-4.35c.14-1.48.28-2.72.42-3.71a29.75,29.75,0,0,1,.85-4.77,15.87,15.87,0,0,0,.42-5.2,12.42,12.42,0,0,0-1.8-5.09,26.34,26.34,0,0,1-2.44-4.87,9.12,9.12,0,0,1-.74-4.14c.07-1.48.14-3,.21-4.56a17,17,0,0,0-.32-4.35,7.37,7.37,0,0,0-2.12-3.71,5.62,5.62,0,0,0-6-1.06,8.54,8.54,0,0,0-4.77,4.24,27.84,27.84,0,0,0-2.65,6.26,63.75,63.75,0,0,0-1.59,6.89,50.07,50.07,0,0,0-.43,6.36,10.2,10.2,0,0,1-2.12,5.94c-1.13,1.56-2.16,2.3-3.08,2.23a3.39,3.39,0,0,1-2.43-1.48,10.94,10.94,0,0,1-1.7-3.4,12.21,12.21,0,0,1-.64-3.71c0-1.56.07-3.18.21-4.88a18.78,18.78,0,0,0-.21-4.88,23.32,23.32,0,0,0-1.16-4.24,22.53,22.53,0,0,1-1.17-4.24c-.57-3.54-2-5.9-4.24-7.11s-4.81-2.5-7.64-3.92a19,19,0,0,1-7.21-7.53,64.14,64.14,0,0,1-4.67-9.86,28.28,28.28,0,0,1-1.16-9.33c.07-3.68.24-6.93.53-9.76q.42-4.67,1-9t.75-8.81q.42-5.5.31-10.92T1173.71,226.51Z" transform="translate(-494.25 -14.47)" style="fill:#ea1573"/><path d="M735.11,488q.42-4.45.84-8.59a38.29,38.29,0,0,0-.21-9,39.38,39.38,0,0,0-1.59-8,26.26,26.26,0,0,1-1.16-7.95c0-3,.06-6,.21-9.12a62.13,62.13,0,0,0-.21-8.91c-.15-2.26-.32-4.66-.53-7.21a32.64,32.64,0,0,1,.21-7.53,25.76,25.76,0,0,1,2-7,14.23,14.23,0,0,1,4.67-5.62,11.78,11.78,0,0,1,7.32-2q4.33.11,8,.32a38,38,0,0,0,8-.43,17.65,17.65,0,0,1,7.74.43,13.39,13.39,0,0,1,3.08,1.16,12.88,12.88,0,0,0,3.07,1.17,13.85,13.85,0,0,0,4.14.21,39.83,39.83,0,0,1,4.14-.21,17.15,17.15,0,0,1,7.63,2,43.58,43.58,0,0,0,7.85,3.08,37.49,37.49,0,0,0,3.71.64,18.76,18.76,0,0,1,3.71.84,27.61,27.61,0,0,1,6.15,3,55.09,55.09,0,0,1,5.73,4.25c1.27,1.13,2.47,2.3,3.61,3.49s2.33,2.37,3.6,3.5q5.09,4.24,8.8,7.85a45.17,45.17,0,0,1,7.11,9.33,74.14,74.14,0,0,1,8.69,21.85,68.73,68.73,0,0,1,1.49,16A76.15,76.15,0,0,1,850.49,502a37.46,37.46,0,0,1-2.87,8.06q-1.8,3.62-4.13,7.42l-1.91,2.65c-.57.78-1.27,1.67-2.12,2.66a14.3,14.3,0,0,0-1.91,3.28c-.43,1.06-.92,2.23-1.49,3.5a49,49,0,0,1-4.45,8.17,57.1,57.1,0,0,1-5.73,7.32,34.91,34.91,0,0,1-3.6,3.5,18.83,18.83,0,0,0-3.4,3.71,25.62,25.62,0,0,0-2,4c-.64,1.55-1.24,3-1.8,4.45a9.76,9.76,0,0,0-.43,1c-.14.35-.28.67-.42.95q-1.07,3-2.12,6.15T810.19,575a25.62,25.62,0,0,0-.85,7.95,50.64,50.64,0,0,1-.21,8c-.43,3.39-1,6.82-1.7,10.28a86.41,86.41,0,0,0-1.48,10.5c0,.71,0,1.77.1,3.18s.11,2.87.11,4.35-.08,2.9-.21,4.24a6.14,6.14,0,0,1-.85,2.87,3.39,3.39,0,0,1-3,1.16,5.3,5.3,0,0,1-3.18-1.16,4.36,4.36,0,0,1-1.59-3.18c-.08-1.28-.18-2.48-.32-3.61a18.52,18.52,0,0,1,.63-7.42,10.56,10.56,0,0,0-.42-7.21c-.71-1.84-1.48-3.61-2.33-5.31a14.41,14.41,0,0,1-1.49-5.51q-.21-4-.74-8.38a30.28,30.28,0,0,0-2-8c-.7-1.7-1.45-3.33-2.22-4.88a37.6,37.6,0,0,1-2-4.88c-.42-1.56-.78-2.9-1.06-4a7,7,0,0,0-2.33-3.39,31.43,31.43,0,0,0-5.2-3.18,7.5,7.5,0,0,0-5.83-.21,13.74,13.74,0,0,0-5.3,2.86,13.44,13.44,0,0,0-3.61,5,21.41,21.41,0,0,0-1.48,4.14c-.43,1.62-.92,3.29-1.49,5a40.69,40.69,0,0,1-1.91,4.78,7.54,7.54,0,0,1-2.75,3.28,2.62,2.62,0,0,1-2.87,0,10.44,10.44,0,0,1-3-2.44,19.82,19.82,0,0,1-2.43-3.5,27,27,0,0,1-1.49-3c-.42-1.13-.85-2.33-1.27-3.6s-.85-2.48-1.27-3.61a25.87,25.87,0,0,0-2.87-5.94,27.07,27.07,0,0,1-2.86-5.72,25.89,25.89,0,0,1-1.7-10.5q.21-5.62.64-10.71a32.6,32.6,0,0,0-.43-10.39,39.31,39.31,0,0,1-.31-8.7,72.49,72.49,0,0,0,.1-8.7q-.21-4.23-.63-8.48A45.71,45.71,0,0,1,735.11,488Zm46.66-9.12a19.7,19.7,0,0,0-1.06,6.05,27.71,27.71,0,0,0,.53,7.42,11.72,11.72,0,0,0,2.54,5.51c1.2,1.35,2.93,1.38,5.2.11a2.93,2.93,0,0,0,1.06-.74l.63-1a7.68,7.68,0,0,0,1.49-3.6,28.21,28.21,0,0,0,.42-5,24.16,24.16,0,0,0-.63-5.4,33.4,33.4,0,0,0-1.49-4.88q-1.69-3.82-4-4.24C784.88,472.89,783.32,474.8,781.77,478.9Z" transform="translate(-494.25 -14.47)" style="fill:#ea1573"/><path d="M857.48,498.2a15,15,0,0,0-.21-7.53,66.12,66.12,0,0,1-1.69-7.53,36.27,36.27,0,0,1-.32-8.37c.21-2.76.38-5.55.53-8.38q.21-4.87,0-9.44a50.4,50.4,0,0,1,.42-9.23,56,56,0,0,1,1.27-7,20.31,20.31,0,0,0,.43-7.22,48.62,48.62,0,0,1-.11-8.48q.32-3.82,4.35-6.57c.71-.57,1.59-1.35,2.65-2.34a9.62,9.62,0,0,1,2.65-1.91,7.52,7.52,0,0,1,4.88-.1,37.06,37.06,0,0,0,5.09.95q2.55.21,4.56.21a10.56,10.56,0,0,0,4.35-1.06c2.83-1.13,5.65-2.29,8.48-3.5a18.28,18.28,0,0,1,8.91-1.38,8,8,0,0,1,6.68,3.93,18.51,18.51,0,0,1,2.33,8.06,37.42,37.42,0,0,1-.53,9.33c-.56,3.18-1.06,5.69-1.48,7.53a20,20,0,0,1-1.38,4.24,19.59,19.59,0,0,0-1.38,4.24,7.56,7.56,0,0,0,.32,5q1,1.8,2.65,4.35a10.68,10.68,0,0,1,1.91,5,21,21,0,0,1-.11,4.77c-.21,1.56-.42,3.18-.63,4.88a15,15,0,0,0,.32,5.3c.42,2.27.81,4.28,1.16,6.05a25,25,0,0,1,.32,6.25,29.69,29.69,0,0,0,0,5q.21,2.44.21,4.77a16.38,16.38,0,0,1-.63,4.67,15.2,15.2,0,0,0-.64,4.45,6.45,6.45,0,0,0,2.55,5.51q2.54,1.92,5.93.22a24.69,24.69,0,0,0,5.09-3.18,12,12,0,0,0,3-5.09,52.3,52.3,0,0,0,1.7-5.09,13.24,13.24,0,0,0,.21-5.31q-.42-3.18-.74-6.25a26.29,26.29,0,0,1,.11-6.26,49.14,49.14,0,0,0,.21-7.74c-.14-2.34-.43-4.91-.85-7.74-.28-2-.5-3.64-.64-5a37.77,37.77,0,0,1-.21-3.92,18.68,18.68,0,0,1,.43-3.93c.28-1.34.63-2.93,1.06-4.77a20.88,20.88,0,0,0,.74-6.36q-.1-3.39-.53-6.58a25.23,25.23,0,0,0-1.59-6.25,9,9,0,0,1-.11-6.26,13.42,13.42,0,0,1,2.55-4.77,9.16,9.16,0,0,1,4.45-2.86c1.13-.29,2.15-.57,3.08-.85a10.45,10.45,0,0,1,3.07-.43,8.1,8.1,0,0,1,3.61,1,17.17,17.17,0,0,0,3.81,1.38,16.94,16.94,0,0,0,7.64-.53,23.39,23.39,0,0,1,7.85-1,7.14,7.14,0,0,1,4.13,1.38,7.73,7.73,0,0,1,2.12,2.86,18.05,18.05,0,0,1,1.17,3.93,44.51,44.51,0,0,0,1.06,4.35,36.46,36.46,0,0,1,1.59,5.93c.35,2,.67,4,1,6.15.56,4,1.06,7.29,1.48,10a45.78,45.78,0,0,0,3,9.76,30.91,30.91,0,0,1,2,12.62q-.33,6.47-.32,13c0,1.56.07,3.22.21,5a19.37,19.37,0,0,1-.21,5v.21a40.55,40.55,0,0,1-1.59,7.74,19.78,19.78,0,0,0-.75,8c.29,2.26.46,4.49.54,6.68s0,4.49-.11,6.89a87,87,0,0,1-7.42,30.76,16.24,16.24,0,0,1-4.56,5.94c-2.06,1.69-4,3.32-5.84,4.87a24.36,24.36,0,0,1-2.12,1.91,4.41,4.41,0,0,0-1.48,2.34,6,6,0,0,0-.43,3.18,8,8,0,0,1-.21,3.18,4.77,4.77,0,0,1-1.8,2.44,14.44,14.44,0,0,1-2.55,1.27c-.92.35-1.84.74-2.75,1.17a5.22,5.22,0,0,0-2.23,1.9q-1.27,1.69-1.38,5.63t-.11,7.95a25.92,25.92,0,0,1-.84,7q-.85,3-3.61,3a4,4,0,0,1-3.61-1.59,8.08,8.08,0,0,1-1.27-3.71,14.47,14.47,0,0,1,.21-4.25,31.77,31.77,0,0,1,.85-3.39,16.6,16.6,0,0,0,.53-9,18.44,18.44,0,0,0-3.71-8.38,31.35,31.35,0,0,1-2.33-3.61,10.11,10.11,0,0,1-1.27-4c-.15-.85-.32-1.73-.53-2.65a7.2,7.2,0,0,0-1-2.33,2.22,2.22,0,0,0-1.7-1.06,4.32,4.32,0,0,0-2.75,1.16,7.48,7.48,0,0,0-2.76,3.93,20.82,20.82,0,0,0-1.27,4.77,33,33,0,0,0,.1,7.95,27.61,27.61,0,0,1-.1,8c-.71,4.94-1.56,10-2.55,15.06a60.59,60.59,0,0,0-1.06,15c.14,1.42.28,2.69.43,3.82a33.54,33.54,0,0,1,.21,3.82,3.63,3.63,0,0,1-2.34,3.71q-2.32,1-4.24-1.38a10,10,0,0,1-2.33-5.94,32.13,32.13,0,0,1,.42-7.21c.43-2.54.85-5.05,1.28-7.53a28.28,28.28,0,0,0,.42-6.68c-.28-2.12-.64-4.21-1.06-6.25s-.78-4.07-1.06-6a23.44,23.44,0,0,0-1.06-5,10.23,10.23,0,0,1-.43-5c.14-.71.36-2,.64-3.81a23.53,23.53,0,0,0,.21-5.41,8.75,8.75,0,0,0-1.38-4.35c-.77-1.13-2.08-1.42-3.92-.85a5.54,5.54,0,0,0-2.23,2.12,15.45,15.45,0,0,0-1.59,2.76,7.16,7.16,0,0,0-.31,3.71,6,6,0,0,1-.54,3.71,36.47,36.47,0,0,1-2.75,4.56,10.57,10.57,0,0,0-1.49,5,51.28,51.28,0,0,1-.85,6.89,35.41,35.41,0,0,0-.63,6.68c0,.56,0,1.62-.11,3.18a22.83,22.83,0,0,1-.63,4.46,7,7,0,0,1-1.7,3.28c-.78.78-1.8.6-3.08-.53a3.87,3.87,0,0,1-1.27-2.75,25.41,25.41,0,0,1-.1-4.14c.06-1.48.17-2.94.31-4.35a13.53,13.53,0,0,0,0-3.39c-.28-1.14-.6-2.23-.95-3.29a11.82,11.82,0,0,0-1.59-3.07,19.08,19.08,0,0,0-2.33-2.34,6.75,6.75,0,0,1-1.91-2.54,11,11,0,0,1-.64-3.5c0-1.06,0-2.12.11-3.18s.1-2.16.1-3.29a9.67,9.67,0,0,0-.63-3.39,15.59,15.59,0,0,0-3.61-5.94,58.68,58.68,0,0,1-4.67-5.31,15.87,15.87,0,0,1-2-3.5,40.29,40.29,0,0,0-1.8-3.71c-1.14-2-2.3-4-3.5-6a25.53,25.53,0,0,1-2.65-6,41.89,41.89,0,0,1-.85-5.72,45.39,45.39,0,0,0-.85-5.73q-1.06-5.29-2.33-10.5a65.72,65.72,0,0,1-1.7-10.71,15.35,15.35,0,0,1,.32-5Q856.84,501.17,857.48,498.2Z" transform="translate(-494.25 -14.47)" style="fill:#ea1573"/><path d="M994.71,445v-5.84q0-3.28.21-6.78a64.65,64.65,0,0,1,.74-6.68,17.4,17.4,0,0,1,1.81-5.52,28.93,28.93,0,0,1,10.07-10.39,45.86,45.86,0,0,1,13.57-5.52,75.69,75.69,0,0,1,15.06-1.9q7.74-.21,14.74,0a39,39,0,0,1,6.68,1.06,44.92,44.92,0,0,1,6.79,2.22q3.28,1.38,6.26,3t5.51,3.08c2,1.13,3.89,2.16,5.73,3.07a22.32,22.32,0,0,1,4.88,3.29,17.55,17.55,0,0,1,2.86,2.65,23.67,23.67,0,0,0,2.65,2.65,11.48,11.48,0,0,0,3.5,1.49,9.33,9.33,0,0,1,3.29,1.48,8.61,8.61,0,0,1,2.76,2.76,18.1,18.1,0,0,1,1.9,3.61,10,10,0,0,1,.64,7.84,16.33,16.33,0,0,1-1.7,3.61c-.7,1.13-1.48,2.26-2.33,3.39s-1.66,2.27-2.44,3.4a10.09,10.09,0,0,0-1.59,3.81,31.37,31.37,0,0,0-.85,7.11,25,25,0,0,1-1.06,7.1,6.18,6.18,0,0,1-1.59,2.44,2.77,2.77,0,0,1-3.07.53,3.17,3.17,0,0,1-1.91-2.22,16,16,0,0,0-1.06-2.87,9.66,9.66,0,0,0-1.38-2.86,7.9,7.9,0,0,0-2.86-1.17,10.32,10.32,0,0,1-2.55-1.27,5.14,5.14,0,0,1-1.48-1.91,47.62,47.62,0,0,0-4.67-7.1,36.15,36.15,0,0,0-6.15-6.15,25.26,25.26,0,0,0-7.42-4,18.06,18.06,0,0,0-8.49-.75q-4.24.65-5.62,3.18t1.59,6.16a14.67,14.67,0,0,0,6.68,5.19l8,3.29a25.55,25.55,0,0,1,8.06,4.35q3.18,2.65,6.78,5.83c2.69,2.41,5.34,4.84,8,7.32a44.34,44.34,0,0,1,6.89,8.37,19,19,0,0,1,2.54,3.72q1.07,2,2.13,3.92,1.47,3,2.75,6.26a46,46,0,0,0,3,6.25,54,54,0,0,0,4.67,8.06,15.06,15.06,0,0,1,2.54,8.91,22,22,0,0,1-1.37,7.85,77.6,77.6,0,0,0-2.44,7.42,56.8,56.8,0,0,1-2.66,8.06c-1.06,2.55-2.15,5-3.28,7.43a61.84,61.84,0,0,0-3.08,6.68,26,26,0,0,1-3.71,6.47,64.36,64.36,0,0,0-4.35,6.78,64.51,64.51,0,0,1-4.35,6.79,26.93,26.93,0,0,0-3.28,7.42q-.75,3.18-1.81,8.06c-.14.71-.31,1.84-.53,3.4s-.67,2.54-1.38,3a2.65,2.65,0,0,1-2.12.31,2.74,2.74,0,0,1-1.37-1.16,11.74,11.74,0,0,1-1-1.91c-.28-.71-.5-1.28-.64-1.7a14.53,14.53,0,0,1-.74-3.71,7.42,7.42,0,0,0-1.16-3.5,4.82,4.82,0,0,0-2.76-2,5.18,5.18,0,0,0-3.08.31,8.55,8.55,0,0,0-2.86,1.91,12.86,12.86,0,0,0-2.12,2.76,16.91,16.91,0,0,0-2.12,6.36,51.38,51.38,0,0,1-1.27,6.58,22.89,22.89,0,0,1-2.44,5.51,51.78,51.78,0,0,0-2.87,5.09,12,12,0,0,0-1.27,6.26q.21,3.29.43,6.47a46.28,46.28,0,0,1-.64,13.15,16.54,16.54,0,0,1-1.27,3.07c-.57,1.06-1.63,1.52-3.19,1.38s-2.22-1-2.43-2-.46-2.16-.75-3.29a21.9,21.9,0,0,1,.11-7.74,60.69,60.69,0,0,0,.95-8.17,45.7,45.7,0,0,0-.31-8.16q-.54-4.14-1-8c0-.56,0-1.55-.1-3s-.18-3-.32-4.87-.32-3.72-.53-5.63a39.6,39.6,0,0,0-1-5.4c-1.13-3.68-2.69-5.38-4.66-5.09a2.78,2.78,0,0,0-1.49,1.16c-.28.5-.6,1-1,1.59a4.73,4.73,0,0,1-1.28,1.38,2.58,2.58,0,0,1-2.22.11,4.1,4.1,0,0,1-3.4-2.76c-.56-1.56-1.13-3.11-1.69-4.67q-1.28-2.53-2.34-5.3a21.91,21.91,0,0,0-2.75-5.09,51,51,0,0,0-4.67-5.62c-1.7-1.77-3.39-3.57-5.09-5.41q-3.18-3.81-5.62-7.1a57.66,57.66,0,0,1-4.77-7.74,32.85,32.85,0,0,0-5-7.11,26.61,26.61,0,0,1-4.77-7.32,55.69,55.69,0,0,1-2.76-5.4,14.88,14.88,0,0,1-1.27-6,8,8,0,0,1,1.59-4.77,18.94,18.94,0,0,1,3.93-4,29.93,29.93,0,0,1,4.87-3.08c1.7-.85,3.26-1.55,4.67-2.12a49.43,49.43,0,0,1,8-2.22q3.93-.75,8.17-1.81a9.3,9.3,0,0,0,3.18-1.16c1.13-.64,2.33-1.24,3.61-1.81a22,22,0,0,1,3.71-1.27,6,6,0,0,1,3.5.21q2.32,1.07,3.29,4.67a37.73,37.73,0,0,0,2,5.94,16.35,16.35,0,0,1,1.06,2.75,17.86,17.86,0,0,0,6.79,9.55,10.28,10.28,0,0,0,8.69,1.27,11.07,11.07,0,0,0,6.47-4,13.4,13.4,0,0,0,2.65-6.68,20.77,20.77,0,0,0-.53-7.53,19.92,19.92,0,0,0-3.07-6.79,17.29,17.29,0,0,0-2.23-2.22,16.7,16.7,0,0,1-2.23-2.23,18.93,18.93,0,0,1-1.8-2,3.31,3.31,0,0,0-1.16-1.07,8.33,8.33,0,0,0-1.49-.53c-.57-.13-1.34-.28-2.33-.42q-3.82-.84-7.85-1.59t-8.06-1.8a6.53,6.53,0,0,1-2.23-.85,5.24,5.24,0,0,1-.85-.85c-.21-.28-.46-.6-.74-.95a13.22,13.22,0,0,0-1.69-1.6c-.85-.56-1.53-1-2-1.27a2.83,2.83,0,0,0-1.38-.42,10,10,0,0,0-1.38.1,6.6,6.6,0,0,1-2-.1q-3-.42-7.11-1a19.07,19.07,0,0,1-7.1-2.22,5.65,5.65,0,0,1-2.12-2.55,10.81,10.81,0,0,1-.53-2.76c-.08-1-.11-2-.11-3.18a8.8,8.8,0,0,0-.85-3.6Q997.9,459,996.3,455A27.07,27.07,0,0,1,994.71,445Z" transform="translate(-494.25 -14.47)" style="fill:#ea1573"/><path d="M1117.3,446.24a8.65,8.65,0,0,0-1.27-3.61,18.53,18.53,0,0,1-1.7-3.39,15,15,0,0,1-.85-3.92,27.12,27.12,0,0,0-.64-3.93,55.93,55.93,0,0,1-.95-9.12q-.11-4.66-.11-9.54c0-4.38,1-7.18,2.87-8.38s4.91-1.45,9-.74a23.26,23.26,0,0,1,4.45,1.27c1.42.57,2.83,1.17,4.25,1.8a24.36,24.36,0,0,0,4.24,1.49,11.31,11.31,0,0,0,4.66.1,7,7,0,0,0,3.5-1.69,7.31,7.31,0,0,1,3.72-1.7,15.65,15.65,0,0,1,6.25,0q3.29.64,6.26,1.06c3.53.29,6.86.71,10,1.27a20.4,20.4,0,0,0,10-.84,20.43,20.43,0,0,1,8.27-.85,66,66,0,0,1,8.38,1.38q4.13.94,8.37,2a34.76,34.76,0,0,0,8.49,1.06,30.47,30.47,0,0,0,9-1.27,23.51,23.51,0,0,1,9-.85,51,51,0,0,0,8.7.11,62.05,62.05,0,0,0,8.7-1.38,36.44,36.44,0,0,1,8.48-1.06,11.87,11.87,0,0,1,7.64,3,17.8,17.8,0,0,1,5.4,6.25,18.35,18.35,0,0,1,1.17,8.17q-.21,4.45-.11,9.33a56.53,56.53,0,0,1-.53,9.33c-.84,5.8-1.77,11.39-2.75,16.76a61.09,61.09,0,0,0-.64,17c.28,2.68.67,5.55,1.17,8.59a18.41,18.41,0,0,1-.53,8.59,9.32,9.32,0,0,1-2.55,3.71,16,16,0,0,1-4.13,2.86,7.21,7.21,0,0,1-3.93.85c-1.13-.14-1.69-.92-1.69-2.33v-.22a13,13,0,0,0-1-5.19,20.35,20.35,0,0,1-1.38-5,15.37,15.37,0,0,0-1.48-4.77,15.16,15.16,0,0,1-1.49-5A20.55,20.55,0,0,0,1249,469a10.08,10.08,0,0,0-4.35-4.14,8,8,0,0,0-5.3-.31,15.62,15.62,0,0,0-5.62,2.86,27.78,27.78,0,0,0-3.93,3.82,19.91,19.91,0,0,0-3.07,5.09,41.22,41.22,0,0,0-3.61,16.65q0,8.37-.21,16.86a101.21,101.21,0,0,1-.53,10.39c-.35,3.39-.57,6.79-.64,10.18s0,6.79.22,10.18a46.42,46.42,0,0,0,1.8,10.18,97.14,97.14,0,0,1,2.54,10.71,17,17,0,0,1-1.48,10.93,13.25,13.25,0,0,1-4.77,5.09,14.29,14.29,0,0,0-4.77,4.66,11.76,11.76,0,0,0-1.38,4,17.52,17.52,0,0,0-.11,4.35l.42,4.45a22.58,22.58,0,0,1,0,4.35,40.1,40.1,0,0,1-.84,4.88,7.8,7.8,0,0,1-2.34,4.24,3.71,3.71,0,0,1-2.75.85,3.83,3.83,0,0,1-2.23-1.27,10.8,10.8,0,0,1-1.7-2.65,11.42,11.42,0,0,1-.95-2.87,12.62,12.62,0,0,1-.21-4,29.6,29.6,0,0,1,.63-3.71c.28-1.2.57-2.44.85-3.71a18.72,18.72,0,0,0,.42-4,4.79,4.79,0,0,0-.63-2.65,14.73,14.73,0,0,1-1.27-2.44,10.55,10.55,0,0,1-1.28-4.24,5.54,5.54,0,0,0-1.91-3.82q-2.12-2.11-3,0a20.86,20.86,0,0,0-1.16,5.73q-.32,3.6-.32,7.31a16.48,16.48,0,0,1-.42,4.78q-1.28,3.6-2.87,7.84a17.92,17.92,0,0,0-1.16,8.28,52.42,52.42,0,0,0,1.48,8.9,26,26,0,0,1,.43,9.55,38.07,38.07,0,0,1-1,4.56,20.94,20.94,0,0,1-2,4.35,10.43,10.43,0,0,0-1.49,4.87,40.31,40.31,0,0,0,.43,5.31,42.38,42.38,0,0,1,.21,4.66,18.72,18.72,0,0,1-.74,5.41,5.12,5.12,0,0,1-2.44,3.29c-1.14.56-2.62-.07-4.46-1.91a7.06,7.06,0,0,1-1.91-3.82,28.18,28.18,0,0,1-.42-5c0-1.77,0-3.54.1-5.3a12.49,12.49,0,0,0-.53-4.56,28.57,28.57,0,0,1-1.16-4.67,18,18,0,0,1,.1-5.09c.29-2,.6-4,1-5.94s.67-4,1-5.94q.43-2.34.85-5.41a9.42,9.42,0,0,0-.85-5.62c-1.13-2.4-2.37-4.74-3.71-7a32.27,32.27,0,0,0-5-6.36,26.92,26.92,0,0,0-5.52-3.92,14.8,14.8,0,0,1-5.09-4.56,18.76,18.76,0,0,1-2.75-6,34.48,34.48,0,0,1-1.06-6.78,45.43,45.43,0,0,1,.1-7c.21-2.34.39-4.56.53-6.68.28-3.4.67-6.75,1.17-10.08a71.9,71.9,0,0,0,.74-10.5,75,75,0,0,0-.74-10.5,34.9,34.9,0,0,1,.1-10.5q.86-5.08,1.91-10.39a21.47,21.47,0,0,0-.42-10.39q-.65-2.55-1.17-5.41a29.09,29.09,0,0,1-.53-5.2,14.86,14.86,0,0,1,.64-4.13c.42-1.49.77-3,1.06-4.67a17,17,0,0,0,.21-4.56,5.37,5.37,0,0,0-1.91-3.6q-2.34-1.92-4-1.59a4.82,4.82,0,0,0-3,2,12,12,0,0,0-1.91,3.92,15.33,15.33,0,0,0-.63,4.14,13.74,13.74,0,0,0,.21,4.24,10.81,10.81,0,0,1,0,4.24,23.07,23.07,0,0,1-1.27,3.61c-.57,1.27-1.14,2.48-1.7,3.61a23.38,23.38,0,0,1-2,3.6c-.78,1.13-1.53,2.26-2.23,3.39a7.85,7.85,0,0,0-1.49,3.93,30.69,30.69,0,0,1-.42,4.35,7.73,7.73,0,0,1-2.33,4.24,6.16,6.16,0,0,1-3.82,1.59,6.07,6.07,0,0,1-3.92-1.17,7.31,7.31,0,0,1-2.66-3.82,15.14,15.14,0,0,1-.74-4,29.42,29.42,0,0,0-.53-4.24,16.83,16.83,0,0,0-1.27-4.13,10.08,10.08,0,0,1-.85-4.35,19.74,19.74,0,0,0-1.7-8.48,10.53,10.53,0,0,0-1.06-1.7,8.18,8.18,0,0,1-1.06-1.91,3.7,3.7,0,0,1-.21-2.12,2.92,2.92,0,0,0-.21-1.91,5.54,5.54,0,0,0-2.33-2.76,8.34,8.34,0,0,1-2.76-2.75q-2.13-3.39-.64-8.06a8.24,8.24,0,0,1,1.38-3.4,8.27,8.27,0,0,0,1.38-3.18,37.54,37.54,0,0,0,.74-4.13A16.91,16.91,0,0,0,1117.3,446.24Z" transform="translate(-494.25 -14.47)" style="fill:#ea1573"/><path d="M735.11,742.54c.28-3,.56-5.84.84-8.59a38.38,38.38,0,0,0-.21-9,39.15,39.15,0,0,0-1.59-7.95,26.32,26.32,0,0,1-1.16-8c0-3,.06-6,.21-9.12A62,62,0,0,0,733,691c-.15-2.26-.32-4.67-.53-7.21a32.61,32.61,0,0,1,.21-7.53,25.56,25.56,0,0,1,2-7,14.16,14.16,0,0,1,4.67-5.62,11.72,11.72,0,0,1,7.32-2q4.33.11,8,.32a38,38,0,0,0,8-.43,17.65,17.65,0,0,1,7.74.43,13,13,0,0,1,3.08,1.17,12,12,0,0,0,7.21,1.37,39.83,39.83,0,0,1,4.14-.21,17.18,17.18,0,0,1,7.63,2,43.51,43.51,0,0,0,7.85,3.07,34.77,34.77,0,0,0,3.71.64,18.12,18.12,0,0,1,3.71.85,27.18,27.18,0,0,1,6.15,3,53.59,53.59,0,0,1,5.73,4.24q1.9,1.7,3.61,3.5t3.6,3.5q5.09,4.25,8.8,7.85a44.64,44.64,0,0,1,7.11,9.33,74.19,74.19,0,0,1,8.69,21.84,68.82,68.82,0,0,1,1.49,16,76.15,76.15,0,0,1-2.33,16.43,37.46,37.46,0,0,1-2.87,8.06c-1.2,2.41-2.58,4.88-4.13,7.43l-1.91,2.65c-.57.78-1.27,1.66-2.12,2.65a14.35,14.35,0,0,0-1.91,3.29c-.43,1.06-.92,2.22-1.49,3.5a49.28,49.28,0,0,1-4.45,8.16,57.1,57.1,0,0,1-5.73,7.32,33.91,33.91,0,0,1-3.6,3.5,18.83,18.83,0,0,0-3.4,3.71,26.06,26.06,0,0,0-2,4q-1,2.34-1.8,4.45c-.15.29-.29.61-.43,1s-.28.67-.42,1q-1.07,3-2.12,6.15t-1.91,6.15a25.65,25.65,0,0,0-.85,8,50.54,50.54,0,0,1-.21,7.95q-.64,5.08-1.7,10.29a85.86,85.86,0,0,0-1.48,10.5c0,.7,0,1.76.1,3.18s.11,2.86.11,4.35-.08,2.89-.21,4.24a6.13,6.13,0,0,1-.85,2.86,3.39,3.39,0,0,1-3,1.17,5.3,5.3,0,0,1-3.18-1.17,4.36,4.36,0,0,1-1.59-3.18c-.08-1.27-.18-2.48-.32-3.61a18.52,18.52,0,0,1,.63-7.42,10.56,10.56,0,0,0-.42-7.21c-.71-1.84-1.48-3.61-2.33-5.3a14.51,14.51,0,0,1-1.49-5.52q-.21-4-.74-8.37a30.26,30.26,0,0,0-2-8c-.7-1.7-1.45-3.32-2.22-4.88a37.46,37.46,0,0,1-2-4.87c-.42-1.56-.78-2.91-1.06-4a7,7,0,0,0-2.33-3.39,31.43,31.43,0,0,0-5.2-3.18,7.5,7.5,0,0,0-5.83-.21,13.74,13.74,0,0,0-5.3,2.86,13.48,13.48,0,0,0-3.61,5,21.3,21.3,0,0,0-1.48,4.13c-.43,1.63-.92,3.29-1.49,5a41.23,41.23,0,0,1-1.91,4.77,7.57,7.57,0,0,1-2.75,3.29,2.66,2.66,0,0,1-2.87,0,10.61,10.61,0,0,1-3-2.44,20.19,20.19,0,0,1-2.43-3.5,28.88,28.88,0,0,1-1.49-3c-.42-1.14-.85-2.34-1.27-3.61s-.85-2.47-1.27-3.6a25.67,25.67,0,0,0-2.87-5.94,27.38,27.38,0,0,1-2.86-5.73,25.89,25.89,0,0,1-1.7-10.5c.14-3.74.35-7.32.64-10.71a32.61,32.61,0,0,0-.43-10.39,39.31,39.31,0,0,1-.31-8.7,72.32,72.32,0,0,0,.1-8.69q-.21-4.24-.63-8.49A45.6,45.6,0,0,1,735.11,742.54Zm46.66-9.12a19.57,19.57,0,0,0-1.06,6,27.68,27.68,0,0,0,.53,7.42,11.71,11.71,0,0,0,2.54,5.52c1.2,1.34,2.93,1.38,5.2.1a2.93,2.93,0,0,0,1.06-.74l.63-1a7.77,7.77,0,0,0,1.49-3.61,28,28,0,0,0,.42-5,24.24,24.24,0,0,0-.63-5.41,33.78,33.78,0,0,0-1.49-4.88c-1.13-2.54-2.47-4-4-4.24S783.32,729.32,781.77,733.42Z" transform="translate(-494.25 -14.47)" style="fill:#ea1573"/><path d="M857.48,752.72a15,15,0,0,0-.21-7.53,67.1,67.1,0,0,1-1.69-7.53,36.36,36.36,0,0,1-.32-8.38c.21-2.76.38-5.55.53-8.38.14-3.25.14-6.39,0-9.44a50.25,50.25,0,0,1,.42-9.22,55.86,55.86,0,0,1,1.27-7,20.25,20.25,0,0,0,.43-7.21,48.74,48.74,0,0,1-.11-8.49q.32-3.81,4.35-6.57c.71-.57,1.59-1.34,2.65-2.34a9.54,9.54,0,0,1,2.65-1.9,7.51,7.51,0,0,1,4.88-.11,34.25,34.25,0,0,0,5.09,1c1.7.15,3.22.22,4.56.22a10.56,10.56,0,0,0,4.35-1.06c2.83-1.13,5.65-2.3,8.48-3.5a18.28,18.28,0,0,1,8.91-1.38,8,8,0,0,1,6.68,3.92,18.51,18.51,0,0,1,2.33,8.06,37.42,37.42,0,0,1-.53,9.33c-.56,3.18-1.06,5.7-1.48,7.53a19.79,19.79,0,0,1-1.38,4.24,19.5,19.5,0,0,0-1.38,4.25,7.53,7.53,0,0,0,.32,5q1,1.8,2.65,4.35a10.72,10.72,0,0,1,1.91,5,21.14,21.14,0,0,1-.11,4.78c-.21,1.55-.42,3.18-.63,4.87a15.07,15.07,0,0,0,.32,5.31q.63,3.39,1.16,6a25.05,25.05,0,0,1,.32,6.26,29.57,29.57,0,0,0,0,5q.21,2.44.21,4.77a16.33,16.33,0,0,1-.63,4.67,15.2,15.2,0,0,0-.64,4.45,6.47,6.47,0,0,0,2.55,5.52q2.54,1.9,5.93.21a24.69,24.69,0,0,0,5.09-3.18,12,12,0,0,0,3-5.09,51.42,51.42,0,0,0,1.7-5.09,13.19,13.19,0,0,0,.21-5.3c-.28-2.13-.53-4.21-.74-6.26a26.29,26.29,0,0,1,.11-6.26,49.11,49.11,0,0,0,.21-7.74c-.14-2.33-.43-4.91-.85-7.74-.28-2-.5-3.64-.64-5a38.11,38.11,0,0,1-.21-3.93,18.52,18.52,0,0,1,.43-3.92c.28-1.34.63-2.94,1.06-4.77a20.9,20.9,0,0,0,.74-6.37,65.68,65.68,0,0,0-.53-6.57,25.31,25.31,0,0,0-1.59-6.26,9,9,0,0,1-.11-6.26,13.51,13.51,0,0,1,2.55-4.77,9.23,9.23,0,0,1,4.45-2.86c1.13-.28,2.15-.56,3.08-.85a10.45,10.45,0,0,1,3.07-.42,8.08,8.08,0,0,1,3.61.95,16.23,16.23,0,0,0,3.81,1.38,16.8,16.8,0,0,0,7.64-.53,23.65,23.65,0,0,1,7.85-1,7.29,7.29,0,0,1,4.13,1.38,7.77,7.77,0,0,1,2.12,2.87,18,18,0,0,1,1.17,3.92,43.82,43.82,0,0,0,1.06,4.35A36.3,36.3,0,0,1,975.3,688q.53,3,1,6.15c.56,4,1.06,7.28,1.48,10a45.88,45.88,0,0,0,3,9.75,30.91,30.91,0,0,1,2,12.62c-.22,4.32-.32,8.66-.32,13.05q0,2.32.21,5a19.37,19.37,0,0,1-.21,5v.22a40.71,40.71,0,0,1-1.59,7.74,19.71,19.71,0,0,0-.75,8c.29,2.27.46,4.49.54,6.68s0,4.49-.11,6.9a87,87,0,0,1-7.42,30.75,16.24,16.24,0,0,1-4.56,5.94c-2.06,1.69-4,3.32-5.84,4.88a28.11,28.11,0,0,1-2.12,1.91,4.39,4.39,0,0,0-1.48,2.33,6,6,0,0,0-.43,3.18,8,8,0,0,1-.21,3.18,4.77,4.77,0,0,1-1.8,2.44,14.44,14.44,0,0,1-2.55,1.27c-.92.35-1.84.74-2.75,1.17a5.17,5.17,0,0,0-2.23,1.91q-1.27,1.69-1.38,5.62t-.11,7.95a25.87,25.87,0,0,1-.84,7q-.85,3-3.61,3a4,4,0,0,1-3.61-1.59,8.08,8.08,0,0,1-1.27-3.71,14.38,14.38,0,0,1,.21-4.24,31.43,31.43,0,0,1,.85-3.4,16.6,16.6,0,0,0,.53-9,18.44,18.44,0,0,0-3.71-8.38,29.71,29.71,0,0,1-2.33-3.61,10.06,10.06,0,0,1-1.27-4c-.15-.85-.32-1.74-.53-2.66a7.29,7.29,0,0,0-1-2.33,2.22,2.22,0,0,0-1.7-1.06,4.35,4.35,0,0,0-2.75,1.17,7.41,7.41,0,0,0-2.76,3.92,20.82,20.82,0,0,0-1.27,4.77,33.08,33.08,0,0,0,.1,8,27.54,27.54,0,0,1-.1,7.95q-1.07,7.43-2.55,15.06A60.67,60.67,0,0,0,919,873.4c.14,1.41.28,2.68.43,3.81a33.54,33.54,0,0,1,.21,3.82,3.63,3.63,0,0,1-2.34,3.71q-2.32,1-4.24-1.37a10,10,0,0,1-2.33-5.94,32.07,32.07,0,0,1,.42-7.21c.43-2.55.85-5.06,1.28-7.53a28.34,28.34,0,0,0,.42-6.68c-.28-2.13-.64-4.21-1.06-6.26s-.78-4.07-1.06-6a23.7,23.7,0,0,0-1.06-5,10.2,10.2,0,0,1-.43-5c.14-.71.36-2,.64-3.82a23.51,23.51,0,0,0,.21-5.41,8.75,8.75,0,0,0-1.38-4.35q-1.16-1.7-3.92-.85a5.54,5.54,0,0,0-2.23,2.12,15.45,15.45,0,0,0-1.59,2.76,7.17,7.17,0,0,0-.31,3.71,6,6,0,0,1-.54,3.72,36.18,36.18,0,0,1-2.75,4.55,10.57,10.57,0,0,0-1.49,5,51.28,51.28,0,0,1-.85,6.89,35.41,35.41,0,0,0-.63,6.68c0,.57,0,1.63-.11,3.18a22.83,22.83,0,0,1-.63,4.46,7.08,7.08,0,0,1-1.7,3.29c-.78.77-1.8.6-3.08-.53a3.91,3.91,0,0,1-1.27-2.76,25.38,25.38,0,0,1-.1-4.14c.06-1.48.17-2.93.31-4.35a13.53,13.53,0,0,0,0-3.39c-.28-1.13-.6-2.23-.95-3.29a12,12,0,0,0-1.59-3.07,19.08,19.08,0,0,0-2.33-2.34,6.6,6.6,0,0,1-1.91-2.54,11,11,0,0,1-.64-3.5c0-1.06,0-2.12.11-3.18s.1-2.16.1-3.29a9.67,9.67,0,0,0-.63-3.39,15.59,15.59,0,0,0-3.61-5.94,59.89,59.89,0,0,1-4.67-5.3,16.1,16.1,0,0,1-2-3.5,37.94,37.94,0,0,0-1.8-3.71c-1.14-2-2.3-4-3.5-6.05a25.64,25.64,0,0,1-2.65-6,42,42,0,0,1-.85-5.73,45.66,45.66,0,0,0-.85-5.73q-1.06-5.29-2.33-10.5a65.72,65.72,0,0,1-1.7-10.71,15.37,15.37,0,0,1,.32-5Q856.84,755.69,857.48,752.72Z" transform="translate(-494.25 -14.47)" style="fill:#ea1573"/><path d="M988.77,732.14a91.19,91.19,0,0,1,1.17-14.63,53.48,53.48,0,0,0,.31-14.64q-.42-4.46-.84-8.8t-.43-9a69.12,69.12,0,0,1,1.17-12.94q1.15-6.15,7.1-11a14.83,14.83,0,0,1,8.28-3.39,49.61,49.61,0,0,1,9.12,0,20.11,20.11,0,0,1,4.34.85,13.76,13.76,0,0,0,4.14.63,29.19,29.19,0,0,0,5-.42,28.21,28.21,0,0,1,4.78-.43,4.85,4.85,0,0,1,5.09,4q.84,3.4,1.8,7a56.08,56.08,0,0,1,1.38,6.79,21.72,21.72,0,0,1-.53,7.64,26.33,26.33,0,0,0-.75,7.84c.29,3.54,1.24,5.41,2.87,5.62s3.42-.81,5.41-3.07a47.76,47.76,0,0,0,5.93-7.74q2.55-4.14,5.52-8.17a26.46,26.46,0,0,1,5.83-5.73c2.34-1.69,4.49-3.39,6.47-5.09q3.39-3,7-5.62a17.47,17.47,0,0,1,7.85-3.28,19.05,19.05,0,0,1,7,0,65,65,0,0,1,6.78,1.9q4.67,1.5,10.5,3.29a17.28,17.28,0,0,1,9,6,5.94,5.94,0,0,1,1.27,3.6,23.35,23.35,0,0,1-.32,3.82,28.93,28.93,0,0,1-1,3.92,12.91,12.91,0,0,0-.64,3.93,33.59,33.59,0,0,0,.32,7.1q.52,3.51,1.27,7c.49,2.34,1,4.7,1.38,7.11a41.82,41.82,0,0,1,.64,7.21,29.72,29.72,0,0,1-.32,4.56,4.08,4.08,0,0,1-2.44,3.07,2.73,2.73,0,0,1-2.44.43,6.37,6.37,0,0,1-1.91-1.38c-.64-.64-1.27-1.34-1.91-2.12a4.77,4.77,0,0,0-2.23-1.59,10.64,10.64,0,0,0-5.4-.32,16.77,16.77,0,0,0-5.41,2,25.09,25.09,0,0,0-4.67,3.5,27.61,27.61,0,0,0-3.6,4.14q-1.28,1.9-3.5,4.77a12.53,12.53,0,0,0-2.66,5.2c-.14,1.27-.28,2.69-.42,4.24a17.44,17.44,0,0,0,.21,4.67,5.67,5.67,0,0,0,1.17,3.07,26.67,26.67,0,0,1,2,2.86,41.24,41.24,0,0,1,3.72,7.11,68.57,68.57,0,0,0,3.28,7.1c1.13,2,2.37,4.21,3.72,6.69a22.78,22.78,0,0,0,4.56,6,10.88,10.88,0,0,0,3.07,2.23,19.39,19.39,0,0,0,3.18,1.16,30.39,30.39,0,0,1,3.18,1.06,15.32,15.32,0,0,1,3.08,1.7,12.22,12.22,0,0,1,4.35,6.58,30.82,30.82,0,0,1,.95,7.42,41.71,41.71,0,0,0,.53,6.36q.52,3.4,1.17,6.37a24.78,24.78,0,0,0,2.23,6.36,16.91,16.91,0,0,1,1.8,6.57,9.84,9.84,0,0,1-.64,3.71,24.23,24.23,0,0,1-1.48,3.08c-.57,1-1.17,2-1.81,3.08a8.58,8.58,0,0,0-1.16,3.5A13.74,13.74,0,0,0,1123,841a14.42,14.42,0,0,1-.22,4.24,10.25,10.25,0,0,1-1.38,3.6,10.5,10.5,0,0,0-1.37,3.61,18.92,18.92,0,0,0,0,5.73q.42,3.18.74,6.25a18.47,18.47,0,0,1-.21,5.62,5.38,5.38,0,0,1-3.08,3.82c-2.69,1.13-4.31.64-4.88-1.48a22.22,22.22,0,0,1-.63-7,38.17,38.17,0,0,0,.21-6.79,11.92,11.92,0,0,0-2.55-6.15c-.71-1-1.31-1.88-1.8-2.65a15.59,15.59,0,0,1-1.38-2.86c-.42-1.14-.74-2.06-1-2.76s-1.1-.71-2.65,0a6,6,0,0,0-2.23,2,12.61,12.61,0,0,1-1.91,2.23,3,3,0,0,1-2,.85c-.71,0-1.49-.78-2.34-2.33a12.29,12.29,0,0,1-1.38-3.08,20.65,20.65,0,0,0-1.8-4,6.51,6.51,0,0,0-2.44-2.54q-1.38-.75-3.28,1.37c-2,2.13-3.82,3.32-5.52,3.61s-3.54-.92-5.51-3.61a13.12,13.12,0,0,1-2.44-7.21c-.08-2.54-.18-5.16-.32-7.84a23.49,23.49,0,0,0-1.7-8.17,30.62,30.62,0,0,0-3.71-6.47c-1.48-2-3.08-4-4.77-6a50.61,50.61,0,0,1-4.67-6.68,19.13,19.13,0,0,0-1.69-2.55,9.52,9.52,0,0,0-4-3.29A8.33,8.33,0,0,0,1046,790a4.22,4.22,0,0,0-3.82,3.82,24.33,24.33,0,0,0,.21,7.11c.42,2.61.85,5.23,1.27,7.84a12.76,12.76,0,0,1-.21,6.26,11.83,11.83,0,0,1-5.62,5.83q-3.93,2-7.74,3.82a24,24,0,0,0-6.47,4.35q-2.65,2.55-1.59,7.21a47.88,47.88,0,0,1,1.06,7.74,53.77,53.77,0,0,1-.21,8.17c-.15,1.27-.29,2.47-.43,3.6a29.37,29.37,0,0,1-.63,3.4,19.9,19.9,0,0,0-.64,3.6,4.56,4.56,0,0,1-1.48,3.18c-1.56,1.28-2.76,1.66-3.61,1.17a4.61,4.61,0,0,1-1.91-2.54,17.19,17.19,0,0,1-.85-4c-.14-1.49-.21-2.59-.21-3.29a41.24,41.24,0,0,0-1.59-8.06c-.78-2.55-1.45-5.23-2-8.06a55.9,55.9,0,0,1-.95-6.26,9.51,9.51,0,0,0-2.44-5.62,11.37,11.37,0,0,0-5.41-3.6,27.74,27.74,0,0,1-6-2.76,15.51,15.51,0,0,1-7-7.95,37.19,37.19,0,0,1-2.33-10.5,162,162,0,0,1,.21-22.06q.84-10.81,1.91-21.63.63-7.42,1-14.32T988.77,732.14Z" transform="translate(-494.25 -14.47)" style="fill:#ea1573"/><path d="M1131.93,757q.42-4,1-8.17a48.65,48.65,0,0,0,.32-8.38c-.15-2.26-.36-4.48-.64-6.68a49.16,49.16,0,0,1-.43-6.47c0-1.55,0-3.1-.1-4.66a22.82,22.82,0,0,1,.32-4.88,118.69,118.69,0,0,1,2.12-14,31,31,0,0,0,.74-9.22,85.18,85.18,0,0,1-.11-9.44,12.8,12.8,0,0,1,2.76-8.06,16.94,16.94,0,0,1,7-4.67c2.4-1,4.74-2,7-3.07a19.55,19.55,0,0,1,7.21-1.81,53.92,53.92,0,0,1,7.53.11,38,38,0,0,0,7.53-.11q3.6-.42,7.32-1.16a37.86,37.86,0,0,1,7.53-.75q4.23,0,8.27.11a22.21,22.21,0,0,1,8.06,1.8,27.35,27.35,0,0,0,5.83,1.7,32.06,32.06,0,0,0,5.2.42c1.69,0,3.46-.07,5.3-.21s3.89-.21,6.15-.21a21.67,21.67,0,0,1,11.35,2.86,22.61,22.61,0,0,1,7.63,7.43,25.25,25.25,0,0,1,3.61,10.28,34.39,34.39,0,0,1-.53,11.67,16.1,16.1,0,0,1-2.23,5.19,11.2,11.2,0,0,0-1.8,5.41,54.36,54.36,0,0,0-.53,5.94,7.46,7.46,0,0,1-2.65,5.3,6.37,6.37,0,0,1-5.41,1.91,6.81,6.81,0,0,1-4.77-3.39,41.26,41.26,0,0,0-3.4-4.45,24.71,24.71,0,0,0-4.45-3.82,11.82,11.82,0,0,0-5.3-2.33,21.11,21.11,0,0,0-5.62-.11,44.69,44.69,0,0,0-5.84,1.06c-2,.5-3.89.88-5.72,1.17a8.47,8.47,0,0,1-2.66,0l-2.86-.43a19.79,19.79,0,0,0-2.76-.21,4.42,4.42,0,0,0-2.33.64,4.09,4.09,0,0,0-1.7,2.12,5.63,5.63,0,0,0-.21,2.65,7.37,7.37,0,0,0,1,2.65,9.85,9.85,0,0,0,1.59,2.12,14,14,0,0,0,5.94,3.39,28.63,28.63,0,0,0,6.57,1q3.39.11,6.89,0a31.77,31.77,0,0,1,6.9.53,8.19,8.19,0,0,1,6.36,3.92,19.89,19.89,0,0,1,2.44,7.53,40.92,40.92,0,0,1,.11,8.8q-.44,4.57-.43,8c0,2.26.07,4.74.21,7.42a7.94,7.94,0,0,1-2.12,6.36q-2.11,2.13-3.92,2a5.83,5.83,0,0,1-3.29-1.27,19.8,19.8,0,0,1-3-3,16.14,16.14,0,0,0-3-2.87,13,13,0,0,0-3.29-1.48,19.92,19.92,0,0,0-4.24-.85,12.16,12.16,0,0,0-4.24.32,7.07,7.07,0,0,0-3.29,1.8,6.19,6.19,0,0,0-1.48,3.39,11.7,11.7,0,0,0,.21,3.82,9.19,9.19,0,0,0,1.59,3.5,9.88,9.88,0,0,0,2.44,2.44,19.42,19.42,0,0,0,8.17,2.55,28.48,28.48,0,0,1,8.16,1.9,34.53,34.53,0,0,0,11.56,2.13q6.69.21,12,.21,9.76,0,9.76,9.54c0,3,.07,6.3.21,10a96.69,96.69,0,0,1-.21,11,51.8,51.8,0,0,1-1.91,10.6,18.57,18.57,0,0,1-5.09,8.49,16.81,16.81,0,0,1-3.82,2.86,38.81,38.81,0,0,1-4.24,2,12,12,0,0,1-3.5.74,7.92,7.92,0,0,0-3.07.74q-4.24,1.91-9.12,4.45a30.58,30.58,0,0,0-8.27,6.16,10.21,10.21,0,0,0-2.76,5.83,17.34,17.34,0,0,1-1.7,6,15.31,15.31,0,0,1-4.45,5.2,42.08,42.08,0,0,0-5.09,4.35,11.29,11.29,0,0,0-2.34,3.07,8.28,8.28,0,0,0-.74,2.87,14.12,14.12,0,0,0,.11,3c.14,1,.35,2.19.63,3.6a45.78,45.78,0,0,1,.22,4.88,18.51,18.51,0,0,1-.85,5.62,7.65,7.65,0,0,1-2.55,3.92q-1.7,1.28-4.66-.42a4.57,4.57,0,0,1-2.34-2.65,13.51,13.51,0,0,1-.74-3.71,18.73,18.73,0,0,1,.21-3.93c.22-1.34.39-2.51.53-3.5a67.42,67.42,0,0,0,1-12.62,109.61,109.61,0,0,0-1-12.83q-.42-3-1.06-6.15a32.65,32.65,0,0,1-.63-6.36,17.58,17.58,0,0,1,.74-4.77,5.86,5.86,0,0,0-.32-4.56,6,6,0,0,0-2.65-2.66,14.64,14.64,0,0,0-3.82-1.37,25.86,25.86,0,0,0-4.24-.53c-1.48-.08-2.72-.11-3.71-.11q-.85,0-1.38,1.38a24.89,24.89,0,0,0-.95,3.18,32.65,32.65,0,0,0-.64,3.39,20.08,20.08,0,0,0-.21,2.23,40,40,0,0,0,.31,5.3,15.34,15.34,0,0,1-.31,5.3,45.88,45.88,0,0,1-1.7,5.62,20.93,20.93,0,0,0-1.27,5.84v3.71a32.46,32.46,0,0,1-.21,3.71,7,7,0,0,1-1.06,3,3.58,3.58,0,0,1-2.76,1.48c-2,.29-3.39-.28-4.24-1.69a12.49,12.49,0,0,1-1.59-5.2,28.74,28.74,0,0,1,0-6.15c.21-2,.38-3.64.53-4.77a84.17,84.17,0,0,0,.31-9.23,38.05,38.05,0,0,0-1.37-9,10.92,10.92,0,0,0-2.66-5,22.85,22.85,0,0,0-4.77-3.5q-3-1.7-5.72-3.07a10.15,10.15,0,0,1-4.46-4.77,27.18,27.18,0,0,1-3-12.3,95.4,95.4,0,0,1,.85-12.73q.84-6.57,1.06-13.57a68.51,68.51,0,0,0-.85-13.37,30.66,30.66,0,0,1-.63-7.84C1131.44,762.61,1131.65,759.93,1131.93,757Z" transform="translate(-494.25 -14.47)" style="fill:#ea1573"/><path d="M1180.43,878.44l-.07-1.14a91.18,91.18,0,0,0-4.36-19.63l-.17.18c-.07-.13-.14-.26-.22-.38l-.15.26c0,.14,0,.26,0,.39a46.8,46.8,0,0,1-10.09,27.28,28.26,28.26,0,0,1-9.59,8.11,15.88,15.88,0,0,1-12.3.89,8.77,8.77,0,0,1-3.87-2.69,11,11,0,0,1-1.72-4,36.38,36.38,0,0,1,.77-19.41c1.72-5.59,4.77-11,9.7-14.17,4.72-3,11.39-3.35,15.74.08a2.72,2.72,0,0,1,.37.13c-2.12-3.56-6.33-5.57-10.48-5.87s-8.53,1-12.5,2.63c-5.12,2.14-10.17,5.11-13.14,9.8a32.06,32.06,0,0,0-3.28,7.93q-1.85,6-3.44,12l.54.46c-1.53,10.12-4.6,19.93-7.66,29.7a49.65,49.65,0,0,1-4.63,11.36,39.2,39.2,0,0,1-6.5,7.64c-5.82,5.56-12.47,10.43-20,13.23s-16.08,3.42-23.65.66a13.55,13.55,0,0,1-4.06-2.2,12.53,12.53,0,0,1-3.1-4.23,30.45,30.45,0,0,1-2.66-14.18A47.17,47.17,0,0,1,1061,894.21c3.24-3.82,7.37-7.25,12.31-8.11a7.89,7.89,0,0,1,4.83.47c2,1,3.17,3.08,4.07,5.11a42.86,42.86,0,0,1,3.56,19.86,8.93,8.93,0,0,0,.69.83v.28a2,2,0,0,0,.91-1.83c0-.14,0-.28,0-.41.15-5.48.28-11.07-1.33-16.32l.11-.3a79.84,79.84,0,0,0-2.27-10.59,12.3,12.3,0,0,0-2.08-4.54c-2-2.44-5.64-3.1-8.72-2.33s-5.71,2.7-8.13,4.75a80.48,80.48,0,0,0-10.84,11.38c-6.08,7.71-11.08,16.55-18.95,22.42-7.45,5.57-16.88,8-26.17,8.37s-18.55-1-27.74-2.46l-.09.35A7.69,7.69,0,0,1,974.8,918a17.29,17.29,0,0,1-2.91-6.72,50.3,50.3,0,0,1,4.23-34.95,31.49,31.49,0,0,1,8.07-10.26,22.64,22.64,0,0,1,29.76,1.51c-2-6.25-7.73-10.59-13.28-14.18a24.48,24.48,0,0,0-6.61-3.34,21.86,21.86,0,0,0-8.9-.13,65.39,65.39,0,0,0-26.57,10.16l0,.19c-5.37,5.48-10.87,11-17.67,14.6a65.52,65.52,0,0,1-11.53,4.39c-5,1.53-10.33,2.93-15.54,2.09-6.44-1-12-5.55-15.23-11.23s-4.22-12.42-3.81-18.93c.5-7.88,3.25-16,9.18-21.18,5.76-5.1,14.91-6.7,21.33-2.55-1-4.48-4.34-8.24-8.41-10.39-4.25-2.26-9.18-2.94-14-2.91a52.69,52.69,0,0,0-42.31,22.37l-.2.54c-7.73,9.51-13.68,20.34-21,30.2s-16.3,19-27.79,23.28l-.19-.31a109.15,109.15,0,0,1-17.26,3.43c-1.16.12-2.54.12-3.3-.66a38,38,0,0,0,6.29,17.09l-.34.9c10.92,13,24.93,23.24,39.89,31.34s31.14,14.25,47.27,20l0-.15c6.83,3.7,14.69,4.93,22.37,6.08,17.16,2.6,34.35,5.19,51.67,6.21v.08c30.31-.36,60.74.69,90.82-3,5.2-.65,10.71-1.58,14.74-4.83l.06.22a387.14,387.14,0,0,0,95.38-57.35l.3-.35a121.87,121.87,0,0,0,19.35-16.57,10.38,10.38,0,0,0,2.31-3.21,10.11,10.11,0,0,0,.32-4.71A62,62,0,0,0,1180.43,878.44Z" transform="translate(-494.25 -14.47)" style="fill:#df0045"/><path d="M1121.62,880.85q1.59-6,3.44-12a32.06,32.06,0,0,1,3.28-7.93c3-4.69,8-7.66,13.14-9.8,4-1.65,8.22-2.93,12.5-2.63s8.36,2.31,10.48,5.87a7.64,7.64,0,0,1,1,.46l0-.18a18.3,18.3,0,0,0-17-11.17,24.85,24.85,0,0,0-7.08,1.34,43.17,43.17,0,0,0-19.29,12.79l.15.4c-5.12,5.92-5.75,14.35-6.49,22.14-.93,9.59-2.43,19.23-6.1,28.13s-9.68,17.1-18,22a39.89,39.89,0,0,1-15.7,5c-5.39.58-11.48-.08-15.09-4.12-2.51-2.81-3.33-6.8-3.05-10.55a42.38,42.38,0,0,1,2.82-10.9c1-2.86,2-5.72,3.08-8.59.78-2.17,1.62-4.44,3.36-6,2.63-2.29,6.55-2.22,10-1.65a7.09,7.09,0,0,1,3,1,6.75,6.75,0,0,1,2.26,4.29c.9,4.38.85,9.3,3.42,12.82a42.86,42.86,0,0,0-3.56-19.86c-.9-2-2.08-4.12-4.07-5.11a7.89,7.89,0,0,0-4.83-.47c-4.94.86-9.07,4.29-12.31,8.11a47.17,47.17,0,0,0-11.11,29.08,30.45,30.45,0,0,0,2.66,14.18,12.53,12.53,0,0,0,3.1,4.23,13.55,13.55,0,0,0,4.06,2.2c7.57,2.76,16.1,2.15,23.65-.66s14.19-7.67,20-13.23a39.2,39.2,0,0,0,6.5-7.64A49.65,49.65,0,0,0,1114.5,911c3.06-9.77,6.13-19.58,7.66-29.7Z" transform="translate(-494.25 -14.47)" style="fill:#f9b233"/><path d="M1097.64,878.48a5.9,5.9,0,0,1-4.17-.67c-2.26-1.32-3.33-3.91-4.15-6.44l-.08.08a110,110,0,0,0-11.3-22.34,52.09,52.09,0,0,0-5.66-7.33,80,80,0,0,0-10.51-8.63,233.54,233.54,0,0,1-22.12-18.72l.15-.7c13.29,5.7,26.93,11.62,37.17,21.83,11.31,11.28,17.43,26.84,20.65,42.48Zm-21.15-284.75a86,86,0,0,1-.22,9.36h-.1c-.15,5.73-.46,11.64-3.13,16.7-3.07,5.82-8.8,9.64-13.58,14.17a54.31,54.31,0,0,0-10.39,13.57l-.08-.13c-12.86,17.49-33.55,28.73-43.8,47.89l-.5.11c-7.78,6.7-10.62,17.33-13.06,27.3-1.42,5.79-2.84,11.89-1.18,17.61.29,1,.65,2.13.07,3s-2.4.33-2-.6l.11-.7a22.82,22.82,0,0,1-2.55-8.94,59.1,59.1,0,0,1,13.29-44.12l-.19-.51a120.16,120.16,0,0,1,36.59-41.62l.38-.14q15.52-15.82,30.63-32.08c4.37-6.36,8.68-13.16,9.62-20.83ZM904.4,587.29a7.85,7.85,0,0,0,2.22-2.53,21.84,21.84,0,0,0,2.31-7.93,82.16,82.16,0,0,0,.46-8.91c-.58-4.67-2.8-8.36-5.32-10.15s-5.55-2-8.39-1.73a7.34,7.34,0,0,0-4.46,1.49c-2.24,1.9-3.64,5.94-4.77,9.88-1.67,5.84-3,13.08-1.11,18.69a15.68,15.68,0,0,0,4.36,6.44,51.53,51.53,0,0,0,6.46,5.33c3,2.1,6.19,3.74,8.93,6.83a22.48,22.48,0,0,1,5.33,13.73,27.84,27.84,0,0,1-2.09,11.44,41.87,41.87,0,0,1-5,8.5c-2.72,3.8-5.67,7.5-9.05,8.67,2.71-3.88,5.37-8.44,6.18-14.43a33.27,33.27,0,0,0-3-18,40.84,40.84,0,0,0-8.76-11.54,34.2,34.2,0,0,1-4.94-5.63c-3.39-5.18-5.16-13.26-5.28-21.21a76.78,76.78,0,0,1,3.38-22.86,15.53,15.53,0,0,1,2.32-5.27,6.32,6.32,0,0,1,3.69-2c2.84-.7,5.68-1.26,8.54-1.69,3.68-.55,7.48-.88,11,1.07s6.81,6.61,7.72,13c.14,1,.22,2,.31,3,.22,2.8.45,5.59.67,8.37a86.46,86.46,0,0,1,.41,8.67,15.43,15.43,0,0,1-.65,4.61,6.14,6.14,0,0,1-2.94,3.45c-2.77,1.53-5.73,1.31-8.62,1.09Zm21-154.17c3.37,1.17,6.32,4.88,9,8.67a41.75,41.75,0,0,1,5,8.51,27.48,27.48,0,0,1,2.1,11.43,22.51,22.51,0,0,1-5.33,13.74c-2.74,3.08-5.91,4.73-8.93,6.82a51.63,51.63,0,0,0-6.46,5.34,15.88,15.88,0,0,0-4.36,6.43c-1.91,5.61-.56,12.86,1.11,18.7,1.13,3.94,2.53,8,4.78,9.87a7.3,7.3,0,0,0,4.45,1.5c2.83.23,5.76.13,8.39-1.74s4.75-5.47,5.32-10.14a82.29,82.29,0,0,0-.46-8.91,21.78,21.78,0,0,0-2.31-7.93,7.76,7.76,0,0,0-2.23-2.53v-.41c2.9-.23,5.86-.44,8.63,1.09A6.1,6.1,0,0,1,947,497a15.11,15.11,0,0,1,.65,4.61,83.27,83.27,0,0,1-.41,8.66q-.33,4.19-.68,8.37c-.08,1-.16,2.05-.3,3.05-.91,6.37-4.18,11-7.72,13s-7.33,1.63-11,1.07q-4.27-.65-8.53-1.68a6.29,6.29,0,0,1-3.69-2,15.62,15.62,0,0,1-2.32-5.27A76.76,76.76,0,0,1,909.63,504c.12-8,1.88-16,5.29-21.23a33.62,33.62,0,0,1,4.93-5.62,41.16,41.16,0,0,0,8.76-11.54,33.27,33.27,0,0,0,3-18C930.77,441.57,928.12,437,925.41,433.12ZM885.2,455.33c-.07.12-.14.22-.21.32-3,7.2-6.6,14.19-9.67,21.39-7.38,17.35-11.88,35.77-16.34,54.09l-.2-.15a283.94,283.94,0,0,0-11.5,34.56c-3.73,14.15-6.35,28.55-8.8,43l0,0a32,32,0,0,0-.56,6.1,5.29,5.29,0,0,1-.57,2.91l.09.18c-4.13,5.91-5.24,13.34-6.23,20.47-.63,4.5-1.26,9-1.88,13.5a12,12,0,0,1-1.26,4.47,91.13,91.13,0,0,1,.55-22.92c.6-4,1.58-8.09,4.32-11a12.55,12.55,0,0,0,2.7-3.18l0-.2a4.81,4.81,0,0,1-2.48.12,25.18,25.18,0,0,1-6.35-1.72,11.9,11.9,0,0,1-5.08-4.08l0-.14-.13-.13-.09.39-.42,1.94.31.21c1.2,5.49-.64,11.13-2.11,16.55a129.15,129.15,0,0,0-4.49,33.76h-.28c.2,15.85.47,32,5.19,47.07a43.07,43.07,0,0,0,7.08,14.29,48.39,48.39,0,0,0,10.25,9,59,59,0,0,0,14,7.68,1.72,1.72,0,0,1,.07-.21l.29-.11c7.39,1.42,15.44,2.76,22.13-.67a30.84,30.84,0,0,0,6.24-4.6,150.18,150.18,0,0,0,35.61-47.61l-.13-.33c15.15-18.88,22.49-42.68,32.91-64.55,5.81-12.2,12.71-24.1,16.07-37.16l-.11-.09c5.06-25.91,15.46-50.45,22.26-76l-.44-.3,2.49-16.37a43.38,43.38,0,0,0,.73-10.53l.06,0a5.57,5.57,0,0,1,2.73,3.74,16.49,16.49,0,0,1,.22,4.76q-.62,11.79-1.2,23.6a226.1,226.1,0,0,0-13.54,45.71l0,1.91a493.66,493.66,0,0,1-18.45,48.74l.23.33a554.22,554.22,0,0,1-32.26,65.63l.15.29Q913.58,702.16,900,724.31l-.21.4-23.1,19.77a13.87,13.87,0,0,1-3.38,2.33,13,13,0,0,1-5.13.68,173.59,173.59,0,0,1-18-1.06c-.09.24-.19.48-.28.71l.12.17c1.46,4.1-1.5,8.32-4.13,11.81a129.72,129.72,0,0,0-18.25,33.7l.18.31-3,5.38-2.63,4.72c-4.76,8.52-9.55,17.1-13,26.24H809c-6.84,19.14-13.11,38.63-15.51,58.8a5.14,5.14,0,0,1-.85,2.31A121.19,121.19,0,0,0,841,842.1l.08.13c7.45-10.57,16.8-20,28-26.35s24.45-9.65,37.27-7.94a31.88,31.88,0,0,1,9.17,2.48,23.52,23.52,0,0,1,13.05,23.77l-.07.06a9.53,9.53,0,0,0-2.94-4.51,10,10,0,0,0-8.64-2.35,15.2,15.2,0,0,0-5,2.4,22,22,0,0,0-8,9.16c-1.6,3.72-1.78,7.89-1.74,11.93,0,4.28.31,8.72,2.29,12.53,3.28,6.29,10.61,9.52,17.66,10.24a23.34,23.34,0,0,0,11.28-1.28,29.1,29.1,0,0,0,7.74-5.19c6-5.18,11.44-11,17.78-15.85s13.85-8.54,21.79-8.55l0,.21c9.46-2.43,19.81,1,27.3,7.29a20.83,20.83,0,0,1,7.86,13,39.7,39.7,0,0,1,.51,14.21l-.32-.14-5.3-7.34a15.68,15.68,0,0,0-3.52-3.87c-2.75-1.92-6.43-1.87-9.69-1.1a25.21,25.21,0,0,0-7.74,45.77,35.64,35.64,0,0,0,12.42,4.61,32.12,32.12,0,0,0,13.13.26c5.46-1.21,10.23-4.45,14.8-7.69,5.6-4,11.19-8.09,15.73-13.25,2.57-2.92,4.78-6.14,7.12-9.26a134.12,134.12,0,0,1,10.38-12.21c2.77-2.88,6.17-5.83,10.15-5.55l.28-.15a29.25,29.25,0,0,1,13.58,43.29,2,2,0,0,1-.91,1.83v-.28a8.93,8.93,0,0,1-.69-.83c-2.57-3.52-2.52-8.44-3.42-12.82a6.75,6.75,0,0,0-2.26-4.29,7.09,7.09,0,0,0-3-1c-3.44-.57-7.36-.64-10,1.65-1.74,1.52-2.58,3.79-3.36,6-1,2.87-2,5.73-3.08,8.59a42.38,42.38,0,0,0-2.82,10.9c-.28,3.75.54,7.74,3.05,10.55,3.61,4,9.7,4.7,15.09,4.12a39.89,39.89,0,0,0,15.7-5c8.32-4.85,14.33-13,18-22s5.17-18.54,6.1-28.13c.74-7.79,1.37-16.22,6.49-22.14l-.15-.4a43.17,43.17,0,0,1,19.29-12.79,24.85,24.85,0,0,1,7.08-1.34,18.3,18.3,0,0,1,17,11.17l0,.18a7.64,7.64,0,0,0-1-.46l.2.35-.57-.48c-5-1.7-11,.54-14.56,4.61-3.94,4.53-5.33,10.77-5.61,16.76-.21,4.52.59,9.82,4.54,12,4.12,2.29,9.31-.17,12.81-3.34a33.41,33.41,0,0,0,10.1-17.5c.68-3.19,1.17-6.89,3.91-8.63h.17c0-.13,0-.25,0-.39l.15-.26c-2.61-4.58-5.3-9.17-8.91-13-3.26-3.49-7.2-6.26-10.52-9.7s-6.06-7.8-6-12.57l.12-1c-2.49-2.62-5.22-5-7.93-7.45-5-4.46-10.06-8.93-15.27-13.17l-.25,1c-6.8-.29-12.92-4-18.4-8.08-5.29-3.89-10.45-8.22-16.61-10.45v-.07l-10.69-4.36c-1.56-.64-3.13-1.28-4.65-2-4.93-2.38-9.33-5.78-14.29-8.13-3.83-1.82-7.94-3-11.89-4.54a48.53,48.53,0,0,1-17.72-11.59,33.31,33.31,0,0,1-9-18.71l-.12.05c-4-8.25-3.31-18.15-.16-26.75s8.55-16.16,14-23.56l-.36-.95a171.81,171.81,0,0,0,12.62-16.87q1.95-3,3.77-6c4-6.63,7.53-13.57,12.59-19.4A95.58,95.58,0,0,1,1077,629.7l10.58-8.86c2.12-1.78,4.7-3.66,7.36-3.21l.62-.4.63-.2c-3-30-14.61-59.07-19.28-89.1-4.31-27.7-2.72-55.95-1.1-83.93l-.27-.05q-.39-37.09.76-74.16l-.37,0c-.22.13-.45.24-.67.36a17.84,17.84,0,0,1-13.76,1l-.78.57a184.13,184.13,0,0,1-44.15-16.94,41.11,41.11,0,0,0-7-3.28c-6.16-1.93-12.82-.48-19.27-.64-7.74.91-15.44-1.93-23.23-2.22-9.28-.33-18.47,3.07-26,8.49s-13.53,12.76-18.38,20.68l-.14.22c-7.07,8.7-10.83,19.58-16.94,29l-.43.12A140.78,140.78,0,0,1,885.2,455.33Z" transform="translate(-494.25 -14.47)" style="fill:#c68b7a"/><path d="M958.59,860.09a65.39,65.39,0,0,1,26.57-10.16,21.86,21.86,0,0,1,8.9.13,24.48,24.48,0,0,1,6.61,3.34c5.55,3.59,11.26,7.93,13.28,14.18a22.64,22.64,0,0,0-29.76-1.51,31.49,31.49,0,0,0-8.07,10.26,50.3,50.3,0,0,0-4.23,34.95A17.29,17.29,0,0,0,974.8,918a7.69,7.69,0,0,0,6.37,3.14l.09-.35c9.19,1.44,18.44,2.88,27.74,2.46s18.72-2.8,26.17-8.37c7.87-5.87,12.87-14.71,18.95-22.42A80.48,80.48,0,0,1,1065,881.08c2.42-2.05,5.06-4,8.13-4.75s6.69-.11,8.72,2.33a12.3,12.3,0,0,1,2.08,4.54,79.84,79.84,0,0,1,2.27,10.59l-.11.3c1.61,5.25,1.48,10.84,1.33,16.32,0,.13,0,.27,0,.41a29.25,29.25,0,0,0-13.58-43.29l-.28.15c-4-.28-7.38,2.67-10.15,5.55A134.12,134.12,0,0,0,1053,885.44c-2.34,3.12-4.55,6.34-7.12,9.26-4.54,5.16-10.13,9.28-15.73,13.25-4.57,3.24-9.34,6.48-14.8,7.69a32.12,32.12,0,0,1-13.13-.26,35.64,35.64,0,0,1-12.42-4.61A25.21,25.21,0,0,1,997.52,865c3.26-.77,6.94-.82,9.69,1.1a15.68,15.68,0,0,1,3.52,3.87l5.3,7.34.32.14a39.7,39.7,0,0,0-.51-14.21,20.83,20.83,0,0,0-7.86-13c-7.49-6.3-17.84-9.72-27.3-7.29l0-.21c-7.94,0-15.46,3.76-21.79,8.55S947.1,862,941.09,867.18a29.1,29.1,0,0,1-7.74,5.19,23.34,23.34,0,0,1-11.28,1.28c-7.05-.72-14.38-3.95-17.66-10.24-2-3.81-2.26-8.25-2.29-12.53,0-4,.14-8.21,1.74-11.93a22,22,0,0,1,8-9.16,15.2,15.2,0,0,1,5-2.4,10,10,0,0,1,8.64,2.35l-.1-1.63c0-.21-.08-.43-.13-.64-6.42-4.15-15.57-2.55-21.33,2.55-5.93,5.22-8.68,13.3-9.18,21.18-.41,6.51.6,13.24,3.81,18.93s8.79,10.19,15.23,11.23c5.21.84,10.5-.56,15.54-2.09A65.52,65.52,0,0,0,941,874.88c6.8-3.56,12.3-9.12,17.67-14.6Z" transform="translate(-494.25 -14.47)" style="fill:#f9b233"/><path d="M1143.47,894.4a15.88,15.88,0,0,0,12.3-.89,28.26,28.26,0,0,0,9.59-8.11,46.8,46.8,0,0,0,10.09-27.28h-.17c-2.74,1.74-3.23,5.44-3.91,8.63a33.41,33.41,0,0,1-10.1,17.5c-3.5,3.17-8.69,5.63-12.81,3.34-4-2.19-4.75-7.49-4.54-12,.28-6,1.67-12.23,5.61-16.76,3.54-4.07,9.55-6.31,14.56-4.61-4.35-3.43-11-3.09-15.74-.08-4.93,3.14-8,8.58-9.7,14.17a36.38,36.38,0,0,0-.77,19.41,11,11,0,0,0,1.72,4A8.77,8.77,0,0,0,1143.47,894.4Z" transform="translate(-494.25 -14.47)" style="fill:#f9b233"/><path d="M925.36,827.47c0,.21.09.43.13.64l.1,1.63a9.53,9.53,0,0,1,2.94,4.51l.07-.06a23.52,23.52,0,0,0-13.05-23.77,31.88,31.88,0,0,0-9.17-2.48c-12.82-1.71-26,1.55-37.27,7.94s-20.59,15.78-28,26.35l-.08-.13a121.19,121.19,0,0,1-48.34,48.48,1.44,1.44,0,0,1-1.36.73l-.33.17-.16,0c0,.5.07,1,.13,1.5.76.78,2.14.78,3.3.66a109.15,109.15,0,0,0,17.26-3.43l.19.31c11.49-4.26,20.51-13.42,27.79-23.28s13.23-20.69,21-30.2l.2-.54a52.69,52.69,0,0,1,42.31-22.37c4.83,0,9.76.65,14,2.91C921,819.23,924.4,823,925.36,827.47Z" transform="translate(-494.25 -14.47)" style="fill:#f9b233"/><path d="M791.29,891.31l1.36-.73a5.14,5.14,0,0,0,.85-2.31c2.4-20.17,8.67-39.66,15.51-58.8h.16c3.45-9.14,8.24-17.72,13-26.24l2.63-4.72-.68-1.2-.24.22a259.65,259.65,0,0,0-32,78.06l.52.39a74.92,74.92,0,0,0-1.68,10.72,35.25,35.25,0,0,0,0,4.82l.16,0Z" transform="translate(-494.25 -14.47)"/><path d="M791.29,891.31a1.44,1.44,0,0,0,1.36-.73Z" transform="translate(-494.25 -14.47)" style="fill:#ebc2b0"/><path d="M1089.32,871.37c.82,2.53,1.89,5.12,4.15,6.44a5.9,5.9,0,0,0,4.17.67l0-.44c-3.22-15.64-9.34-31.2-20.65-42.48-10.24-10.21-23.88-16.13-37.17-21.83l-.15.7a233.54,233.54,0,0,0,22.12,18.72,80,80,0,0,1,10.51,8.63,52.09,52.09,0,0,1,5.66,7.33,110,110,0,0,1,11.3,22.34Z" transform="translate(-494.25 -14.47)"/><path d="M1156.15,828.65a45.37,45.37,0,0,0-5.89-7.5l-.12,1c0,4.77,2.73,9.14,6,12.57s7.26,6.21,10.52,9.7c3.61,3.84,6.3,8.43,8.91,13,.08.12.15.25.22.38l.17-.18a89.54,89.54,0,0,0-4.47-10.82Q1163.84,837.76,1156.15,828.65Z" transform="translate(-494.25 -14.47)"/><path d="M1164.66,854.68l-.2-.35a2.72,2.72,0,0,0-.37-.13Z" transform="translate(-494.25 -14.47)" style="fill:#ebc2b0"/><path d="M1023.52,733.56a33.31,33.31,0,0,0,9,18.71,48.53,48.53,0,0,0,17.72,11.59c4,1.56,8.06,2.72,11.89,4.54,5,2.35,9.36,5.75,14.29,8.13,1.52.74,3.09,1.38,4.65,2l10.69,4.36V783c6.16,2.23,11.32,6.56,16.61,10.45,5.48,4,11.6,7.79,18.4,8.08l.25-1a161.48,161.48,0,0,0-15.41-11.25l.06-.35q-35.42-18.64-70.84-37.28l0,.24a29.34,29.34,0,0,1-14.65-18.06c-2.5-9.07-.45-18.64,2.29-27.72.26-.87.52-1.72.8-2.58h0c2.33-7.48,6.54-14.22,10.7-20.86,3.33-5.3,6.66-10.61,10.13-15.83l-.65-1.37a171.81,171.81,0,0,1-12.62,16.87l.36.95c-5.41,7.4-10.81,15-14,23.56s-3.84,18.5.16,26.75Z" transform="translate(-494.25 -14.47)"/><path d="M824.8,798.51l3-5.38-.18-.31a129.72,129.72,0,0,1,18.25-33.7c2.63-3.49,5.59-7.71,4.13-11.81l-.12-.17c-2.75,6.51-7,12.37-10.72,18.4a153.29,153.29,0,0,0-15.06,31.77Z" transform="translate(-494.25 -14.47)"/><path d="M977.54,563.1a226.1,226.1,0,0,1,13.54-45.71q.6-11.79,1.2-23.6a16.49,16.49,0,0,0-.22-4.76,5.57,5.57,0,0,0-2.73-3.74l-.06,0a43.38,43.38,0,0,1-.73,10.53l-2.49,16.37.44.3c-6.8,25.5-17.2,50-22.26,76l.11.09c-3.36,13.06-10.26,25-16.07,37.16-10.42,21.87-17.76,45.67-32.91,64.55l.13.33a150.18,150.18,0,0,1-35.61,47.61,30.84,30.84,0,0,1-6.24,4.6c-6.69,3.43-14.74,2.09-22.13.67l-.29.11a1.72,1.72,0,0,0-.07.21c-.29.9-.61,1.78-1,2.64a173.59,173.59,0,0,0,18,1.06,13,13,0,0,0,5.13-.68,13.87,13.87,0,0,0,3.38-2.33l23.1-19.77.21-.4Q913.6,702.14,927.23,680l-.15-.29a554.22,554.22,0,0,0,32.26-65.63l-.23-.33A493.66,493.66,0,0,0,977.56,565Z" transform="translate(-494.25 -14.47)"/><path d="M821.16,615.24l.42-1.94-.54-.37c-7.62,18.86-8.78,39.61-9.86,59.93l-.61.34q2.67,24.69,6.39,49.28c.95,6.28,2.26,13.11,7.12,17.2,3.19,2.69,7.43,3.72,11.53,4.52q7.23,1.42,14.57,2.23c.36-.86.68-1.74,1-2.64a59,59,0,0,1-14-7.68,48.39,48.39,0,0,1-10.25-9,43.07,43.07,0,0,1-7.08-14.29c-4.72-15.12-5-31.22-5.19-47.07h.28A129.15,129.15,0,0,1,819.36,632c1.47-5.42,3.31-11.06,2.11-16.55Z" transform="translate(-494.25 -14.47)"/><path d="M1066.81,614.57q-15.11,16.26-30.63,32.08l-.38.14a120.16,120.16,0,0,0-36.59,41.62l.19.51A59.1,59.1,0,0,0,986.11,733a22.82,22.82,0,0,0,2.55,8.94l-.11.7c-.43.93,1.4,1.47,2,.6s.22-2-.07-3c-1.66-5.72-.24-11.82,1.18-17.61,2.44-10,5.28-20.6,13.06-27.3l.5-.11c10.25-19.16,30.94-30.4,43.8-47.89l.08.13A54.31,54.31,0,0,1,1059.46,634c4.78-4.53,10.51-8.35,13.58-14.17,2.67-5.06,3-11,3.13-16.7h.1a86,86,0,0,0,.22-9.36h-.06C1075.49,601.41,1071.18,608.21,1066.81,614.57Z" transform="translate(-494.25 -14.47)"/><path d="M1050.7,707.41l.08,0a28.49,28.49,0,0,0,8.39-3.12,40.21,40.21,0,0,0,7.87-6.52l.11-.11c5.77-5.76,11.25-11.8,16.7-17.86,4.44-5.94,8.75-12,13.83-17.35l0,0a14.58,14.58,0,0,1,4.12-3.6l0-.44a13.86,13.86,0,0,0-6.77,3.56,60.3,60.3,0,0,0-5.24,5.71q-3,3.4-6.26,6.51l0,.23a66.27,66.27,0,0,0-8.31,9.18c-1.78,2.55-3.21,5.35-5.12,7.79-4.31,5.49-10.74,8.79-17,11.92a25.34,25.34,0,0,1-5,2.07,25.89,25.89,0,0,1-6.22.58L1029,706l-.09.39a12.22,12.22,0,0,0,4,1.57A35.6,35.6,0,0,0,1050.7,707.41Z" transform="translate(-494.25 -14.47)"/><path d="M1094.93,617.63A98.61,98.61,0,0,0,1068,643.79l-.48,0a207.34,207.34,0,0,0-17.41,23.09c-3.47,5.22-6.8,10.53-10.13,15.83-4.16,6.64-8.37,13.38-10.7,20.86h0c-.28.86-.54,1.71-.8,2.58l0,0,.37.26.09-.39,12.94-.12a25.89,25.89,0,0,0,6.22-.58,25.34,25.34,0,0,0,5-2.07c6.23-3.13,12.66-6.43,17-11.92,1.91-2.44,3.34-5.24,5.12-7.79a66.27,66.27,0,0,1,8.31-9.18l0-.23q3.3-3.1,6.26-6.51a60.3,60.3,0,0,1,5.24-5.71,13.86,13.86,0,0,1,6.77-3.56l0,.44.33-.16,0,0Q1100.5,647.8,1099,637a11.15,11.15,0,0,1-2.39-4.8l.33-.22a139.52,139.52,0,0,0-.75-14.91l-.63.2Z" transform="translate(-494.25 -14.47)" style="fill:#c68b7a"/><path d="M1122.92,219.48l.08,0q.69,8.08,1.26,16.18l.35-.09.28-.06,4.47-.95,19.06-6.85c.6-.22,1.4-.38,1.83,0a.61.61,0,0,1,.12.15,1.67,1.67,0,0,1,0,1.35c-1.27,4.32-.74,8.92-.85,13.42a62.89,62.89,0,0,1-2.3,14.73c-1.11,4.26-2.52,8.46-3.91,12.63-1.1,3.27-2.24,6.62-4.47,9.24a20.16,20.16,0,0,1-6.37,4.72l0,.25a19.08,19.08,0,0,1-5.78,2.6q1.21,47.11-1.47,94.24l-.15,1.31q.3,22-1,44c-.07,1.1-.44,2.5-1.49,2.64l0-.7c-.23-1.31-.47-2.62-.7-3.93l.09-.05A1918.68,1918.68,0,0,1,1122.92,219.48ZM1228,189.92c1.22-21.55-8.62-42.13-18.22-61.52-3-6-6-12.08-10.36-17.16-5.1-5.93-11.83-10.24-18.85-13.68-21.18-10.38-45.41-13.34-68.93-11.73q-6.23.42-12.4,1.24c-10.17-3.88-21.71-1.48-32.4,1l-23.65,5.46c-9.88,2.28-19.78,4.56-29.43,7.68A281.26,281.26,0,0,0,982,114.08c-12.23,5.69-24.66,12.07-33.48,22.2a31.36,31.36,0,0,0-2.82,7.38,193.76,193.76,0,0,0-6.85,54l.28.22c-2.71,37.26,2.76,74.61,3,112l-.38.2c-.79,8-1.59,16.16-4.1,23.85-2.7,8.2-7.38,16.35-6,24.86l.25.85c1.14-1,2.31-2.06,3.54-3a53.72,53.72,0,0,1,38.73-10.93l.26-.15q5.57-.25,11.13,0V345a22.06,22.06,0,0,1-4.92-5.54l-.11.2a87.43,87.43,0,0,1-20.72-33c-1.18-3.38-2.15-6.83-3.11-10.28l-4-14.2-.29.26a13.58,13.58,0,0,0-.78-6.62c-.61-1.6-1.52-3.09-2-4.72-1.07-3.39-.36-7.06.38-10.53q2.38-11.16,5.11-22.23l.3-1.22c.06-.26.13-.53.19-.79l-.18-1.38A102.21,102.21,0,0,0,958.14,213c.54-17-1.33-34.37,2.35-50.9l0,0a6.25,6.25,0,0,1-.32-3.75l.61-.28,49.87.77c10.71.17,21.46.34,32.06,1.89,13.23,1.93,27.34,6.95,34,18.55a54.16,54.16,0,0,1,4.06,10.09c1.94,5.92,3.89,11.9,4.33,18.1a67,67,0,0,1-1.15,15.46c0,.15-.05.3-.07.45-.17,1-.35,2.09-.52,3.14l-.1.6a347.85,347.85,0,0,0-4,37.56c-.14,2.71,0,6,2.37,7.34l.07,0a12.88,12.88,0,0,1-.27,4.79l.22.19q-2.85,34.08-4.38,68.25-.56,12.29-.93,24.58-1.15,37.05-.76,74.16l.27.05c-1.62,28-3.21,56.23,1.1,83.93,4.67,30,16.23,59.08,19.28,89.1a139.52,139.52,0,0,1,.75,14.91l-.33.22A11.15,11.15,0,0,0,1099,637q1.52,10.85,3.22,21.66c.17,1.11.35,2.22.53,3.34,1,6.12,2.11,12.49,5.84,17.44,7.63,10.11,22.52,10.36,35.13,9q17.49-1.82,34.77-5.16c7.6-1.47,15.69-3.47,21.41-8.42l-.13-1.59c-1.49-9-1.21-18.24-.94-27.38q.78-26.25,1.57-52.5c.28-9.16.55-18.33,1.51-27.44,1.91-18,6.48-35.87,5.12-53.84l.06,0,2.54-3.06.25.07,9.81-109.74c1.15-12.83,2.3-25.7,2.16-38.58h.23c.62-12.4,2.84-24.67,4.28-37,3-25.82,2.7-51.91,2.38-77.91Z" transform="translate(-494.25 -14.47)" style="fill:#ea1573"/><path d="M1049.46,665.48l.65,1.37a207.34,207.34,0,0,1,17.41-23.09l.48,0a98.61,98.61,0,0,1,26.93-26.16c-2.66-.45-5.24,1.43-7.36,3.21L1077,629.7a95.58,95.58,0,0,0-11.17,10.39c-5.06,5.83-8.62,12.77-12.59,19.4Q1051.42,662.52,1049.46,665.48Z" transform="translate(-494.25 -14.47)"/><path d="M828.12,656.17a12,12,0,0,0,1.26-4.47c.62-4.51,1.25-9,1.88-13.5,1-7.13,2.1-14.56,6.23-20.47l-.09-.18a1.7,1.7,0,0,1-.68.59,1.45,1.45,0,0,1-.29.11h0a1.74,1.74,0,0,1-.77.6l0,.2a12.55,12.55,0,0,1-2.7,3.18c-2.74,2.92-3.72,7-4.32,11A91.13,91.13,0,0,0,828.12,656.17Z" transform="translate(-494.25 -14.47)"/><path d="M909.39,567.92a82.16,82.16,0,0,1-.46,8.91,21.84,21.84,0,0,1-2.31,7.93,7.85,7.85,0,0,1-2.22,2.53v.41c2.89.22,5.85.44,8.62-1.09a6.14,6.14,0,0,0,2.94-3.45,15.43,15.43,0,0,0,.65-4.61,86.46,86.46,0,0,0-.41-8.67c-.22-2.78-.45-5.57-.67-8.37-.09-1-.17-2-.31-3-.91-6.37-4.18-11-7.72-13s-7.34-1.62-11-1.07c-2.86.43-5.7,1-8.54,1.69a6.32,6.32,0,0,0-3.69,2,15.53,15.53,0,0,0-2.32,5.27,76.78,76.78,0,0,0-3.38,22.86c.12,7.95,1.89,16,5.28,21.21a34.2,34.2,0,0,0,4.94,5.63,40.84,40.84,0,0,1,8.76,11.54,33.27,33.27,0,0,1,3,18c-.81,6-3.47,10.55-6.18,14.43,3.38-1.17,6.33-4.87,9.05-8.67a41.87,41.87,0,0,0,5-8.5,27.84,27.84,0,0,0,2.09-11.44,22.48,22.48,0,0,0-5.33-13.73c-2.74-3.09-5.9-4.73-8.93-6.83a51.53,51.53,0,0,1-6.46-5.33,15.68,15.68,0,0,1-4.36-6.44c-1.9-5.61-.56-12.85,1.11-18.69,1.13-3.94,2.53-8,4.77-9.88a7.34,7.34,0,0,1,4.46-1.49c2.84-.23,5.75-.14,8.39,1.73S908.81,563.25,909.39,567.92Z" transform="translate(-494.25 -14.47)"/><path d="M821.8,613l0,.14a11.9,11.9,0,0,0,5.08,4.08,25.18,25.18,0,0,0,6.35,1.72,4.81,4.81,0,0,0,2.48-.12,1.74,1.74,0,0,0,.77-.6l-.26.06-.27,0a4.78,4.78,0,0,1-1.13-.08,31.35,31.35,0,0,1-13.09-5.37v0Z" transform="translate(-494.25 -14.47)"/><path d="M810.28,595.38l.11-.23c-.94-6.63-5.14-12.39-6.45-19a44.43,44.43,0,0,1-.48-9.79v-.14A57.4,57.4,0,0,1,803,553a98.5,98.5,0,0,1,3-18.53l.15,0,4.67-13.32a48.92,48.92,0,0,1,2.08-5.3,51.09,51.09,0,0,1,3.42-5.67l5.21-7.85,0-.24a10.23,10.23,0,0,1,1.92-3.11A127.78,127.78,0,0,1,836.67,484c1.83-1.66,3.74-3.23,5.66-4.78l3.5-2.85.24-.08a192.79,192.79,0,0,1,33.18-17.79,11.64,11.64,0,0,0,3.65-2.06l0-.33c-16.46,5.89-32.05,14.43-45.18,26-13.84,12.16-24.87,27.75-30.56,45.27l-.42-.37c-4.26,14.69-6.18,30.25-4,45.41,2.14,15,8.44,29.62,19,40.49v0a31.35,31.35,0,0,0,13.09,5.37,4.78,4.78,0,0,0,1.13.08v-.2l-9.45-3.79a14.18,14.18,0,0,1-3-1.5,13.19,13.19,0,0,1-2.38-2.4A126.14,126.14,0,0,1,810.28,595.38Z" transform="translate(-494.25 -14.47)"/><path d="M850.61,541.15q5.29-16.3,10.58-32.58c5.86-18,11.83-36.32,22.24-52.16l0-.44-.52.18,0,.33a11.64,11.64,0,0,1-3.65,2.06,192.79,192.79,0,0,0-33.18,17.79l-.24.08-3.5,2.85c-1.92,1.55-3.83,3.12-5.66,4.78A127.78,127.78,0,0,0,823.44,499a10.23,10.23,0,0,0-1.92,3.11l0,.24-5.21,7.85a51.09,51.09,0,0,0-3.42,5.67,48.92,48.92,0,0,0-2.08,5.3l-4.67,13.32-.15,0A98.5,98.5,0,0,0,803,553a57.4,57.4,0,0,0,.45,13.23v.14a44.43,44.43,0,0,0,.48,9.79c1.31,6.57,5.51,12.33,6.45,19l-.11.23a126.14,126.14,0,0,0,10.77,15.07,13.19,13.19,0,0,0,2.38,2.4,14.18,14.18,0,0,0,3,1.5l9.45,3.79v.2l.27,0v-.18c0-13,.19-26.16,3.65-38.69,3.51-12.71,10.31-24.64,11.31-37.78Z" transform="translate(-494.25 -14.47)" style="fill:#c68b7a"/><path d="M885,455.65l.12-.28c-.09,0-.18.06-.27.09l-1.46.51,0,.44c-10.41,15.84-16.38,34.12-22.24,52.16q-5.3,16.29-10.58,32.58l.51.52c-1,13.14-7.8,25.07-11.31,37.78-3.46,12.53-3.69,25.7-3.65,38.69v.18l.26-.06h0a1.45,1.45,0,0,0,.29-.11,1.7,1.7,0,0,0,.68-.59,5.29,5.29,0,0,0,.57-2.91,32,32,0,0,1,.56-6.1l0,0c2.45-14.42,5.07-28.82,8.8-43A283.94,283.94,0,0,1,858.78,531l.2.15c4.46-18.32,9-36.74,16.34-54.09C878.39,469.84,881.94,462.85,885,455.65Z" transform="translate(-494.25 -14.47)"/><path d="M940.48,512.25c-.57,4.67-2.81,8.36-5.32,10.14s-5.56,2-8.39,1.74a7.3,7.3,0,0,1-4.45-1.5c-2.25-1.89-3.65-5.93-4.78-9.87-1.67-5.84-3-13.09-1.11-18.7a15.88,15.88,0,0,1,4.36-6.43,51.63,51.63,0,0,1,6.46-5.34c3-2.09,6.19-3.74,8.93-6.82a22.51,22.51,0,0,0,5.33-13.74,27.48,27.48,0,0,0-2.1-11.43,41.75,41.75,0,0,0-5-8.51c-2.72-3.79-5.67-7.5-9-8.67,2.71,3.88,5.36,8.45,6.17,14.44a33.27,33.27,0,0,1-3,18,41.16,41.16,0,0,1-8.76,11.54,33.62,33.62,0,0,0-4.93,5.62c-3.41,5.2-5.17,13.26-5.29,21.23A76.76,76.76,0,0,0,913,526.81a15.62,15.62,0,0,0,2.32,5.27,6.29,6.29,0,0,0,3.69,2q4.26,1,8.53,1.68c3.7.56,7.49.89,11-1.07s6.81-6.6,7.72-13c.14-1,.22-2,.3-3.05q.35-4.18.68-8.37a83.27,83.27,0,0,0,.41-8.66A15.11,15.11,0,0,0,947,497a6.1,6.1,0,0,0-2.94-3.45c-2.77-1.53-5.73-1.32-8.63-1.09v.41a7.76,7.76,0,0,1,2.23,2.53,21.78,21.78,0,0,1,2.31,7.93A82.29,82.29,0,0,1,940.48,512.25Z" transform="translate(-494.25 -14.47)"/><path d="M885.11,455.37l-.12.28c.07-.1.14-.2.21-.32Z" transform="translate(-494.25 -14.47)" style="fill:#f3b7b9"/><path d="M1034.76,357.33a129.81,129.81,0,0,0-48-11.81l-1.16-.06q-5.56-.21-11.13,0l-.26.15a53.72,53.72,0,0,0-38.73,10.93c-1.23.95-2.4,2-3.54,3-9,8.36-15.34,19.42-21.42,30.21l-.09.1a372.37,372.37,0,0,0-25.64,64.7l.09.86c.09,0,.18-.07.27-.09l.09,0a140.78,140.78,0,0,0,20-48.27l.43-.12c6.11-9.41,9.87-20.29,16.94-29l.14-.22c4.85-7.92,10.84-15.27,18.38-20.68s16.73-8.82,26-8.49c7.79.29,15.49,3.13,23.23,2.22,6.45.16,13.11-1.29,19.27.64a41.11,41.11,0,0,1,7,3.28,184.13,184.13,0,0,0,44.15,16.94l.78-.57a17.84,17.84,0,0,0,13.76-1l0-.22a90.23,90.23,0,0,1-13.55-2.29v.2c-9.23-1.5-19.22-3.4-25.81-9.79-.26-.24-.52-.5-.77-.77A1.81,1.81,0,0,1,1034.76,357.33Z" transform="translate(-494.25 -14.47)"/><path d="M1126.71,286.86c0-.28,0-.57,0-.85-.07-2.23-.13-4.46-.2-6.68q-.7-21.85-2.24-43.65-.57-8.1-1.26-16.18l-.08,0a1918.68,1918.68,0,0,0-1,204.91l-.09.05c.23,1.31.47,2.62.7,3.93l0,.7c1-.14,1.42-1.54,1.49-2.64q1.32-22,1-44l.15-1.31Q1127.91,334,1126.71,286.86Z" transform="translate(-494.25 -14.47)" style="fill:#ea1573"/><path d="M1061.66,367.6a90.23,90.23,0,0,0,13.55,2.29l0,.22c.22-.12.45-.23.67-.36l.37,0q.38-12.3.93-24.58l-.41-.06-.2.15a62.07,62.07,0,0,1-16.42,8.67c-7.73,2.89-16.07,5-24.21,3.57l-.14.47c6.59,6.39,16.58,8.29,25.81,9.79Z" transform="translate(-494.25 -14.47)" style="fill:#c68b7a"/><path d="M1035.84,358l.14-.47c8.14,1.4,16.48-.68,24.21-3.57a62.07,62.07,0,0,0,16.42-8.67l0-.14c0-.37,0-.74,0-1.11h-1.85q-19.65,7.09-39.64,13.19C1035.32,357.51,1035.58,357.77,1035.84,358Z" transform="translate(-494.25 -14.47)"/><path d="M974.27,310.79v-.23l.12-.12-.09-.29c-.87-2.67-1.73-5.34-2.6-8a8.68,8.68,0,0,1-.59-2.91,7.46,7.46,0,0,1,1.4-3.64c3.22-5,8.91-9,14.77-8.07,2.89.47,5.46,2.1,7.88,3.77a130,130,0,0,1,21.5,18.58l.11.36a1.84,1.84,0,0,1-.73.5c.89,1.67-1,3.42-2.41,4.68a14.6,14.6,0,0,0-4.83,9.86c.15-.15.29-.32.43-.49l0,0a1.47,1.47,0,0,1,.1-.13,7.08,7.08,0,0,1,5.39-2.56c-2.73,5.5-6.81,10.58-12.42,13.08s-12.88,1.78-17-2.78a15.9,15.9,0,0,1-3.59-8.1,41.88,41.88,0,0,1-.49-7.25,7.55,7.55,0,0,0-.35-2.92C979.94,311.68,976.91,311,974.27,310.79Zm42.83-147.46v-.25l-49.56-1.83a5.18,5.18,0,0,0-3.39.66,4.83,4.83,0,0,0-1.49,2.82,75.27,75.27,0,0,0-1.75,14.92l-.45,9h0l15.6,12.63a1.65,1.65,0,0,1,.66.82,1.73,1.73,0,0,1-.45,1.31l-2.34,3.3c-3.53-1.93-7.13-3.91-9.93-6.82a15.69,15.69,0,0,1-3.83-6.45q-.48,9.84-1,19.67l.32.82a48.22,48.22,0,0,1,4.54-4.83.45.45,0,0,1,.25-.16c.3-.05.41.38.39.68l-.06.53c3,.91,5,4,5.71,7.09a3.65,3.65,0,0,1,.92-.23,4.5,4.5,0,0,1,1,0,183.68,183.68,0,0,1,4.83,17.81c.16.73.21,1.71-.48,2a1.78,1.78,0,0,1-.92,0,3.39,3.39,0,0,1-1.44-.42,1.21,1.21,0,0,1-.57-1.16l-.35,0a18.34,18.34,0,0,1-4.32-.06,6.23,6.23,0,0,1-2-.65l-.08.44a4.67,4.67,0,0,1-4.47-1.08c-.59-.56-1-1.28-1.62-1.82a2.15,2.15,0,0,0-2.24-.54c-1,.52-1,2-1.33,3.1a4.43,4.43,0,0,1-1.75,2.47l-.14-.1-.3,1.22.41.31c2.86,8.41-2.58,17.3-2.78,26.17-.11,4.35,1.06,8.61,2.22,12.8l4.74,17.19-.4.48a99.06,99.06,0,0,0,21,39.68c2.74,3.16,5.84,6.47,6.44,10.56a129.81,129.81,0,0,1,48,11.81,1.81,1.81,0,0,0,.31-.09q20-6.09,39.64-13.19h1.85l-.45-28.45.26-1.81a82.21,82.21,0,0,1,1.62-20c1-4.91,2.49-9.93,1.75-14.84-.06-.32-.11-.62-.18-.94-.44-2.05-1.29-4-1.81-6-1.08-4.16-.75-8.53-.41-12.81q.86-10.49,1.83-21c.37-4,.88-8.32,3.61-11.28l0-.49a31.74,31.74,0,0,0-6.39,1.77c-1.43.55-2.83,1.17-4.28,1.66-5.72,1.91-11.92,1.59-17.95,1.26l-.16.1a12.83,12.83,0,0,1-9.85,7.83,27.19,27.19,0,0,1-6.8-.19c-1.42-.15-2.84-.29-4.26-.41a197,197,0,0,0-19.74-.72c-.77,1-2,1.89-3.15,1.55-1.68-.46-1.85-2.75-1.55-4.46a38.78,38.78,0,0,1,8.58-18.4c0,1,0,1.93-.09,2.89.95-1.55,1.27-3.57,2.31-5.11,1.33-2,3.66-3,5.87-3.86a67.76,67.76,0,0,1,12.75-4.2,3.58,3.58,0,0,1,1.75,0c1.49.48,1.86,2.54,3.16,3.36a4.38,4.38,0,0,1,0-1.94l1.11-.52c0,2.29,2.59,3.54,4,5.3A13.74,13.74,0,0,1,1050,216a1.86,1.86,0,0,0,.49.81,1.79,1.79,0,0,0,.89.31,13.56,13.56,0,0,0,7.74-1.09c3.45-1.62,6.18-4.67,9.83-5.77l.21.23c.61,1.08-.34,2.4-1.39,3.06s-2.34,1.11-3,2.19A15.68,15.68,0,0,0,1076,213.4a3.77,3.77,0,0,1,2-.87c1.39,0,2.06,1.69,2.44,3a52.71,52.71,0,0,0,2.8,7.49l.62.31c0-.15.05-.3.07-.45-1.12-7.6-1.14-15.35-2.37-22.92-1.25-7.78-4-15.66-9.62-21.16a43.93,43.93,0,0,0-7.23-5.38,70.48,70.48,0,0,0-16.58-8.18C1038.15,162.17,1027.5,162.71,1017.1,163.33Zm-8.74,37.22,0-.05,30.5-15.83c6.28-3.26,13.2-6.62,20.13-5.21,6.73,1.38,11.69,6.89,16.06,12.25l-.09.23c-3.07,1.61-6.84.3-9.91-1.34s-6.22-3.65-9.68-3.38a15.55,15.55,0,0,0-6.18,2.37l-27.46,15.34c-3,1.67-6,3.36-9.41,3.92a1.41,1.41,0,0,1-.91-.07,1.39,1.39,0,0,1-.49-.79ZM991.72,276.1a18.62,18.62,0,0,1-6.74,0,30,30,0,0,1-3.08-.75c-2.09-.57-4.5-1.44-5.13-3.51.43.56,1.43.25,1.7-.41a2.55,2.55,0,0,0-.25-2,5,5,0,0,1-.68-2A3.63,3.63,0,0,1,978,266a18.73,18.73,0,0,1,4.38-6,3.68,3.68,0,0,1,1.41-.91,1.47,1.47,0,0,1,1.55.39l-.77,1-.14-.21a21.33,21.33,0,0,0-1.84,6,2.06,2.06,0,0,0,.05,1.13c.26.6,1,.84,1.57,1.06,3.26,1.22,5.71,3.91,8,6.51a.83.83,0,0,1,.3.65C992.45,275.9,992.05,276,991.72,276.1Z" transform="translate(-494.25 -14.47)" style="fill:#c68b7a"/><path d="M952.71,282.17l4,14.2c1,3.45,1.93,6.9,3.11,10.28a87.43,87.43,0,0,0,20.72,33l.11-.2a22.06,22.06,0,0,0,4.92,5.54v.48l1.16.06c-.6-4.09-3.7-7.4-6.44-10.56a99.06,99.06,0,0,1-21-39.68l.4-.48-4.74-17.19c-1.16-4.19-2.33-8.45-2.22-12.8.2-8.87,5.64-17.76,2.78-26.17l-.41-.31q-2.73,11.07-5.11,22.23c-.74,3.47-1.45,7.14-.38,10.53.52,1.63,1.43,3.12,2,4.72a13.58,13.58,0,0,1,.78,6.62Z" transform="translate(-494.25 -14.47)"/><path d="M1076.56,344.05c0,.37,0,.74,0,1.11l0,.14.2-.15.41.06q1.53-34.15,4.38-68.25l-.22-.19a12.27,12.27,0,0,1-.53,1.69l-1.11.45c.74,4.91-.73,9.93-1.75,14.84a82.21,82.21,0,0,0-1.62,20l-.26,1.81Z" transform="translate(-494.25 -14.47)"/><path d="M985.35,332.37c4.11,4.56,11.39,5.26,17,2.78s9.69-7.58,12.42-13.08a7.08,7.08,0,0,0-5.39,2.56,1.47,1.47,0,0,1-.1.13l0,0a7.66,7.66,0,0,0-.45.66c0-.06,0-.11,0-.17-2.16,2.29-5.22,3.64-8.15,4.89a17.45,17.45,0,0,1-6.15,1.78,11.21,11.21,0,0,1-7.06-2.4,23,23,0,0,1-5.1-5.59l-.59.31A15.9,15.9,0,0,0,985.35,332.37Z" transform="translate(-494.25 -14.47)"/><path d="M986.41,314.64l0-.24a61.46,61.46,0,0,1,1-8.56,129.5,129.5,0,0,1,10.26,10.3,1.84,1.84,0,0,1,.64,1.34,1.25,1.25,0,0,1-1.19,1,3.35,3.35,0,0,1-1.59-.45,23.89,23.89,0,0,1-3.89-2.39v-.05a3.68,3.68,0,0,1-3.2-2.61,2.76,2.76,0,0,1-.43.54l0,0A6.78,6.78,0,0,1,986.41,314.64Zm1,14.91a11.21,11.21,0,0,0,7.06,2.4,17.45,17.45,0,0,0,6.15-1.78c2.93-1.25,6-2.6,8.15-4.89a14.6,14.6,0,0,1,4.83-9.86c1.42-1.26,3.3-3,2.41-4.68a3,3,0,0,1-2.38-.15,8.68,8.68,0,0,1-2.5-2.22A67.4,67.4,0,0,0,999.59,298a30,30,0,0,0-9.9-5,14.33,14.33,0,0,0-10.77,1.24c-3.18,1.92-5.31,5.72-4.67,9.38.42,2.34,1.75,5.16.15,6.84l-.12.12v.23c2.64.25,5.67.89,6.65,3.31a7.55,7.55,0,0,1,.35,2.92,41.88,41.88,0,0,0,.49,7.25l.59-.31A23,23,0,0,0,987.45,329.55Z" transform="translate(-494.25 -14.47)" style="fill:#ce0079"/><path d="M1009.27,324.76a1.47,1.47,0,0,0,.1-.13A1.47,1.47,0,0,0,1009.27,324.76Z" transform="translate(-494.25 -14.47)" style="fill:#ce0079"/><path d="M988.38,312.94a2.42,2.42,0,0,0,.32-1.14c.36,0,.63.3.83.59l2.21,3.17h-.16v.05a23.89,23.89,0,0,0,3.89,2.39,3.35,3.35,0,0,0,1.59.45,1.25,1.25,0,0,0,1.19-1,1.84,1.84,0,0,0-.64-1.34,129.5,129.5,0,0,0-10.26-10.3,61.46,61.46,0,0,0-1,8.56l0,.24a6.78,6.78,0,0,0,1.52-1.19l0,0A2.76,2.76,0,0,0,988.38,312.94Z" transform="translate(-494.25 -14.47)"/><path d="M1016.05,310.74a1.84,1.84,0,0,0,.73-.5l-.11-.36a130,130,0,0,0-21.5-18.58c-2.42-1.67-5-3.3-7.88-3.77-5.86-1-11.55,3.08-14.77,8.07a7.46,7.46,0,0,0-1.4,3.64,8.68,8.68,0,0,0,.59,2.91c.87,2.66,1.73,5.33,2.6,8l.09.29c1.6-1.68.27-4.5-.15-6.84-.64-3.66,1.49-7.46,4.67-9.38A14.33,14.33,0,0,1,989.69,293a30,30,0,0,1,9.9,5,67.4,67.4,0,0,1,11.58,10.42,8.68,8.68,0,0,0,2.5,2.22A3,3,0,0,0,1016.05,310.74Z" transform="translate(-494.25 -14.47)"/><path d="M1132.45,284a20.16,20.16,0,0,0,6.37-4.72c2.23-2.62,3.37-6,4.47-9.24,1.39-4.17,2.8-8.37,3.91-12.63-.58,1-1.19,2.06-1.82,3.05-2.31,10.4-10,18.83-18.33,25.51l-.35,0c0,.28,0,.57,0,.85a19.08,19.08,0,0,0,5.78-2.6Z" transform="translate(-494.25 -14.47)"/><path d="M1129.92,277.3a5.69,5.69,0,0,1-1.64.33c-.33.53-.66,1.07-1,1.61l-.8.09c.07,2.22.13,4.45.2,6.68l.35,0c8.33-6.68,16-15.11,18.33-25.51A61.85,61.85,0,0,1,1129.89,277Z" transform="translate(-494.25 -14.47)" style="fill:#c68b7a"/><path d="M1132.51,263.26c1.14-1.73,1.83-3.69.85-5.39-.66-1.15-1.92-1.79-2.83-2.75a5.55,5.55,0,0,1-1.26-5.21v-.66A26.61,26.61,0,0,1,1139.93,239l.12.8a31.68,31.68,0,0,1-3.65,4.47c-1.24,1.49-2.27,3.32-2,5.24s2.23,3.66,4.05,3c1.17,2.43-.55,5.25-2.46,7.16a28.28,28.28,0,0,0-3.41,3.7Zm-4.23,14.37a71.69,71.69,0,0,1,11.17-13.86,18.53,18.53,0,0,0,3.73-4.28,16.76,16.76,0,0,0,1.45-4.78q2.58-13.17,5.17-26.32l0-.2a95.66,95.66,0,0,1-11.56,6.59,25,25,0,0,1-3.31,1.36c-3.19,1-6.61.69-9.93.4l-.07-1-.28.06-.35.09q1.53,21.8,2.24,43.65l.8-.09C1127.62,278.7,1128,278.16,1128.28,277.63Z" transform="translate(-494.25 -14.47)" style="fill:#c68b7a"/><path d="M1079.74,278.91l1.11-.45a12.27,12.27,0,0,0,.53-1.69,12.88,12.88,0,0,0,.27-4.79l-.07,0c-2.34-1.37-2.51-4.63-2.37-7.34a347.85,347.85,0,0,1,4-37.56l.1-.6-.3-.15-.26,0,0,.49c-2.73,3-3.24,7.27-3.61,11.28q-1,10.47-1.83,21c-.34,4.28-.67,8.65.41,12.81.52,2,1.37,4,1.81,6C1079.63,278.29,1079.68,278.59,1079.74,278.91Z" transform="translate(-494.25 -14.47)"/><path d="M1145.38,260.47c.63-1,1.24-2,1.82-3.05a62.89,62.89,0,0,0,2.3-14.73c.11-4.5-.42-9.1.85-13.42a1.67,1.67,0,0,0,0-1.35.61.61,0,0,0-.12-.15l0,.11-.45.31,0,.2q-2.58,13.16-5.17,26.32a16.76,16.76,0,0,1-1.45,4.78,18.53,18.53,0,0,1-3.73,4.28,71.69,71.69,0,0,0-11.17,13.86,5.69,5.69,0,0,0,1.64-.33l0-.31A61.85,61.85,0,0,0,1145.38,260.47Z" transform="translate(-494.25 -14.47)"/><path d="M984.39,260.2l.14.21.77-1a1.47,1.47,0,0,0-1.55-.39,3.68,3.68,0,0,0-1.41.91,18.73,18.73,0,0,0-4.38,6,3.63,3.63,0,0,0-.42,1.51,5,5,0,0,0,.68,2,2.55,2.55,0,0,1,.25,2c-.27.66-1.27,1-1.7.41.63,2.07,3,2.94,5.13,3.51a30,30,0,0,0,3.08.75,18.62,18.62,0,0,0,6.74,0c.33-.06.73-.2.78-.53a.83.83,0,0,0-.3-.65c-2.32-2.6-4.77-5.29-8-6.51-.61-.22-1.31-.46-1.57-1.06a2.06,2.06,0,0,1-.05-1.13A21.33,21.33,0,0,1,984.39,260.2Z" transform="translate(-494.25 -14.47)"/><path d="M1132.51,263.26l0,.06a28.28,28.28,0,0,1,3.41-3.7c1.91-1.91,3.63-4.73,2.46-7.16-1.82.67-3.82-1.07-4.05-3s.8-3.75,2-5.24a31.68,31.68,0,0,0,3.65-4.47l-.12-.8a26.61,26.61,0,0,0-10.67,10.29v.66a5.55,5.55,0,0,0,1.26,5.21c.91,1,2.17,1.6,2.83,2.75C1134.34,259.57,1133.65,261.53,1132.51,263.26Z" transform="translate(-494.25 -14.47)"/><path d="M1043,209.44c.55,2.43,2.87,4.66,3.29,7.26a1.36,1.36,0,0,1-.18,1.12,1.61,1.61,0,0,1-1.1.37c-7.42.59-14.51,3.22-21.5,5.82a45.45,45.45,0,0,0-8.28,3.75,30.18,30.18,0,0,0,1.93-8.49c.07-1,.1-1.92.09-2.89a38.78,38.78,0,0,0-8.58,18.4c-.3,1.71-.13,4,1.55,4.46,1.2.34,2.38-.57,3.15-1.55l-.16-.55c4.4-4.15,11.13-4.84,17.25-5.24a3,3,0,0,1,1.87.28,8.28,8.28,0,0,1,1,1,2.53,2.53,0,0,0,2.4.65c-1-.45-.38-2.07.64-2.36a2.26,2.26,0,0,1,.81-.1,18.23,18.23,0,0,1,2.31.38c2.2.3,4.38-.72,6.59-.61.75,0,1.68.41,1.69,1.17s-.71,1.09-1.33,1.35c-2.12.88-4.28,1.68-6.46,2.39s-4.52,1.37-6.81,1.91v.44c1.42.12,2.84.26,4.26.41a27.19,27.19,0,0,0,6.8.19,12.83,12.83,0,0,0,9.85-7.83l.16-.1c6,.33,12.23.65,17.95-1.26,1.45-.49,2.85-1.11,4.28-1.66a31.74,31.74,0,0,1,6.39-1.77l.26,0,.3.15c.17-1.05.35-2.09.52-3.14l-.62-.31a52.71,52.71,0,0,1-2.8-7.49c-.38-1.34-1.05-3-2.44-3a3.77,3.77,0,0,0-2,.87,15.68,15.68,0,0,1-11.12,2.37c.62-1.08,1.91-1.53,3-2.19s2-2,1.39-3.06l-.21-.23c-3.65,1.1-6.38,4.15-9.83,5.77a13.56,13.56,0,0,1-7.74,1.09,1.79,1.79,0,0,1-.89-.31,1.86,1.86,0,0,1-.49-.81,13.74,13.74,0,0,0-1.93-3.75c-1.46-1.76-4-3-4-5.3l-1.11.52A4.38,4.38,0,0,0,1043,209.44Z" transform="translate(-494.25 -14.47)"/><path d="M1036.87,232.46c.07-.34.14-.67.21-1v-.06a2.26,2.26,0,0,0-.81.1c-1,.29-1.6,1.91-.64,2.36a2.53,2.53,0,0,1-2.4-.65,8.28,8.28,0,0,0-1-1,3,3,0,0,0-1.87-.28c-6.12.4-12.85,1.09-17.25,5.24l.16.55a197,197,0,0,1,19.74.72V238c2.29-.54,4.57-1.18,6.81-1.91v-.15l-2.89-3.38Z" transform="translate(-494.25 -14.47)" style="fill:#fff"/><path d="M964.68,210.15l.06-.53c0-.3-.09-.73-.39-.68a.45.45,0,0,0-.25.16,48.22,48.22,0,0,0-4.54,4.83l-.32-.82-1.1-.1a102.21,102.21,0,0,1-2.74,21.93l.18,1.38c-.06.26-.13.53-.19.79l.14.1a4.43,4.43,0,0,0,1.75-2.47c.3-1.13.29-2.58,1.33-3.1a2.15,2.15,0,0,1,2.24.54c.61.54,1,1.26,1.62,1.82a4.67,4.67,0,0,0,4.47,1.08l.08-.44-.32-.16c-2.42-1.41-3.44-4.34-4.27-7l0-.69a10.27,10.27,0,0,1,3.6,1,2.34,2.34,0,0,1,1.29,1.16,4.79,4.79,0,0,1,0,1.69,2.33,2.33,0,0,0,1.8,2.36c1.06.15,2.18-1,1.82-2a4.08,4.08,0,0,1,3.49,3.2,1.1,1.1,0,0,1-.05.72,1,1,0,0,1-.72.41,1.21,1.21,0,0,0,.57,1.16,3.39,3.39,0,0,0,1.44.42,1.78,1.78,0,0,0,.92,0c.69-.32.64-1.3.48-2A183.68,183.68,0,0,0,972.28,217a4.5,4.5,0,0,0-1,0l0,.69.24,3.86a.74.74,0,0,1-.13.57.69.69,0,0,1-.58.13c-3.37-.4-5.44-3.88-8.42-5.5A16.78,16.78,0,0,0,964.68,210.15Z" transform="translate(-494.25 -14.47)"/><path d="M1129.36,234.58l-4.47.95.07,1c3.32.29,6.74.57,9.93-.4a25,25,0,0,0,3.31-1.36,95.66,95.66,0,0,0,11.56-6.59l.45-.31,0-.11c-.43-.42-1.23-.26-1.83,0Z" transform="translate(-494.25 -14.47)"/><path d="M1039.87,235.91v.15c2.18-.71,4.34-1.51,6.46-2.39.62-.26,1.35-.67,1.33-1.35s-.94-1.13-1.69-1.17c-2.21-.11-4.39.91-6.59.61a18.23,18.23,0,0,0-2.31-.38v.06c-.07.35-.14.68-.21,1l.11.07Z" transform="translate(-494.25 -14.47)" style="fill:#e9964e"/><path d="M973.7,235.31a1,1,0,0,0,.72-.41,1.1,1.1,0,0,0,.05-.72A4.08,4.08,0,0,0,971,231c.36,1-.76,2.13-1.82,2l-.13,2.33a18.34,18.34,0,0,0,4.32.06Z" transform="translate(-494.25 -14.47)" style="fill:#e9964e"/><path d="M969,235.29l.13-2.33a2.33,2.33,0,0,1-1.8-2.36,4.79,4.79,0,0,0,0-1.69,2.34,2.34,0,0,0-1.29-1.16,10.27,10.27,0,0,0-3.6-1l0,.69c.83,2.69,1.85,5.62,4.27,7l.32.16A6.23,6.23,0,0,0,969,235.29Z" transform="translate(-494.25 -14.47)" style="fill:#fff"/><path d="M1015.18,227.76a45.45,45.45,0,0,1,8.28-3.75c7-2.6,14.08-5.23,21.5-5.82a1.61,1.61,0,0,0,1.1-.37,1.36,1.36,0,0,0,.18-1.12c-.42-2.6-2.74-4.83-3.29-7.26-1.3-.82-1.67-2.88-3.16-3.36a3.58,3.58,0,0,0-1.75,0,67.76,67.76,0,0,0-12.75,4.2c-2.21.89-4.54,1.89-5.87,3.86-1,1.54-1.36,3.56-2.31,5.11A30.18,30.18,0,0,1,1015.18,227.76Z" transform="translate(-494.25 -14.47)" style="fill:#ce0079"/><path d="M970.87,222.26a.69.69,0,0,0,.58-.13.74.74,0,0,0,.13-.57l-.24-3.86,0-.69a3.65,3.65,0,0,0-.92.23c-.72-3.1-2.67-6.18-5.71-7.09a16.78,16.78,0,0,1-2.23,6.61C965.43,218.38,967.5,221.86,970.87,222.26Z" transform="translate(-494.25 -14.47)" style="fill:#ce0079"/><path d="M960.49,162.11c-3.68,16.53-1.81,33.9-2.35,50.9l1.1.1q.5-9.84,1-19.67l.24-4.8.45-9a75.27,75.27,0,0,1,1.75-14.92,4.83,4.83,0,0,1,1.49-2.82,5.18,5.18,0,0,1,3.39-.66l49.56,1.83v.25c10.4-.62,21.05-1.16,31,1.94a70.48,70.48,0,0,1,16.58,8.18,43.93,43.93,0,0,1,7.23,5.38c5.65,5.5,8.37,13.38,9.62,21.16,1.23,7.57,1.25,15.32,2.37,22.92a67,67,0,0,0,1.15-15.46c-.44-6.2-2.39-12.18-4.33-18.1a54.16,54.16,0,0,0-4.06-10.09c-6.64-11.6-20.75-16.62-34-18.55-10.6-1.55-21.35-1.72-32.06-1.89l-49.87-.77-.61.28a6.25,6.25,0,0,0,.32,3.75Z" transform="translate(-494.25 -14.47)"/><path d="M1011.46,208.78a1.41,1.41,0,0,0,.91.07c3.37-.56,6.43-2.25,9.41-3.92l27.46-15.34a15.55,15.55,0,0,1,6.18-2.37c3.46-.27,6.62,1.74,9.68,3.38s6.84,3,9.91,1.34l.09-.23c-4.37-5.36-9.33-10.87-16.06-12.25-6.93-1.41-13.85,1.95-20.13,5.21l-30.5,15.83,0,.05L1011,208A1.39,1.39,0,0,0,1011.46,208.78Z" transform="translate(-494.25 -14.47)"/><path d="M974,206.71l2.34-3.3a1.73,1.73,0,0,0,.45-1.31,1.65,1.65,0,0,0-.66-.82l-15.6-12.63h0l-.24,4.8a15.69,15.69,0,0,0,3.83,6.45C966.85,202.8,970.45,204.78,974,206.71Z" transform="translate(-494.25 -14.47)"/></svg>