<svg id="Layer_1" data-name="Layer 1" xmlns="http://www.w3.org/2000/svg" viewBox="0 0 1032.19 1032.19"><circle cx="516.09" cy="516.09" r="516.09"/><path d="M747.41,253.45a48.45,48.45,0,0,1,2.54-9q1.69-4.35,3.61-8.69t3.71-8.7a82,82,0,0,0,3.08-8.8,87,87,0,0,1,3.07-8.91,89.61,89.61,0,0,0,3.08-8.91A102,102,0,0,0,769.15,189a67.9,67.9,0,0,1,3.39-12.41,31.88,31.88,0,0,1,6.05-10.07A13.89,13.89,0,0,1,789,162a21.8,21.8,0,0,1,7.74,1,14.88,14.88,0,0,0,11.56-.85c1.27-.64,2.51-1.27,3.71-1.91a35.52,35.52,0,0,1,3.71-1.7,11.72,11.72,0,0,1,4.24-.74,7.5,7.5,0,0,1,4.78,1.59,18.5,18.5,0,0,1,3.6,3.82,28.78,28.78,0,0,1,2.76,4.77c.77,1.7,1.52,3.26,2.23,4.67a71.82,71.82,0,0,1,4.45,12.83q1.49,6.25,3,13.25a128.21,128.21,0,0,0,8.17,24.93,232.23,232.23,0,0,0,12,23.43q2.32,4,4.77,8c1.62,2.61,3.15,5.33,4.56,8.16l2.55,5.09q3.18,6.36,6.15,12.83a82.42,82.42,0,0,0,7.21,12.62,12.89,12.89,0,0,1,2.65,8,18.31,18.31,0,0,1-2.44,8.37A43.44,43.44,0,0,1,877,321.74a30.11,30.11,0,0,1-7.32,4.88,14.68,14.68,0,0,0-6.47,5.72,23.47,23.47,0,0,0-3.07,9.12q-.75,5.31-1.81,9.76a35,35,0,0,0-1.27,6.58,19.44,19.44,0,0,0,.85,6.57,32.25,32.25,0,0,1,1.27,7.11,20.57,20.57,0,0,1-.85,7.1,21,21,0,0,1-1.8,4.77,15.79,15.79,0,0,0-1.59,5,28.28,28.28,0,0,0-.32,5.51,50.85,50.85,0,0,1-.1,5.52,12.08,12.08,0,0,1-1.6,4.77,12.63,12.63,0,0,1-3.18,3.82,4.39,4.39,0,0,1-3.71,1c-1.27-.28-2.26-1.63-3-4a7.93,7.93,0,0,1,.53-6.36,22.09,22.09,0,0,0,2.23-6.15,34.76,34.76,0,0,0,.42-5.62,23.35,23.35,0,0,0-.63-5.62,20.56,20.56,0,0,0-3.4-6.69,20.35,20.35,0,0,1-3.39-6.89,4.67,4.67,0,0,1,.21-3.71,23.44,23.44,0,0,0,1.7-3.5,27.43,27.43,0,0,0,1.48-9.12,37.07,37.07,0,0,0-.31-4.77,35.61,35.61,0,0,1-.32-4.77,22.89,22.89,0,0,1,.42-4.46c.28-1.41.57-2.9.85-4.45a23.16,23.16,0,0,0-.21-9.33,16.86,16.86,0,0,0-4.67-8.06A116.19,116.19,0,0,1,826.52,301q-5.31-7.83-10.39-15.27a26.16,26.16,0,0,1-2.76-5.09,71.9,71.9,0,0,0-3.29-6.57,22.45,22.45,0,0,0-4-5.3,4.49,4.49,0,0,0-4.77-1.28,5.21,5.21,0,0,0-3,2.65,17.33,17.33,0,0,0-1.59,4.46,39.15,39.15,0,0,0-.74,4.88,13.43,13.43,0,0,1-.85,3.92,28.33,28.33,0,0,1-2.65,5.51q-1.59,2.55-3.29,5.31a20,20,0,0,0-2.54,5.3,30.65,30.65,0,0,1-2.34,5.51,8.79,8.79,0,0,1-4.56,3.72,59.75,59.75,0,0,0-5.62,2.65,26.23,26.23,0,0,0-5.51,4.34,16.56,16.56,0,0,0-3.61,6.05,30.13,30.13,0,0,0-1.91,7.85,79.61,79.61,0,0,0-.42,8.27v4.45a21,21,0,0,1-.43,4.24,14.45,14.45,0,0,1-1.16,3.61,14.36,14.36,0,0,0-1.17,3.39,23.49,23.49,0,0,0-.85,7.85c.14,2.83.22,5.52.22,8.06,0,2.26.06,4.46.21,6.58a34.75,34.75,0,0,1-.21,6.57,9.73,9.73,0,0,1-1.07,3.5,4.21,4.21,0,0,1-1.8,2,1.69,1.69,0,0,1-1.91-.42c-.63-.57-1.16-1.84-1.59-3.82a43.58,43.58,0,0,1-1.27-8.48,83.67,83.67,0,0,0-.85-8.48c-.28-2.41-.6-4.81-.95-7.22s-.68-4.87-1-7.42-.21-5.16-.21-7.85a26.8,26.8,0,0,0-1.06-7.63q-.86-3-1.8-5.73a47.65,47.65,0,0,1-1.59-5.72,33.8,33.8,0,0,1-.32-6.05,11.26,11.26,0,0,0-1.38-5.83,5.2,5.2,0,0,0-1.8-2,7.45,7.45,0,0,1-2-1.8q-10.19-13.57-3.82-27.57a49.25,49.25,0,0,1,3.29-5.62q1.8-2.65,3.5-5.62a26.39,26.39,0,0,0,3.71-8.27Q746.35,258.53,747.41,253.45Zm52.17-31.18c-1,2.4-1.16,4.31-.53,5.72s2.23,2.12,4.77,2.12a2.77,2.77,0,0,0,3-2,30.68,30.68,0,0,0,1.06-5,18.8,18.8,0,0,0,.22-2.55,5.73,5.73,0,0,0-.43-2.12c-.14-.42-.42-1.13-.85-2.12a17.28,17.28,0,0,0-1.48-2.76,7.79,7.79,0,0,0-1.7-1.91c-.56-.42-1.13-.21-1.69.64a3.93,3.93,0,0,0-.53,2.44,13.21,13.21,0,0,1-.11,2.86,9.83,9.83,0,0,1-.74,2.44C800.18,220.82,799.86,221.56,799.58,222.27Z" transform="translate(-493.25 -14.47)" style="fill:#ca1573"/><path d="M891.2,238.81q.43-6.15,1.28-12.19a39.67,39.67,0,0,0-.21-12.2,48.57,48.57,0,0,1-.43-9q.21-4.35,0-9a66,66,0,0,1,.11-8.48q.31-4,.32-8.49a40.88,40.88,0,0,0-1-8.37,15.8,15.8,0,0,1,.32-8.38,8.55,8.55,0,0,1,4.13-4.67,23.74,23.74,0,0,1,6.79-2.44,39.2,39.2,0,0,1,7.64-.74,27.06,27.06,0,0,1,6.47.64c2,.42,3.85.92,5.62,1.48a12.62,12.62,0,0,1,5,3.18,20.31,20.31,0,0,1,2.65,3.93,20.22,20.22,0,0,0,2.65,3.92A65.79,65.79,0,0,0,939,175.5a30,30,0,0,1,5.84,8.38,11.32,11.32,0,0,1,1,4,9.1,9.1,0,0,0,1.17,4,29.52,29.52,0,0,0,2.43,3.71q1.38,1.8,2.66,3.5a30.5,30.5,0,0,1,3,4.45,34,34,0,0,0,3.72,5.31,11.39,11.39,0,0,0,4,3.18c1.34.56,2.65-.07,3.92-1.91a6.32,6.32,0,0,0,.95-3.18,38.67,38.67,0,0,0,0-4c-.07-1.42-.17-2.83-.31-4.25s-.22-2.61-.22-3.6a85.8,85.8,0,0,0,0-8.59,102.4,102.4,0,0,1,.22-11.45,46.51,46.51,0,0,1,1.91-10.61q1.47-4.77,5.09-6a23.65,23.65,0,0,1,6.78-1.59,45.45,45.45,0,0,0,7-1.17q3.39-.84,6.68-1.38a24.79,24.79,0,0,1,6.9-.1q10.17,1,13.78,11a14.94,14.94,0,0,1,1,5.62,27.56,27.56,0,0,0,.31,5.41,28.72,28.72,0,0,0,.53,3.5c.22.92.39,1.8.53,2.65s.25,1.77.32,2.76.11,2.12.11,3.39q-.21,4.46-.53,8.81a55.57,55.57,0,0,0,.1,9c.29,3.68.43,7.35.43,11v11a35.81,35.81,0,0,0,1.06,9.12,26,26,0,0,1,.64,8.91,58.29,58.29,0,0,0,.1,12.72q.74,6.58,1.17,12.73a44.86,44.86,0,0,1-2.12,19.51,36.85,36.85,0,0,0-1.7,8.06,26.09,26.09,0,0,1-2.12,8.06,51.27,51.27,0,0,1-4.14,8.16,88.5,88.5,0,0,0-4.56,8.38,27.43,27.43,0,0,0-2.33,8.7,22.18,22.18,0,0,1-2.76,8.69,37.61,37.61,0,0,0-2.54,5.73,19.47,19.47,0,0,0-.85,6.15,17.52,17.52,0,0,0,.85,5.41,34.69,34.69,0,0,1,1.27,5.62,10.29,10.29,0,0,1-.63,6.15,6,6,0,0,1-3.72,3.71c-1.62.5-3.07-.18-4.34-2a5.62,5.62,0,0,1-1.28-3,19.43,19.43,0,0,1-.1-3.61c.07-1.27.14-2.51.21-3.71s.1-2.3.1-3.29a39.89,39.89,0,0,0-1.37-7,30.62,30.62,0,0,1-1.17-7.22,78.09,78.09,0,0,0-1.17-11A31.63,31.63,0,0,0,982.83,323a10.38,10.38,0,0,0-3.82-4.13,40.75,40.75,0,0,1-4.66-3.08,26.46,26.46,0,0,1-5.73-5.83,83.64,83.64,0,0,1-4.77-7.32q-2.24-3.81-4.24-7.74c-1.35-2.62-2.73-5.05-4.14-7.32a16.81,16.81,0,0,1-1.49-3.71c-.42-1.48-.88-3-1.37-4.45a24.3,24.3,0,0,0-1.81-4.14,6.25,6.25,0,0,0-3-2.76c-1.41-.56-2.33-.42-2.75.43a6.69,6.69,0,0,0-.53,3.39,30.52,30.52,0,0,0,.53,4.35,29,29,0,0,0,.63,2.86q1.06,4.45,1.7,9a25.66,25.66,0,0,1-.42,9.22,17.2,17.2,0,0,1-4.25,8.49,68.63,68.63,0,0,0-6.15,7.63,10.89,10.89,0,0,0-1.91,5.2c-.14,1.76-.21,3.6-.21,5.51s0,3.82-.1,5.73A14.74,14.74,0,0,1,933,340a8.69,8.69,0,0,1-2.44,2.65,3.35,3.35,0,0,1-3.71.11c-.85-.43-1.49-1.59-1.91-3.5s-.78-3.43-1.06-4.56c-.43-1.28-.89-2.69-1.38-4.24a24.24,24.24,0,0,0-1.8-4.25,10.09,10.09,0,0,0-2.76-3.18,6.87,6.87,0,0,0-4.24-1.27,2.07,2.07,0,0,0-1.91,1.06,23.79,23.79,0,0,0-1.27,2.44c-.43.92-.85,1.8-1.28,2.65a2.55,2.55,0,0,1-1.91,1.49,1.92,1.92,0,0,1-2.33-.85,8,8,0,0,1-1.17-3c-.21-1.14-.39-2.3-.53-3.5a22.84,22.84,0,0,0-.42-2.65,22.12,22.12,0,0,0-3-6.37c-1.27-1.84-2.69-3.74-4.24-5.72a14.77,14.77,0,0,1-3.5-9.44q.11-4.77.74-10.29c.56-4.1,1-8.13,1.38-12.09a48.45,48.45,0,0,0-.53-12.3q-.86-6.15-1.91-12.19A50.32,50.32,0,0,1,891.2,238.81Z" transform="translate(-493.25 -14.47)" style="fill:#ca1573"/><path d="M1024.61,242.63q-.42-5.73-.74-11.14a65.35,65.35,0,0,1,.32-11.13,18.16,18.16,0,0,1,2.86-8.59c1.62-2.47,3.21-5.06,4.77-7.74a51.15,51.15,0,0,0,3.29-6.47,27,27,0,0,1,3.71-6.26q3-3.81,5.94-7.32a92.14,92.14,0,0,0,5.73-7.52,14,14,0,0,1,4-4.35q2.32-1.59,5.3-3.29a42.82,42.82,0,0,0,5.72-3.61,22.43,22.43,0,0,1,6.37-3.18,40,40,0,0,0,7.1-2.86c2.34-1.2,4.63-2.44,6.9-3.71a26.29,26.29,0,0,1,7.63-2.65,34.82,34.82,0,0,1,8.17-.53,83,83,0,0,1,8.27.84q4.14.65,8,1.49a34.72,34.72,0,0,0,9.33.85,25.48,25.48,0,0,1,9.55,1.48,51.37,51.37,0,0,1,9.33,4.35,41.05,41.05,0,0,1,8.06,6.26,34.84,34.84,0,0,1,4.14,5,44.39,44.39,0,0,0,3.92,5,23.67,23.67,0,0,0,2.65,2.65,10,10,0,0,1,2.23,2.65,10.2,10.2,0,0,1,1.16,7.74,13.13,13.13,0,0,1-3.92,6.89c-1.7,1.56-3.32,3.18-4.88,4.88l-4.66,5.09a7.57,7.57,0,0,0-1.7,2.76c-.43,1.13-.89,2.3-1.38,3.5a14.08,14.08,0,0,1-1.7,3.07,2.92,2.92,0,0,1-2.44,1.28,3.11,3.11,0,0,1-2.12-.75,10.11,10.11,0,0,1-1.59-1.8c-.49-.71-1-1.38-1.48-2a4.12,4.12,0,0,0-2-1.38,9.46,9.46,0,0,0-4.45-.64,10.42,10.42,0,0,1-4.24-.42,6.79,6.79,0,0,1-3.08-2c-.78-.92-1.52-1.83-2.22-2.76a28.82,28.82,0,0,0-2.34-2.65,8,8,0,0,0-3.39-1.91q-7.43-1.91-11,3.4-1.7,2.11-3,4c-.85,1.27-2.33,1.77-4.45,1.48a4.77,4.77,0,0,1-3.4-1.48c-.71-.85-1.91-1.2-3.6-1.06a7.46,7.46,0,0,0-4.46,2.22,17.63,17.63,0,0,0-2.86,4.14,23.42,23.42,0,0,0-1.8,4.88c-.43,1.69-.85,3.18-1.28,4.45a52,52,0,0,0-2,7.53c-.5,2.62-.95,5.2-1.38,7.74a51.64,51.64,0,0,1-1.16,5.52,17.06,17.06,0,0,0-.54,5.72,24.2,24.2,0,0,0,2,6.47,31.83,31.83,0,0,0,3.71,6.26,11.18,11.18,0,0,1,1.8,3.39,10.44,10.44,0,0,0,9.55,6.9,15.06,15.06,0,0,0,7.63-2.12,9.7,9.7,0,0,0,4.35-5.2q1.07-3.18-2.33-5.73a6.61,6.61,0,0,0-3.61-1.38c-1.27-.07-2.26-.88-3-2.44a4.53,4.53,0,0,1,0-3.81,27.39,27.39,0,0,0,1.28-3.4,8.9,8.9,0,0,0,.42-3.81l-.42-3.82a22.18,22.18,0,0,1-.11-3.82,8.84,8.84,0,0,1,1.17-3.82,14.06,14.06,0,0,1,5.51-5.41,19.49,19.49,0,0,1,7.42-2.65,13.44,13.44,0,0,1,4.46-.1c1.41.21,2.89.46,4.45.74a17.86,17.86,0,0,0,5.84-.11,14.7,14.7,0,0,1,5.83.11c2.4.57,4.84,1.13,7.31,1.7a34.08,34.08,0,0,0,7.53.84,17.61,17.61,0,0,1,15.06,7,13.58,13.58,0,0,1,2.23,4.35,20.72,20.72,0,0,1,.85,5.2,32.91,32.91,0,0,1-.21,5.3,28.92,28.92,0,0,1-1,4.67,20,20,0,0,0-.53,3.81q-.1,2.13-.42,4.35a14.14,14.14,0,0,1-1.17,4,4.49,4.49,0,0,1-2.76,2.44,3.41,3.41,0,0,1-3.6-.53c-.43-.35-.89-.71-1.38-1.06a4.79,4.79,0,0,0-1.59-.74,4,4,0,0,0-3.82,1.48,11.9,11.9,0,0,0-1.91,4.14,23.87,23.87,0,0,0-.74,5c-.07,1.7-.11,3-.11,3.82a11.84,11.84,0,0,0,.43,3.5,7.32,7.32,0,0,1,0,3.5,16,16,0,0,1-2.44,6.57c-1.35,2.12-2.58,4.18-3.71,6.15a14.19,14.19,0,0,1-5.41,5.41,19.21,19.21,0,0,1-7.32,2.23,37.45,37.45,0,0,0-9.33,2.23c-2.69,1.06-4,3.42-4,7.1a12.06,12.06,0,0,0,.74,4,10.41,10.41,0,0,1,.53,4.46,66,66,0,0,0-.53,6.68,23.12,23.12,0,0,1-1.17,6.68,58.38,58.38,0,0,1-2.54,7,24.36,24.36,0,0,0-1.91,7,12,12,0,0,0,.21,3.81,29.71,29.71,0,0,1,.53,4.35,12.28,12.28,0,0,1-.42,4,3.54,3.54,0,0,1-2.44,2.44c-1.7.71-3,.81-4,.32a4.82,4.82,0,0,1-2.23-2.33,11.4,11.4,0,0,1-1-3.61,16.41,16.41,0,0,1,0-3.71,51,51,0,0,1,1.17-6.58,21.28,21.28,0,0,0,.53-6.36l-.64-3.39a52.32,52.32,0,0,0-3.82-12.09q-2.54-5.52-4.88-11.67c-.56-1.41-1-2.69-1.37-3.81a5.66,5.66,0,0,0-2.44-3,15.78,15.78,0,0,0-8.17-2.87,26.77,26.77,0,0,1-8.59-2,8.86,8.86,0,0,1-2.33-1.49,2.07,2.07,0,0,0-2.76,0,2.61,2.61,0,0,0-1.06,2.44,15.53,15.53,0,0,0,.21,2.87,7,7,0,0,1-.53,4.56,28.52,28.52,0,0,0-2,4.34,16.36,16.36,0,0,0-1.06,5.94,22.49,22.49,0,0,1-.85,6.15,59.16,59.16,0,0,1-2.44,6.15q-1.38,3-2.44,5.94a15.89,15.89,0,0,0-.74,8.27,46.11,46.11,0,0,1,.74,8.28,36.09,36.09,0,0,1-.21,3.71,11.34,11.34,0,0,1-1,3.6,6.23,6.23,0,0,1-2.12,2.55,5.55,5.55,0,0,1-3.71.74,4.29,4.29,0,0,1-3.5-1.7,6.1,6.1,0,0,1-1-3.39,14.15,14.15,0,0,1,.63-4c.43-1.41.78-2.54,1.06-3.39a11,11,0,0,0,.43-6.68,45.4,45.4,0,0,1-1.28-6.69,24.09,24.09,0,0,1,.32-5.93,11.42,11.42,0,0,0-.53-5.94,18.18,18.18,0,0,0-1.59-3.82,9.92,9.92,0,0,1-1.16-4c-.29-5.09-.53-10.22-.75-15.38s-.6-10.28-1.16-15.37a37,37,0,0,0-2.87-10.82,52,52,0,0,0-5.62-9.76,30.24,30.24,0,0,1-3-4.45,29.46,29.46,0,0,0-3-4.45,20.67,20.67,0,0,0-2.65-3.29,9.93,9.93,0,0,1-2.22-3.71,15.23,15.23,0,0,1-1-8.49A30.93,30.93,0,0,0,1024.61,242.63Z" transform="translate(-493.25 -14.47)" style="fill:#ca1573"/><path d="M1173.71,226.51a73.37,73.37,0,0,1,1.27-11.24q1.07-5.52,1.7-11a42.47,42.47,0,0,0-.21-11.14,73.77,73.77,0,0,1-.85-11.13,72.24,72.24,0,0,1,.53-8.7,45.87,45.87,0,0,1,1.8-8.48,19.13,19.13,0,0,1,2.86-6.26c1.2-1.62,3.22-2.72,6-3.28a18.44,18.44,0,0,1,8.8,0,63.06,63.06,0,0,0,8.59,1.48,44,44,0,0,0,9-.53,19.22,19.22,0,0,1,8.81.53,7,7,0,0,1,4.45,4,17.6,17.6,0,0,1,1.38,6.47,40.69,40.69,0,0,1-.42,7.1q-.54,3.61-.75,5.94a83.65,83.65,0,0,0,0,8.38,26.54,26.54,0,0,1-.85,8.17,37.93,37.93,0,0,0-1.16,8.06,62.3,62.3,0,0,0,.32,8.06,100.84,100.84,0,0,0,1.48,11.13,103.52,103.52,0,0,1,1.49,11.14c.13,1.83.24,3.71.31,5.62a56.61,56.61,0,0,0,.53,5.83c.43,2.69.85,5.62,1.28,8.8a10.85,10.85,0,0,0,4.24,7.53,14.25,14.25,0,0,0,4.56,2.12,47.62,47.62,0,0,0,6.15,1.38,49.58,49.58,0,0,0,6.36.63,38.58,38.58,0,0,0,5.2-.1,154.28,154.28,0,0,1,15.8-.42,29.17,29.17,0,0,1,14.74,4.87,9.46,9.46,0,0,1,3.92,4.35,19.8,19.8,0,0,1,1.17,6.05,2.1,2.1,0,0,0,.11.74,2.37,2.37,0,0,1,.1.74,66,66,0,0,1-.21,8.91,30.1,30.1,0,0,1-2.23,9.33,15.73,15.73,0,0,1-5.09,6.68q-3.29,2.44-9,.74-3-.84-6-1.8a27.73,27.73,0,0,0-6.47-1.17,14.2,14.2,0,0,0-6,1,28.74,28.74,0,0,1-6,1.59q-7,1.07-9.76,5.2a21.56,21.56,0,0,0-3.39,9.75,62.55,62.55,0,0,0-.22,11.56,61.83,61.83,0,0,1,0,10.39V349q0,2.24-.21,4.35a11.53,11.53,0,0,1-1,3.71,3,3,0,0,1-2.44,1.81,3.45,3.45,0,0,1-3.5-1,6.94,6.94,0,0,1-1.49-3.5,18,18,0,0,1-.1-4.35c.14-1.48.28-2.72.42-3.71a29.75,29.75,0,0,1,.85-4.77,15.87,15.87,0,0,0,.42-5.2,12.42,12.42,0,0,0-1.8-5.09,26.34,26.34,0,0,1-2.44-4.87,9.12,9.12,0,0,1-.74-4.14c.07-1.48.14-3,.21-4.56a17,17,0,0,0-.32-4.35,7.37,7.37,0,0,0-2.12-3.71,5.62,5.62,0,0,0-6-1.06,8.54,8.54,0,0,0-4.77,4.24,27.84,27.84,0,0,0-2.65,6.26,63.75,63.75,0,0,0-1.59,6.89,50.07,50.07,0,0,0-.43,6.36,10.2,10.2,0,0,1-2.12,5.94c-1.13,1.56-2.16,2.3-3.08,2.23a3.39,3.39,0,0,1-2.43-1.48,10.94,10.94,0,0,1-1.7-3.4,12.21,12.21,0,0,1-.64-3.71c0-1.56.07-3.18.21-4.88a18.78,18.78,0,0,0-.21-4.88,23.32,23.32,0,0,0-1.16-4.24,22.53,22.53,0,0,1-1.17-4.24c-.57-3.54-2-5.9-4.24-7.11s-4.81-2.5-7.64-3.92a19,19,0,0,1-7.21-7.53,64.14,64.14,0,0,1-4.67-9.86,28.28,28.28,0,0,1-1.16-9.33c.07-3.68.24-6.93.53-9.76q.42-4.67,1-9t.75-8.81q.42-5.5.31-10.92T1173.71,226.51Z" transform="translate(-493.25 -14.47)" style="fill:#ca1573"/><path d="M735.11,488q.42-4.45.84-8.59a38.29,38.29,0,0,0-.21-9,39.38,39.38,0,0,0-1.59-8,26.26,26.26,0,0,1-1.16-7.95c0-3,.06-6,.21-9.12a62.13,62.13,0,0,0-.21-8.91c-.15-2.26-.32-4.66-.53-7.21a32.64,32.64,0,0,1,.21-7.53,25.76,25.76,0,0,1,2-7,14.23,14.23,0,0,1,4.67-5.62,11.78,11.78,0,0,1,7.32-2q4.33.11,8,.32a38,38,0,0,0,8-.43,17.65,17.65,0,0,1,7.74.43,13.39,13.39,0,0,1,3.08,1.16,12.88,12.88,0,0,0,3.07,1.17,13.85,13.85,0,0,0,4.14.21,39.83,39.83,0,0,1,4.14-.21,17.15,17.15,0,0,1,7.63,2,43.58,43.58,0,0,0,7.85,3.08,37.49,37.49,0,0,0,3.71.64,18.76,18.76,0,0,1,3.71.84,27.61,27.61,0,0,1,6.15,3,55.09,55.09,0,0,1,5.73,4.25c1.27,1.13,2.47,2.3,3.61,3.49s2.33,2.37,3.6,3.5q5.09,4.24,8.8,7.85a45.17,45.17,0,0,1,7.11,9.33,74.14,74.14,0,0,1,8.69,21.85,68.73,68.73,0,0,1,1.49,16A76.15,76.15,0,0,1,850.49,502a37.46,37.46,0,0,1-2.87,8.06q-1.8,3.62-4.13,7.42l-1.91,2.65c-.57.78-1.27,1.67-2.12,2.66a14.3,14.3,0,0,0-1.91,3.28c-.43,1.06-.92,2.23-1.49,3.5a49,49,0,0,1-4.45,8.17,57.1,57.1,0,0,1-5.73,7.32,34.91,34.91,0,0,1-3.6,3.5,18.83,18.83,0,0,0-3.4,3.71,25.62,25.62,0,0,0-2,4c-.64,1.55-1.24,3-1.8,4.45a9.76,9.76,0,0,0-.43,1c-.14.35-.28.67-.42.95q-1.07,3-2.12,6.15T810.19,575a25.62,25.62,0,0,0-.85,7.95,50.64,50.64,0,0,1-.21,8c-.43,3.39-1,6.82-1.7,10.28a86.41,86.41,0,0,0-1.48,10.5c0,.71,0,1.77.1,3.18s.11,2.87.11,4.35-.08,2.9-.21,4.24a6.14,6.14,0,0,1-.85,2.87,3.39,3.39,0,0,1-3,1.16,5.3,5.3,0,0,1-3.18-1.16,4.36,4.36,0,0,1-1.59-3.18c-.08-1.28-.18-2.48-.32-3.61a18.52,18.52,0,0,1,.63-7.42,10.56,10.56,0,0,0-.42-7.21c-.71-1.84-1.48-3.61-2.33-5.31a14.41,14.41,0,0,1-1.49-5.51q-.21-4-.74-8.38a30.28,30.28,0,0,0-2-8c-.7-1.7-1.45-3.33-2.22-4.88a37.6,37.6,0,0,1-2-4.88c-.42-1.56-.78-2.9-1.06-4a7,7,0,0,0-2.33-3.39,31.43,31.43,0,0,0-5.2-3.18,7.5,7.5,0,0,0-5.83-.21,13.74,13.74,0,0,0-5.3,2.86,13.44,13.44,0,0,0-3.61,5,21.41,21.41,0,0,0-1.48,4.14c-.43,1.62-.92,3.29-1.49,5a40.69,40.69,0,0,1-1.91,4.78,7.54,7.54,0,0,1-2.75,3.28,2.62,2.62,0,0,1-2.87,0,10.44,10.44,0,0,1-3-2.44,19.82,19.82,0,0,1-2.43-3.5,27,27,0,0,1-1.49-3c-.42-1.13-.85-2.33-1.27-3.6s-.85-2.48-1.27-3.61a25.87,25.87,0,0,0-2.87-5.94,27.07,27.07,0,0,1-2.86-5.72,25.89,25.89,0,0,1-1.7-10.5q.21-5.62.64-10.71a32.6,32.6,0,0,0-.43-10.39,39.31,39.31,0,0,1-.31-8.7,72.49,72.49,0,0,0,.1-8.7q-.21-4.23-.63-8.48A45.71,45.71,0,0,1,735.11,488Zm46.66-9.12a19.7,19.7,0,0,0-1.06,6.05,27.71,27.71,0,0,0,.53,7.42,11.72,11.72,0,0,0,2.54,5.51c1.2,1.35,2.93,1.38,5.2.11a2.93,2.93,0,0,0,1.06-.74l.63-1a7.68,7.68,0,0,0,1.49-3.6,28.21,28.21,0,0,0,.42-5,24.16,24.16,0,0,0-.63-5.4,33.4,33.4,0,0,0-1.49-4.88q-1.69-3.82-4-4.24C784.88,472.89,783.32,474.8,781.77,478.9Z" transform="translate(-493.25 -14.47)" style="fill:#ca1573"/><path d="M857.48,498.2a15,15,0,0,0-.21-7.53,66.12,66.12,0,0,1-1.69-7.53,36.27,36.27,0,0,1-.32-8.37c.21-2.76.38-5.55.53-8.38q.21-4.87,0-9.44a50.4,50.4,0,0,1,.42-9.23,56,56,0,0,1,1.27-7,20.31,20.31,0,0,0,.43-7.22,48.62,48.62,0,0,1-.11-8.48q.32-3.82,4.35-6.57c.71-.57,1.59-1.35,2.65-2.34a9.62,9.62,0,0,1,2.65-1.91,7.52,7.52,0,0,1,4.88-.1,37.06,37.06,0,0,0,5.09.95q2.55.21,4.56.21a10.56,10.56,0,0,0,4.35-1.06c2.83-1.13,5.65-2.29,8.48-3.5a18.28,18.28,0,0,1,8.91-1.38,8,8,0,0,1,6.68,3.93,18.51,18.51,0,0,1,2.33,8.06,37.42,37.42,0,0,1-.53,9.33c-.56,3.18-1.06,5.69-1.48,7.53a20,20,0,0,1-1.38,4.24,19.59,19.59,0,0,0-1.38,4.24,7.56,7.56,0,0,0,.32,5q1,1.8,2.65,4.35a10.68,10.68,0,0,1,1.91,5,21,21,0,0,1-.11,4.77c-.21,1.56-.42,3.18-.63,4.88a15,15,0,0,0,.32,5.3c.42,2.27.81,4.28,1.16,6.05a25,25,0,0,1,.32,6.25,29.69,29.69,0,0,0,0,5q.21,2.44.21,4.77a16.38,16.38,0,0,1-.63,4.67,15.2,15.2,0,0,0-.64,4.45,6.45,6.45,0,0,0,2.55,5.51q2.54,1.92,5.93.22a24.69,24.69,0,0,0,5.09-3.18,12,12,0,0,0,3-5.09,52.3,52.3,0,0,0,1.7-5.09,13.24,13.24,0,0,0,.21-5.31q-.42-3.18-.74-6.25a26.29,26.29,0,0,1,.11-6.26,49.14,49.14,0,0,0,.21-7.74c-.14-2.34-.43-4.91-.85-7.74-.28-2-.5-3.64-.64-5a37.77,37.77,0,0,1-.21-3.92,18.68,18.68,0,0,1,.43-3.93c.28-1.34.63-2.93,1.06-4.77a20.88,20.88,0,0,0,.74-6.36q-.1-3.39-.53-6.58a25.23,25.23,0,0,0-1.59-6.25,9,9,0,0,1-.11-6.26,13.42,13.42,0,0,1,2.55-4.77,9.16,9.16,0,0,1,4.45-2.86c1.13-.29,2.15-.57,3.08-.85a10.45,10.45,0,0,1,3.07-.43,8.1,8.1,0,0,1,3.61,1,17.17,17.17,0,0,0,3.81,1.38,16.94,16.94,0,0,0,7.64-.53,23.39,23.39,0,0,1,7.85-1,7.14,7.14,0,0,1,4.13,1.38,7.73,7.73,0,0,1,2.12,2.86,18.05,18.05,0,0,1,1.17,3.93,44.51,44.51,0,0,0,1.06,4.35,36.46,36.46,0,0,1,1.59,5.93c.35,2,.67,4,1,6.15.56,4,1.06,7.29,1.48,10a45.78,45.78,0,0,0,3,9.76,30.91,30.91,0,0,1,2,12.62q-.33,6.47-.32,13c0,1.56.07,3.22.21,5a19.37,19.37,0,0,1-.21,5v.21a40.55,40.55,0,0,1-1.59,7.74,19.78,19.78,0,0,0-.75,8c.29,2.26.46,4.49.54,6.68s0,4.49-.11,6.89a87,87,0,0,1-7.42,30.76,16.24,16.24,0,0,1-4.56,5.94c-2.06,1.69-4,3.32-5.84,4.87a24.36,24.36,0,0,1-2.12,1.91,4.41,4.41,0,0,0-1.48,2.34,6,6,0,0,0-.43,3.18,8,8,0,0,1-.21,3.18,4.77,4.77,0,0,1-1.8,2.44,14.44,14.44,0,0,1-2.55,1.27c-.92.35-1.84.74-2.75,1.17a5.22,5.22,0,0,0-2.23,1.9q-1.27,1.69-1.38,5.63t-.11,7.95a25.92,25.92,0,0,1-.84,7q-.85,3-3.61,3a4,4,0,0,1-3.61-1.59,8.08,8.08,0,0,1-1.27-3.71,14.47,14.47,0,0,1,.21-4.25,31.77,31.77,0,0,1,.85-3.39,16.6,16.6,0,0,0,.53-9,18.44,18.44,0,0,0-3.71-8.38,31.35,31.35,0,0,1-2.33-3.61,10.11,10.11,0,0,1-1.27-4c-.15-.85-.32-1.73-.53-2.65a7.2,7.2,0,0,0-1-2.33,2.22,2.22,0,0,0-1.7-1.06,4.32,4.32,0,0,0-2.75,1.16,7.48,7.48,0,0,0-2.76,3.93,20.82,20.82,0,0,0-1.27,4.77,33,33,0,0,0,.1,7.95,27.61,27.61,0,0,1-.1,8c-.71,4.94-1.56,10-2.55,15.06a60.59,60.59,0,0,0-1.06,15c.14,1.42.28,2.69.43,3.82a33.54,33.54,0,0,1,.21,3.82,3.63,3.63,0,0,1-2.34,3.71q-2.32,1-4.24-1.38a10,10,0,0,1-2.33-5.94,32.13,32.13,0,0,1,.42-7.21c.43-2.54.85-5.05,1.28-7.53a28.28,28.28,0,0,0,.42-6.68c-.28-2.12-.64-4.21-1.06-6.25s-.78-4.07-1.06-6a23.44,23.44,0,0,0-1.06-5,10.23,10.23,0,0,1-.43-5c.14-.71.36-2,.64-3.81a23.53,23.53,0,0,0,.21-5.41,8.75,8.75,0,0,0-1.38-4.35c-.77-1.13-2.08-1.42-3.92-.85a5.54,5.54,0,0,0-2.23,2.12,15.45,15.45,0,0,0-1.59,2.76,7.16,7.16,0,0,0-.31,3.71,6,6,0,0,1-.54,3.71,36.47,36.47,0,0,1-2.75,4.56,10.57,10.57,0,0,0-1.49,5,51.28,51.28,0,0,1-.85,6.89,35.41,35.41,0,0,0-.63,6.68c0,.56,0,1.62-.11,3.18a22.83,22.83,0,0,1-.63,4.46,7,7,0,0,1-1.7,3.28c-.78.78-1.8.6-3.08-.53a3.87,3.87,0,0,1-1.27-2.75,25.41,25.41,0,0,1-.1-4.14c.06-1.48.17-2.94.31-4.35a13.53,13.53,0,0,0,0-3.39c-.28-1.14-.6-2.23-.95-3.29a11.82,11.82,0,0,0-1.59-3.07,19.08,19.08,0,0,0-2.33-2.34,6.75,6.75,0,0,1-1.91-2.54,11,11,0,0,1-.64-3.5c0-1.06,0-2.12.11-3.18s.1-2.16.1-3.29a9.67,9.67,0,0,0-.63-3.39,15.59,15.59,0,0,0-3.61-5.94,58.68,58.68,0,0,1-4.67-5.31,15.87,15.87,0,0,1-2-3.5,40.29,40.29,0,0,0-1.8-3.71c-1.14-2-2.3-4-3.5-6a25.53,25.53,0,0,1-2.65-6,41.89,41.89,0,0,1-.85-5.72,45.39,45.39,0,0,0-.85-5.73q-1.06-5.29-2.33-10.5a65.72,65.72,0,0,1-1.7-10.71,15.35,15.35,0,0,1,.32-5Q856.84,501.17,857.48,498.2Z" transform="translate(-493.25 -14.47)" style="fill:#ca1573"/><path d="M994.71,445v-5.84q0-3.28.21-6.78a64.65,64.65,0,0,1,.74-6.68,17.4,17.4,0,0,1,1.81-5.52,28.93,28.93,0,0,1,10.07-10.39,45.86,45.86,0,0,1,13.57-5.52,75.69,75.69,0,0,1,15.06-1.9q7.74-.21,14.74,0a39,39,0,0,1,6.68,1.06,44.92,44.92,0,0,1,6.79,2.22q3.28,1.38,6.26,3t5.51,3.08c2,1.13,3.89,2.16,5.73,3.07a22.32,22.32,0,0,1,4.88,3.29,17.55,17.55,0,0,1,2.86,2.65,23.67,23.67,0,0,0,2.65,2.65,11.48,11.48,0,0,0,3.5,1.49,9.33,9.33,0,0,1,3.29,1.48,8.61,8.61,0,0,1,2.76,2.76,18.1,18.1,0,0,1,1.9,3.61,10,10,0,0,1,.64,7.84,16.33,16.33,0,0,1-1.7,3.61c-.7,1.13-1.48,2.26-2.33,3.39s-1.66,2.27-2.44,3.4a10.09,10.09,0,0,0-1.59,3.81,31.37,31.37,0,0,0-.85,7.11,25,25,0,0,1-1.06,7.1,6.18,6.18,0,0,1-1.59,2.44,2.77,2.77,0,0,1-3.07.53,3.17,3.17,0,0,1-1.91-2.22,16,16,0,0,0-1.06-2.87,9.66,9.66,0,0,0-1.38-2.86,7.9,7.9,0,0,0-2.86-1.17,10.32,10.32,0,0,1-2.55-1.27,5.14,5.14,0,0,1-1.48-1.91,47.62,47.62,0,0,0-4.67-7.1,36.15,36.15,0,0,0-6.15-6.15,25.26,25.26,0,0,0-7.42-4,18.06,18.06,0,0,0-8.49-.75q-4.24.65-5.62,3.18t1.59,6.16a14.67,14.67,0,0,0,6.68,5.19l8,3.29a25.55,25.55,0,0,1,8.06,4.35q3.18,2.65,6.78,5.83c2.69,2.41,5.34,4.84,8,7.32a44.34,44.34,0,0,1,6.89,8.37,19,19,0,0,1,2.54,3.72q1.07,2,2.13,3.92,1.47,3,2.75,6.26a46,46,0,0,0,3,6.25,54,54,0,0,0,4.67,8.06,15.06,15.06,0,0,1,2.54,8.91,22,22,0,0,1-1.37,7.85,77.6,77.6,0,0,0-2.44,7.42,56.8,56.8,0,0,1-2.66,8.06c-1.06,2.55-2.15,5-3.28,7.43a61.84,61.84,0,0,0-3.08,6.68,26,26,0,0,1-3.71,6.47,64.36,64.36,0,0,0-4.35,6.78,64.51,64.51,0,0,1-4.35,6.79,26.93,26.93,0,0,0-3.28,7.42q-.75,3.18-1.81,8.06c-.14.71-.31,1.84-.53,3.4s-.67,2.54-1.38,3a2.65,2.65,0,0,1-2.12.31,2.74,2.74,0,0,1-1.37-1.16,11.74,11.74,0,0,1-1-1.91c-.28-.71-.5-1.28-.64-1.7a14.53,14.53,0,0,1-.74-3.71,7.42,7.42,0,0,0-1.16-3.5,4.82,4.82,0,0,0-2.76-2,5.18,5.18,0,0,0-3.08.31,8.55,8.55,0,0,0-2.86,1.91,12.86,12.86,0,0,0-2.12,2.76,16.91,16.91,0,0,0-2.12,6.36,51.38,51.38,0,0,1-1.27,6.58,22.89,22.89,0,0,1-2.44,5.51,51.78,51.78,0,0,0-2.87,5.09,12,12,0,0,0-1.27,6.26q.21,3.29.43,6.47a46.28,46.28,0,0,1-.64,13.15,16.54,16.54,0,0,1-1.27,3.07c-.57,1.06-1.63,1.52-3.19,1.38s-2.22-1-2.43-2-.46-2.16-.75-3.29a21.9,21.9,0,0,1,.11-7.74,60.69,60.69,0,0,0,.95-8.17,45.7,45.7,0,0,0-.31-8.16q-.54-4.14-1-8c0-.56,0-1.55-.1-3s-.18-3-.32-4.87-.32-3.72-.53-5.63a39.6,39.6,0,0,0-1-5.4c-1.13-3.68-2.69-5.38-4.66-5.09a2.78,2.78,0,0,0-1.49,1.16c-.28.5-.6,1-1,1.59a4.73,4.73,0,0,1-1.28,1.38,2.58,2.58,0,0,1-2.22.11,4.1,4.1,0,0,1-3.4-2.76c-.56-1.56-1.13-3.11-1.69-4.67q-1.28-2.53-2.34-5.3a21.91,21.91,0,0,0-2.75-5.09,51,51,0,0,0-4.67-5.62c-1.7-1.77-3.39-3.57-5.09-5.41q-3.18-3.81-5.62-7.1a57.66,57.66,0,0,1-4.77-7.74,32.85,32.85,0,0,0-5-7.11,26.61,26.61,0,0,1-4.77-7.32,55.69,55.69,0,0,1-2.76-5.4,14.88,14.88,0,0,1-1.27-6,8,8,0,0,1,1.59-4.77,18.94,18.94,0,0,1,3.93-4,29.93,29.93,0,0,1,4.87-3.08c1.7-.85,3.26-1.55,4.67-2.12a49.43,49.43,0,0,1,8-2.22q3.93-.75,8.17-1.81a9.3,9.3,0,0,0,3.18-1.16c1.13-.64,2.33-1.24,3.61-1.81a22,22,0,0,1,3.71-1.27,6,6,0,0,1,3.5.21q2.32,1.07,3.29,4.67a37.73,37.73,0,0,0,2,5.94,16.35,16.35,0,0,1,1.06,2.75,17.86,17.86,0,0,0,6.79,9.55,10.28,10.28,0,0,0,8.69,1.27,11.07,11.07,0,0,0,6.47-4,13.4,13.4,0,0,0,2.65-6.68,20.77,20.77,0,0,0-.53-7.53,19.92,19.92,0,0,0-3.07-6.79,17.29,17.29,0,0,0-2.23-2.22,16.7,16.7,0,0,1-2.23-2.23,18.93,18.93,0,0,1-1.8-2,3.31,3.31,0,0,0-1.16-1.07,8.33,8.33,0,0,0-1.49-.53c-.57-.13-1.34-.28-2.33-.42q-3.82-.84-7.85-1.59t-8.06-1.8a6.53,6.53,0,0,1-2.23-.85,5.24,5.24,0,0,1-.85-.85c-.21-.28-.46-.6-.74-.95a13.22,13.22,0,0,0-1.69-1.6c-.85-.56-1.53-1-2-1.27a2.83,2.83,0,0,0-1.38-.42,10,10,0,0,0-1.38.1,6.6,6.6,0,0,1-2-.1q-3-.42-7.11-1a19.07,19.07,0,0,1-7.1-2.22,5.65,5.65,0,0,1-2.12-2.55,10.81,10.81,0,0,1-.53-2.76c-.08-1-.11-2-.11-3.18a8.8,8.8,0,0,0-.85-3.6Q997.9,459,996.3,455A27.07,27.07,0,0,1,994.71,445Z" transform="translate(-493.25 -14.47)" style="fill:#ca1573"/><path d="M1117.3,446.24a8.65,8.65,0,0,0-1.27-3.61,18.53,18.53,0,0,1-1.7-3.39,15,15,0,0,1-.85-3.92,27.12,27.12,0,0,0-.64-3.93,55.93,55.93,0,0,1-.95-9.12q-.11-4.66-.11-9.54c0-4.38,1-7.18,2.87-8.38s4.91-1.45,9-.74a23.26,23.26,0,0,1,4.45,1.27c1.42.57,2.83,1.17,4.25,1.8a24.36,24.36,0,0,0,4.24,1.49,11.31,11.31,0,0,0,4.66.1,7,7,0,0,0,3.5-1.69,7.31,7.31,0,0,1,3.72-1.7,15.65,15.65,0,0,1,6.25,0q3.29.64,6.26,1.06c3.53.29,6.86.71,10,1.27a20.4,20.4,0,0,0,10-.84,20.43,20.43,0,0,1,8.27-.85,66,66,0,0,1,8.38,1.38q4.13.94,8.37,2a34.76,34.76,0,0,0,8.49,1.06,30.47,30.47,0,0,0,9-1.27,23.51,23.51,0,0,1,9-.85,51,51,0,0,0,8.7.11,62.05,62.05,0,0,0,8.7-1.38,36.44,36.44,0,0,1,8.48-1.06,11.87,11.87,0,0,1,7.64,3,17.8,17.8,0,0,1,5.4,6.25,18.35,18.35,0,0,1,1.17,8.17q-.21,4.45-.11,9.33a56.53,56.53,0,0,1-.53,9.33c-.84,5.8-1.77,11.39-2.75,16.76a61.09,61.09,0,0,0-.64,17c.28,2.68.67,5.55,1.17,8.59a18.41,18.41,0,0,1-.53,8.59,9.32,9.32,0,0,1-2.55,3.71,16,16,0,0,1-4.13,2.86,7.21,7.21,0,0,1-3.93.85c-1.13-.14-1.69-.92-1.69-2.33v-.22a13,13,0,0,0-1-5.19,20.35,20.35,0,0,1-1.38-5,15.37,15.37,0,0,0-1.48-4.77,15.16,15.16,0,0,1-1.49-5A20.55,20.55,0,0,0,1249,469a10.08,10.08,0,0,0-4.35-4.14,8,8,0,0,0-5.3-.31,15.62,15.62,0,0,0-5.62,2.86,27.78,27.78,0,0,0-3.93,3.82,19.91,19.91,0,0,0-3.07,5.09,41.22,41.22,0,0,0-3.61,16.65q0,8.37-.21,16.86a101.21,101.21,0,0,1-.53,10.39c-.35,3.39-.57,6.79-.64,10.18s0,6.79.22,10.18a46.42,46.42,0,0,0,1.8,10.18,97.14,97.14,0,0,1,2.54,10.71,17,17,0,0,1-1.48,10.93,13.25,13.25,0,0,1-4.77,5.09,14.29,14.29,0,0,0-4.77,4.66,11.76,11.76,0,0,0-1.38,4,17.52,17.52,0,0,0-.11,4.35l.42,4.45a22.58,22.58,0,0,1,0,4.35,40.1,40.1,0,0,1-.84,4.88,7.8,7.8,0,0,1-2.34,4.24,3.71,3.71,0,0,1-2.75.85,3.83,3.83,0,0,1-2.23-1.27,10.8,10.8,0,0,1-1.7-2.65,11.42,11.42,0,0,1-.95-2.87,12.62,12.62,0,0,1-.21-4,29.6,29.6,0,0,1,.63-3.71c.28-1.2.57-2.44.85-3.71a18.72,18.72,0,0,0,.42-4,4.79,4.79,0,0,0-.63-2.65,14.73,14.73,0,0,1-1.27-2.44,10.55,10.55,0,0,1-1.28-4.24,5.54,5.54,0,0,0-1.91-3.82q-2.12-2.11-3,0a20.86,20.86,0,0,0-1.16,5.73q-.32,3.6-.32,7.31a16.48,16.48,0,0,1-.42,4.78q-1.28,3.6-2.87,7.84a17.92,17.92,0,0,0-1.16,8.28,52.42,52.42,0,0,0,1.48,8.9,26,26,0,0,1,.43,9.55,38.07,38.07,0,0,1-1,4.56,20.94,20.94,0,0,1-2,4.35,10.43,10.43,0,0,0-1.49,4.87,40.31,40.31,0,0,0,.43,5.31,42.38,42.38,0,0,1,.21,4.66,18.72,18.72,0,0,1-.74,5.41,5.12,5.12,0,0,1-2.44,3.29c-1.14.56-2.62-.07-4.46-1.91a7.06,7.06,0,0,1-1.91-3.82,28.18,28.18,0,0,1-.42-5c0-1.77,0-3.54.1-5.3a12.49,12.49,0,0,0-.53-4.56,28.57,28.57,0,0,1-1.16-4.67,18,18,0,0,1,.1-5.09c.29-2,.6-4,1-5.94s.67-4,1-5.94q.43-2.34.85-5.41a9.42,9.42,0,0,0-.85-5.62c-1.13-2.4-2.37-4.74-3.71-7a32.27,32.27,0,0,0-5-6.36,26.92,26.92,0,0,0-5.52-3.92,14.8,14.8,0,0,1-5.09-4.56,18.76,18.76,0,0,1-2.75-6,34.48,34.48,0,0,1-1.06-6.78,45.43,45.43,0,0,1,.1-7c.21-2.34.39-4.56.53-6.68.28-3.4.67-6.75,1.17-10.08a71.9,71.9,0,0,0,.74-10.5,75,75,0,0,0-.74-10.5,34.9,34.9,0,0,1,.1-10.5q.86-5.08,1.91-10.39a21.47,21.47,0,0,0-.42-10.39q-.65-2.55-1.17-5.41a29.09,29.09,0,0,1-.53-5.2,14.86,14.86,0,0,1,.64-4.13c.42-1.49.77-3,1.06-4.67a17,17,0,0,0,.21-4.56,5.37,5.37,0,0,0-1.91-3.6q-2.34-1.92-4-1.59a4.82,4.82,0,0,0-3,2,12,12,0,0,0-1.91,3.92,15.33,15.33,0,0,0-.63,4.14,13.74,13.74,0,0,0,.21,4.24,10.81,10.81,0,0,1,0,4.24,23.07,23.07,0,0,1-1.27,3.61c-.57,1.27-1.14,2.48-1.7,3.61a23.38,23.38,0,0,1-2,3.6c-.78,1.13-1.53,2.26-2.23,3.39a7.85,7.85,0,0,0-1.49,3.93,30.69,30.69,0,0,1-.42,4.35,7.73,7.73,0,0,1-2.33,4.24,6.16,6.16,0,0,1-3.82,1.59,6.07,6.07,0,0,1-3.92-1.17,7.31,7.31,0,0,1-2.66-3.82,15.14,15.14,0,0,1-.74-4,29.42,29.42,0,0,0-.53-4.24,16.83,16.83,0,0,0-1.27-4.13,10.08,10.08,0,0,1-.85-4.35,19.74,19.74,0,0,0-1.7-8.48,10.53,10.53,0,0,0-1.06-1.7,8.18,8.18,0,0,1-1.06-1.91,3.7,3.7,0,0,1-.21-2.12,2.92,2.92,0,0,0-.21-1.91,5.54,5.54,0,0,0-2.33-2.76,8.34,8.34,0,0,1-2.76-2.75q-2.13-3.39-.64-8.06a8.24,8.24,0,0,1,1.38-3.4,8.27,8.27,0,0,0,1.38-3.18,37.54,37.54,0,0,0,.74-4.13A16.91,16.91,0,0,0,1117.3,446.24Z" transform="translate(-493.25 -14.47)" style="fill:#ca1573"/><path d="M735.11,742.54c.28-3,.56-5.84.84-8.59a38.38,38.38,0,0,0-.21-9,39.15,39.15,0,0,0-1.59-7.95,26.32,26.32,0,0,1-1.16-8c0-3,.06-6,.21-9.12A62,62,0,0,0,733,691c-.15-2.26-.32-4.67-.53-7.21a32.61,32.61,0,0,1,.21-7.53,25.56,25.56,0,0,1,2-7,14.16,14.16,0,0,1,4.67-5.62,11.72,11.72,0,0,1,7.32-2q4.33.11,8,.32a38,38,0,0,0,8-.43,17.65,17.65,0,0,1,7.74.43,13,13,0,0,1,3.08,1.17,12,12,0,0,0,7.21,1.37,39.83,39.83,0,0,1,4.14-.21,17.18,17.18,0,0,1,7.63,2,43.51,43.51,0,0,0,7.85,3.07,34.77,34.77,0,0,0,3.71.64,18.12,18.12,0,0,1,3.71.85,27.18,27.18,0,0,1,6.15,3,53.59,53.59,0,0,1,5.73,4.24q1.9,1.7,3.61,3.5t3.6,3.5q5.09,4.25,8.8,7.85a44.64,44.64,0,0,1,7.11,9.33,74.19,74.19,0,0,1,8.69,21.84,68.82,68.82,0,0,1,1.49,16,76.15,76.15,0,0,1-2.33,16.43,37.46,37.46,0,0,1-2.87,8.06c-1.2,2.41-2.58,4.88-4.13,7.43l-1.91,2.65c-.57.78-1.27,1.66-2.12,2.65a14.35,14.35,0,0,0-1.91,3.29c-.43,1.06-.92,2.22-1.49,3.5a49.28,49.28,0,0,1-4.45,8.16,57.1,57.1,0,0,1-5.73,7.32,33.91,33.91,0,0,1-3.6,3.5,18.83,18.83,0,0,0-3.4,3.71,26.06,26.06,0,0,0-2,4q-1,2.34-1.8,4.45c-.15.29-.29.61-.43,1s-.28.67-.42,1q-1.07,3-2.12,6.15t-1.91,6.15a25.65,25.65,0,0,0-.85,8,50.54,50.54,0,0,1-.21,7.95q-.64,5.08-1.7,10.29a85.86,85.86,0,0,0-1.48,10.5c0,.7,0,1.76.1,3.18s.11,2.86.11,4.35-.08,2.89-.21,4.24a6.13,6.13,0,0,1-.85,2.86,3.39,3.39,0,0,1-3,1.17,5.3,5.3,0,0,1-3.18-1.17,4.36,4.36,0,0,1-1.59-3.18c-.08-1.27-.18-2.48-.32-3.61a18.52,18.52,0,0,1,.63-7.42,10.56,10.56,0,0,0-.42-7.21c-.71-1.84-1.48-3.61-2.33-5.3a14.51,14.51,0,0,1-1.49-5.52q-.21-4-.74-8.37a30.26,30.26,0,0,0-2-8c-.7-1.7-1.45-3.32-2.22-4.88a37.46,37.46,0,0,1-2-4.87c-.42-1.56-.78-2.91-1.06-4a7,7,0,0,0-2.33-3.39,31.43,31.43,0,0,0-5.2-3.18,7.5,7.5,0,0,0-5.83-.21,13.74,13.74,0,0,0-5.3,2.86,13.48,13.48,0,0,0-3.61,5,21.3,21.3,0,0,0-1.48,4.13c-.43,1.63-.92,3.29-1.49,5a41.23,41.23,0,0,1-1.91,4.77,7.57,7.57,0,0,1-2.75,3.29,2.66,2.66,0,0,1-2.87,0,10.61,10.61,0,0,1-3-2.44,20.19,20.19,0,0,1-2.43-3.5,28.88,28.88,0,0,1-1.49-3c-.42-1.14-.85-2.34-1.27-3.61s-.85-2.47-1.27-3.6a25.67,25.67,0,0,0-2.87-5.94,27.38,27.38,0,0,1-2.86-5.73,25.89,25.89,0,0,1-1.7-10.5c.14-3.74.35-7.32.64-10.71a32.61,32.61,0,0,0-.43-10.39,39.31,39.31,0,0,1-.31-8.7,72.32,72.32,0,0,0,.1-8.69q-.21-4.24-.63-8.49A45.6,45.6,0,0,1,735.11,742.54Zm46.66-9.12a19.57,19.57,0,0,0-1.06,6,27.68,27.68,0,0,0,.53,7.42,11.71,11.71,0,0,0,2.54,5.52c1.2,1.34,2.93,1.38,5.2.1a2.93,2.93,0,0,0,1.06-.74l.63-1a7.77,7.77,0,0,0,1.49-3.61,28,28,0,0,0,.42-5,24.24,24.24,0,0,0-.63-5.41,33.78,33.78,0,0,0-1.49-4.88c-1.13-2.54-2.47-4-4-4.24S783.32,729.32,781.77,733.42Z" transform="translate(-493.25 -14.47)" style="fill:#ca1573"/><path d="M857.48,752.72a15,15,0,0,0-.21-7.53,67.1,67.1,0,0,1-1.69-7.53,36.36,36.36,0,0,1-.32-8.38c.21-2.76.38-5.55.53-8.38.14-3.25.14-6.39,0-9.44a50.25,50.25,0,0,1,.42-9.22,55.86,55.86,0,0,1,1.27-7,20.25,20.25,0,0,0,.43-7.21,48.74,48.74,0,0,1-.11-8.49q.32-3.81,4.35-6.57c.71-.57,1.59-1.34,2.65-2.34a9.54,9.54,0,0,1,2.65-1.9,7.51,7.51,0,0,1,4.88-.11,34.25,34.25,0,0,0,5.09,1c1.7.15,3.22.22,4.56.22a10.56,10.56,0,0,0,4.35-1.06c2.83-1.13,5.65-2.3,8.48-3.5a18.28,18.28,0,0,1,8.91-1.38,8,8,0,0,1,6.68,3.92,18.51,18.51,0,0,1,2.33,8.06,37.42,37.42,0,0,1-.53,9.33c-.56,3.18-1.06,5.7-1.48,7.53a19.79,19.79,0,0,1-1.38,4.24,19.5,19.5,0,0,0-1.38,4.25,7.53,7.53,0,0,0,.32,5q1,1.8,2.65,4.35a10.72,10.72,0,0,1,1.91,5,21.14,21.14,0,0,1-.11,4.78c-.21,1.55-.42,3.18-.63,4.87a15.07,15.07,0,0,0,.32,5.31q.63,3.39,1.16,6a25.05,25.05,0,0,1,.32,6.26,29.57,29.57,0,0,0,0,5q.21,2.44.21,4.77a16.33,16.33,0,0,1-.63,4.67,15.2,15.2,0,0,0-.64,4.45,6.47,6.47,0,0,0,2.55,5.52q2.54,1.9,5.93.21a24.69,24.69,0,0,0,5.09-3.18,12,12,0,0,0,3-5.09,51.42,51.42,0,0,0,1.7-5.09,13.19,13.19,0,0,0,.21-5.3c-.28-2.13-.53-4.21-.74-6.26a26.29,26.29,0,0,1,.11-6.26,49.11,49.11,0,0,0,.21-7.74c-.14-2.33-.43-4.91-.85-7.74-.28-2-.5-3.64-.64-5a38.11,38.11,0,0,1-.21-3.93,18.52,18.52,0,0,1,.43-3.92c.28-1.34.63-2.94,1.06-4.77a20.9,20.9,0,0,0,.74-6.37,65.68,65.68,0,0,0-.53-6.57,25.31,25.31,0,0,0-1.59-6.26,9,9,0,0,1-.11-6.26,13.51,13.51,0,0,1,2.55-4.77,9.23,9.23,0,0,1,4.45-2.86c1.13-.28,2.15-.56,3.08-.85a10.45,10.45,0,0,1,3.07-.42,8.08,8.08,0,0,1,3.61.95,16.23,16.23,0,0,0,3.81,1.38,16.8,16.8,0,0,0,7.64-.53,23.65,23.65,0,0,1,7.85-1,7.29,7.29,0,0,1,4.13,1.38,7.77,7.77,0,0,1,2.12,2.87,18,18,0,0,1,1.17,3.92,43.82,43.82,0,0,0,1.06,4.35A36.3,36.3,0,0,1,975.3,688q.53,3,1,6.15c.56,4,1.06,7.28,1.48,10a45.88,45.88,0,0,0,3,9.75,30.91,30.91,0,0,1,2,12.62c-.22,4.32-.32,8.66-.32,13.05q0,2.32.21,5a19.37,19.37,0,0,1-.21,5v.22a40.71,40.71,0,0,1-1.59,7.74,19.71,19.71,0,0,0-.75,8c.29,2.27.46,4.49.54,6.68s0,4.49-.11,6.9a87,87,0,0,1-7.42,30.75,16.24,16.24,0,0,1-4.56,5.94c-2.06,1.69-4,3.32-5.84,4.88a28.11,28.11,0,0,1-2.12,1.91,4.39,4.39,0,0,0-1.48,2.33,6,6,0,0,0-.43,3.18,8,8,0,0,1-.21,3.18,4.77,4.77,0,0,1-1.8,2.44,14.44,14.44,0,0,1-2.55,1.27c-.92.35-1.84.74-2.75,1.17a5.17,5.17,0,0,0-2.23,1.91q-1.27,1.69-1.38,5.62t-.11,7.95a25.87,25.87,0,0,1-.84,7q-.85,3-3.61,3a4,4,0,0,1-3.61-1.59,8.08,8.08,0,0,1-1.27-3.71,14.38,14.38,0,0,1,.21-4.24,31.43,31.43,0,0,1,.85-3.4,16.6,16.6,0,0,0,.53-9,18.44,18.44,0,0,0-3.71-8.38,29.71,29.71,0,0,1-2.33-3.61,10.06,10.06,0,0,1-1.27-4c-.15-.85-.32-1.74-.53-2.66a7.29,7.29,0,0,0-1-2.33,2.22,2.22,0,0,0-1.7-1.06,4.35,4.35,0,0,0-2.75,1.17,7.41,7.41,0,0,0-2.76,3.92,20.82,20.82,0,0,0-1.27,4.77,33.08,33.08,0,0,0,.1,8,27.54,27.54,0,0,1-.1,7.95q-1.07,7.43-2.55,15.06A60.67,60.67,0,0,0,919,873.4c.14,1.41.28,2.68.43,3.81a33.54,33.54,0,0,1,.21,3.82,3.63,3.63,0,0,1-2.34,3.71q-2.32,1-4.24-1.37a10,10,0,0,1-2.33-5.94,32.07,32.07,0,0,1,.42-7.21c.43-2.55.85-5.06,1.28-7.53a28.34,28.34,0,0,0,.42-6.68c-.28-2.13-.64-4.21-1.06-6.26s-.78-4.07-1.06-6a23.7,23.7,0,0,0-1.06-5,10.2,10.2,0,0,1-.43-5c.14-.71.36-2,.64-3.82a23.51,23.51,0,0,0,.21-5.41,8.75,8.75,0,0,0-1.38-4.35q-1.16-1.7-3.92-.85a5.54,5.54,0,0,0-2.23,2.12,15.45,15.45,0,0,0-1.59,2.76,7.17,7.17,0,0,0-.31,3.71,6,6,0,0,1-.54,3.72,36.18,36.18,0,0,1-2.75,4.55,10.57,10.57,0,0,0-1.49,5,51.28,51.28,0,0,1-.85,6.89,35.41,35.41,0,0,0-.63,6.68c0,.57,0,1.63-.11,3.18a22.83,22.83,0,0,1-.63,4.46,7.08,7.08,0,0,1-1.7,3.29c-.78.77-1.8.6-3.08-.53a3.91,3.91,0,0,1-1.27-2.76,25.38,25.38,0,0,1-.1-4.14c.06-1.48.17-2.93.31-4.35a13.53,13.53,0,0,0,0-3.39c-.28-1.13-.6-2.23-.95-3.29a12,12,0,0,0-1.59-3.07,19.08,19.08,0,0,0-2.33-2.34,6.6,6.6,0,0,1-1.91-2.54,11,11,0,0,1-.64-3.5c0-1.06,0-2.12.11-3.18s.1-2.16.1-3.29a9.67,9.67,0,0,0-.63-3.39,15.59,15.59,0,0,0-3.61-5.94,59.89,59.89,0,0,1-4.67-5.3,16.1,16.1,0,0,1-2-3.5,37.94,37.94,0,0,0-1.8-3.71c-1.14-2-2.3-4-3.5-6.05a25.64,25.64,0,0,1-2.65-6,42,42,0,0,1-.85-5.73,45.66,45.66,0,0,0-.85-5.73q-1.06-5.29-2.33-10.5a65.72,65.72,0,0,1-1.7-10.71,15.37,15.37,0,0,1,.32-5Q856.84,755.69,857.48,752.72Z" transform="translate(-493.25 -14.47)" style="fill:#ca1573"/><path d="M988.77,732.14a91.19,91.19,0,0,1,1.17-14.63,53.48,53.48,0,0,0,.31-14.64q-.42-4.46-.84-8.8t-.43-9a69.12,69.12,0,0,1,1.17-12.94q1.15-6.15,7.1-11a14.83,14.83,0,0,1,8.28-3.39,49.61,49.61,0,0,1,9.12,0,20.11,20.11,0,0,1,4.34.85,13.76,13.76,0,0,0,4.14.63,29.19,29.19,0,0,0,5-.42,28.21,28.21,0,0,1,4.78-.43,4.85,4.85,0,0,1,5.09,4q.84,3.4,1.8,7a56.08,56.08,0,0,1,1.38,6.79,21.72,21.72,0,0,1-.53,7.64,26.33,26.33,0,0,0-.75,7.84c.29,3.54,1.24,5.41,2.87,5.62s3.42-.81,5.41-3.07a47.76,47.76,0,0,0,5.93-7.74q2.55-4.14,5.52-8.17a26.46,26.46,0,0,1,5.83-5.73c2.34-1.69,4.49-3.39,6.47-5.09q3.39-3,7-5.62a17.47,17.47,0,0,1,7.85-3.28,19.05,19.05,0,0,1,7,0,65,65,0,0,1,6.78,1.9q4.67,1.5,10.5,3.29a17.28,17.28,0,0,1,9,6,5.94,5.94,0,0,1,1.27,3.6,23.35,23.35,0,0,1-.32,3.82,28.93,28.93,0,0,1-1,3.92,12.91,12.91,0,0,0-.64,3.93,33.59,33.59,0,0,0,.32,7.1q.52,3.51,1.27,7c.49,2.34,1,4.7,1.38,7.11a41.82,41.82,0,0,1,.64,7.21,29.72,29.72,0,0,1-.32,4.56,4.08,4.08,0,0,1-2.44,3.07,2.73,2.73,0,0,1-2.44.43,6.37,6.37,0,0,1-1.91-1.38c-.64-.64-1.27-1.34-1.91-2.12a4.77,4.77,0,0,0-2.23-1.59,10.64,10.64,0,0,0-5.4-.32,16.77,16.77,0,0,0-5.41,2,25.09,25.09,0,0,0-4.67,3.5,27.61,27.61,0,0,0-3.6,4.14q-1.28,1.9-3.5,4.77a12.53,12.53,0,0,0-2.66,5.2c-.14,1.27-.28,2.69-.42,4.24a17.44,17.44,0,0,0,.21,4.67,5.67,5.67,0,0,0,1.17,3.07,26.67,26.67,0,0,1,2,2.86,41.24,41.24,0,0,1,3.72,7.11,68.57,68.57,0,0,0,3.28,7.1c1.13,2,2.37,4.21,3.72,6.69a22.78,22.78,0,0,0,4.56,6,10.88,10.88,0,0,0,3.07,2.23,19.39,19.39,0,0,0,3.18,1.16,30.39,30.39,0,0,1,3.18,1.06,15.32,15.32,0,0,1,3.08,1.7,12.22,12.22,0,0,1,4.35,6.58,30.82,30.82,0,0,1,.95,7.42,41.71,41.71,0,0,0,.53,6.36q.52,3.4,1.17,6.37a24.78,24.78,0,0,0,2.23,6.36,16.91,16.91,0,0,1,1.8,6.57,9.84,9.84,0,0,1-.64,3.71,24.23,24.23,0,0,1-1.48,3.08c-.57,1-1.17,2-1.81,3.08a8.58,8.58,0,0,0-1.16,3.5A13.74,13.74,0,0,0,1123,841a14.42,14.42,0,0,1-.22,4.24,10.25,10.25,0,0,1-1.38,3.6,10.5,10.5,0,0,0-1.37,3.61,18.92,18.92,0,0,0,0,5.73q.42,3.18.74,6.25a18.47,18.47,0,0,1-.21,5.62,5.38,5.38,0,0,1-3.08,3.82c-2.69,1.13-4.31.64-4.88-1.48a22.22,22.22,0,0,1-.63-7,38.17,38.17,0,0,0,.21-6.79,11.92,11.92,0,0,0-2.55-6.15c-.71-1-1.31-1.88-1.8-2.65a15.59,15.59,0,0,1-1.38-2.86c-.42-1.14-.74-2.06-1-2.76s-1.1-.71-2.65,0a6,6,0,0,0-2.23,2,12.61,12.61,0,0,1-1.91,2.23,3,3,0,0,1-2,.85c-.71,0-1.49-.78-2.34-2.33a12.29,12.29,0,0,1-1.38-3.08,20.65,20.65,0,0,0-1.8-4,6.51,6.51,0,0,0-2.44-2.54q-1.38-.75-3.28,1.37c-2,2.13-3.82,3.32-5.52,3.61s-3.54-.92-5.51-3.61a13.12,13.12,0,0,1-2.44-7.21c-.08-2.54-.18-5.16-.32-7.84a23.49,23.49,0,0,0-1.7-8.17,30.62,30.62,0,0,0-3.71-6.47c-1.48-2-3.08-4-4.77-6a50.61,50.61,0,0,1-4.67-6.68,19.13,19.13,0,0,0-1.69-2.55,9.52,9.52,0,0,0-4-3.29A8.33,8.33,0,0,0,1046,790a4.22,4.22,0,0,0-3.82,3.82,24.33,24.33,0,0,0,.21,7.11c.42,2.61.85,5.23,1.27,7.84a12.76,12.76,0,0,1-.21,6.26,11.83,11.83,0,0,1-5.62,5.83q-3.93,2-7.74,3.82a24,24,0,0,0-6.47,4.35q-2.65,2.55-1.59,7.21a47.88,47.88,0,0,1,1.06,7.74,53.77,53.77,0,0,1-.21,8.17c-.15,1.27-.29,2.47-.43,3.6a29.37,29.37,0,0,1-.63,3.4,19.9,19.9,0,0,0-.64,3.6,4.56,4.56,0,0,1-1.48,3.18c-1.56,1.28-2.76,1.66-3.61,1.17a4.61,4.61,0,0,1-1.91-2.54,17.19,17.19,0,0,1-.85-4c-.14-1.49-.21-2.59-.21-3.29a41.24,41.24,0,0,0-1.59-8.06c-.78-2.55-1.45-5.23-2-8.06a55.9,55.9,0,0,1-.95-6.26,9.51,9.51,0,0,0-2.44-5.62,11.37,11.37,0,0,0-5.41-3.6,27.74,27.74,0,0,1-6-2.76,15.51,15.51,0,0,1-7-7.95,37.19,37.19,0,0,1-2.33-10.5,162,162,0,0,1,.21-22.06q.84-10.81,1.91-21.63.63-7.42,1-14.32T988.77,732.14Z" transform="translate(-493.25 -14.47)" style="fill:#ca1573"/><path d="M1131.93,757q.42-4,1-8.17a48.65,48.65,0,0,0,.32-8.38c-.15-2.26-.36-4.48-.64-6.68a49.16,49.16,0,0,1-.43-6.47c0-1.55,0-3.1-.1-4.66a22.82,22.82,0,0,1,.32-4.88,118.69,118.69,0,0,1,2.12-14,31,31,0,0,0,.74-9.22,85.18,85.18,0,0,1-.11-9.44,12.8,12.8,0,0,1,2.76-8.06,16.94,16.94,0,0,1,7-4.67c2.4-1,4.74-2,7-3.07a19.55,19.55,0,0,1,7.21-1.81,53.92,53.92,0,0,1,7.53.11,38,38,0,0,0,7.53-.11q3.6-.42,7.32-1.16a37.86,37.86,0,0,1,7.53-.75q4.23,0,8.27.11a22.21,22.21,0,0,1,8.06,1.8,27.35,27.35,0,0,0,5.83,1.7,32.06,32.06,0,0,0,5.2.42c1.69,0,3.46-.07,5.3-.21s3.89-.21,6.15-.21a21.67,21.67,0,0,1,11.35,2.86,22.61,22.61,0,0,1,7.63,7.43,25.25,25.25,0,0,1,3.61,10.28,34.39,34.39,0,0,1-.53,11.67,16.1,16.1,0,0,1-2.23,5.19,11.2,11.2,0,0,0-1.8,5.41,54.36,54.36,0,0,0-.53,5.94,7.46,7.46,0,0,1-2.65,5.3,6.37,6.37,0,0,1-5.41,1.91,6.81,6.81,0,0,1-4.77-3.39,41.26,41.26,0,0,0-3.4-4.45,24.71,24.71,0,0,0-4.45-3.82,11.82,11.82,0,0,0-5.3-2.33,21.11,21.11,0,0,0-5.62-.11,44.69,44.69,0,0,0-5.84,1.06c-2,.5-3.89.88-5.72,1.17a8.47,8.47,0,0,1-2.66,0l-2.86-.43a19.79,19.79,0,0,0-2.76-.21,4.42,4.42,0,0,0-2.33.64,4.09,4.09,0,0,0-1.7,2.12,5.63,5.63,0,0,0-.21,2.65,7.37,7.37,0,0,0,1,2.65,9.85,9.85,0,0,0,1.59,2.12,14,14,0,0,0,5.94,3.39,28.63,28.63,0,0,0,6.57,1q3.39.11,6.89,0a31.77,31.77,0,0,1,6.9.53,8.19,8.19,0,0,1,6.36,3.92,19.89,19.89,0,0,1,2.44,7.53,40.92,40.92,0,0,1,.11,8.8q-.44,4.57-.43,8c0,2.26.07,4.74.21,7.42a7.94,7.94,0,0,1-2.12,6.36q-2.11,2.13-3.92,2a5.83,5.83,0,0,1-3.29-1.27,19.8,19.8,0,0,1-3-3,16.14,16.14,0,0,0-3-2.87,13,13,0,0,0-3.29-1.48,19.92,19.92,0,0,0-4.24-.85,12.16,12.16,0,0,0-4.24.32,7.07,7.07,0,0,0-3.29,1.8,6.19,6.19,0,0,0-1.48,3.39,11.7,11.7,0,0,0,.21,3.82,9.19,9.19,0,0,0,1.59,3.5,9.88,9.88,0,0,0,2.44,2.44,19.42,19.42,0,0,0,8.17,2.55,28.48,28.48,0,0,1,8.16,1.9,34.53,34.53,0,0,0,11.56,2.13q6.69.21,12,.21,9.76,0,9.76,9.54c0,3,.07,6.3.21,10a96.69,96.69,0,0,1-.21,11,51.8,51.8,0,0,1-1.91,10.6,18.57,18.57,0,0,1-5.09,8.49,16.81,16.81,0,0,1-3.82,2.86,38.81,38.81,0,0,1-4.24,2,12,12,0,0,1-3.5.74,7.92,7.92,0,0,0-3.07.74q-4.24,1.91-9.12,4.45a30.58,30.58,0,0,0-8.27,6.16,10.21,10.21,0,0,0-2.76,5.83,17.34,17.34,0,0,1-1.7,6,15.31,15.31,0,0,1-4.45,5.2,42.08,42.08,0,0,0-5.09,4.35,11.29,11.29,0,0,0-2.34,3.07,8.28,8.28,0,0,0-.74,2.87,14.12,14.12,0,0,0,.11,3c.14,1,.35,2.19.63,3.6a45.78,45.78,0,0,1,.22,4.88,18.51,18.51,0,0,1-.85,5.62,7.65,7.65,0,0,1-2.55,3.92q-1.7,1.28-4.66-.42a4.57,4.57,0,0,1-2.34-2.65,13.51,13.51,0,0,1-.74-3.71,18.73,18.73,0,0,1,.21-3.93c.22-1.34.39-2.51.53-3.5a67.42,67.42,0,0,0,1-12.62,109.61,109.61,0,0,0-1-12.83q-.42-3-1.06-6.15a32.65,32.65,0,0,1-.63-6.36,17.58,17.58,0,0,1,.74-4.77,5.86,5.86,0,0,0-.32-4.56,6,6,0,0,0-2.65-2.66,14.64,14.64,0,0,0-3.82-1.37,25.86,25.86,0,0,0-4.24-.53c-1.48-.08-2.72-.11-3.71-.11q-.85,0-1.38,1.38a24.89,24.89,0,0,0-.95,3.18,32.65,32.65,0,0,0-.64,3.39,20.08,20.08,0,0,0-.21,2.23,40,40,0,0,0,.31,5.3,15.34,15.34,0,0,1-.31,5.3,45.88,45.88,0,0,1-1.7,5.62,20.93,20.93,0,0,0-1.27,5.84v3.71a32.46,32.46,0,0,1-.21,3.71,7,7,0,0,1-1.06,3,3.58,3.58,0,0,1-2.76,1.48c-2,.29-3.39-.28-4.24-1.69a12.49,12.49,0,0,1-1.59-5.2,28.74,28.74,0,0,1,0-6.15c.21-2,.38-3.64.53-4.77a84.17,84.17,0,0,0,.31-9.23,38.05,38.05,0,0,0-1.37-9,10.92,10.92,0,0,0-2.66-5,22.85,22.85,0,0,0-4.77-3.5q-3-1.7-5.72-3.07a10.15,10.15,0,0,1-4.46-4.77,27.18,27.18,0,0,1-3-12.3,95.4,95.4,0,0,1,.85-12.73q.84-6.57,1.06-13.57a68.51,68.51,0,0,0-.85-13.37,30.66,30.66,0,0,1-.63-7.84C1131.44,762.61,1131.65,759.93,1131.93,757Z" transform="translate(-493.25 -14.47)" style="fill:#ca1573"/><path d="M1138.28,883.33l-.06-1a79.57,79.57,0,0,0-3.8-17.11l-.15.16c-.06-.11-.12-.23-.19-.34l-.13.23c0,.12,0,.23,0,.34a40.81,40.81,0,0,1-8.8,23.78,24.52,24.52,0,0,1-8.36,7.07,13.84,13.84,0,0,1-10.71.78,7.68,7.68,0,0,1-3.38-2.35,9.3,9.3,0,0,1-1.5-3.49,31.5,31.5,0,0,1,.68-16.92c1.49-4.87,4.15-9.62,8.45-12.36,4.12-2.62,9.92-2.92,13.72.07a3,3,0,0,1,.32.12c-1.85-3.11-5.51-4.86-9.13-5.12a24.35,24.35,0,0,0-10.9,2.29c-4.47,1.87-8.87,4.45-11.46,8.55A28.31,28.31,0,0,0,1090,875q-1.6,5.22-3,10.49l.47.39c-1.33,8.83-4,17.38-6.68,25.9a43.42,43.42,0,0,1-4,9.9,34.36,34.36,0,0,1-5.67,6.66c-5.08,4.85-10.87,9.09-17.45,11.53s-14,3-20.61.57a11.68,11.68,0,0,1-3.54-1.91,11.11,11.11,0,0,1-2.7-3.69,26.53,26.53,0,0,1-2.32-12.36,41.16,41.16,0,0,1,9.68-25.35c2.83-3.33,6.43-6.32,10.73-7.06a6.84,6.84,0,0,1,4.22.4c1.73.86,2.76,2.68,3.54,4.46a37.41,37.41,0,0,1,3.11,17.31,6.73,6.73,0,0,0,.6.72v.24a1.76,1.76,0,0,0,.79-1.59c0-.12,0-.24,0-.36.13-4.77.24-9.65-1.16-14.22l.1-.26a71,71,0,0,0-2-9.24,10.69,10.69,0,0,0-1.82-4c-1.77-2.12-4.91-2.69-7.59-2a18.17,18.17,0,0,0-7.09,4.15,70.29,70.29,0,0,0-9.45,9.91c-5.3,6.73-9.66,14.43-16.52,19.55-6.49,4.86-14.72,6.94-22.82,7.3s-16.17-.89-24.18-2.15l-.07.3a6.65,6.65,0,0,1-5.55-2.73A14.94,14.94,0,0,1,956.5,912a43.75,43.75,0,0,1,3.69-30.47,27.29,27.29,0,0,1,7-8.94,19.74,19.74,0,0,1,25.94,1.32c-1.76-5.45-6.74-9.23-11.57-12.36a21.16,21.16,0,0,0-5.77-2.91,18.9,18.9,0,0,0-7.75-.12,56.89,56.89,0,0,0-23.17,8.86l0,.16c-4.69,4.78-9.48,9.62-15.41,12.73a56.62,56.62,0,0,1-10,3.83c-4.4,1.33-9,2.55-13.55,1.82-5.61-.91-10.48-4.84-13.28-9.79a29.77,29.77,0,0,1-3.32-16.5c.44-6.87,2.84-13.91,8-18.46s13-5.85,18.6-2.23a14,14,0,0,0-7.33-9.06,25.69,25.69,0,0,0-12.21-2.53,46,46,0,0,0-36.89,19.5l-.17.47c-6.74,8.29-11.93,17.73-18.28,26.32s-14.2,16.59-24.22,20.3l-.16-.27a95.21,95.21,0,0,1-15,3,3.5,3.5,0,0,1-2.87-.58,33.08,33.08,0,0,0,5.47,14.9l-.29.79C813.46,923.1,825.67,932,838.71,939s27.14,12.42,41.2,17.45l0-.13c5.95,3.23,12.81,4.3,19.51,5.31,14.95,2.26,29.94,4.52,45,5.41v.07c26.42-.32,52.94.6,79.16-2.63,4.53-.57,9.34-1.38,12.85-4.22l0,.19a336.72,336.72,0,0,0,83.14-50l.27-.3a105.16,105.16,0,0,0,16.86-14.45,6.86,6.86,0,0,0,2.3-6.9C1138.94,887,1138.65,885.16,1138.28,883.33Z" transform="translate(-493.25 -14.47)" style="fill:#df0045"/><path d="M1087,885.44q1.38-5.28,3-10.49a28.31,28.31,0,0,1,2.86-6.91c2.59-4.1,7-6.68,11.46-8.55a24.35,24.35,0,0,1,10.9-2.29c3.62.26,7.28,2,9.13,5.12a5.8,5.8,0,0,1,.88.4l0-.16a16,16,0,0,0-14.83-9.74,22.08,22.08,0,0,0-6.17,1.17,37.71,37.71,0,0,0-16.82,11.15l.13.35c-4.46,5.16-5,12.51-5.66,19.3-.81,8.36-2.12,16.76-5.31,24.52s-8.44,14.91-15.7,19.13a34.58,34.58,0,0,1-13.68,4.35c-4.7.51-10-.06-13.15-3.59a12.34,12.34,0,0,1-2.66-9.19,36.64,36.64,0,0,1,2.46-9.5c.89-2.49,1.79-5,2.68-7.49.68-1.9,1.41-3.87,2.93-5.2,2.3-2,5.71-1.93,8.71-1.43a6.13,6.13,0,0,1,2.62.88,5.89,5.89,0,0,1,2,3.75c.79,3.81.75,8.1,3,11.17a37.41,37.41,0,0,0-3.11-17.31c-.78-1.78-1.81-3.6-3.54-4.46a6.84,6.84,0,0,0-4.22-.4c-4.3.74-7.9,3.73-10.73,7.06a41.16,41.16,0,0,0-9.68,25.35,26.53,26.53,0,0,0,2.32,12.36,11.11,11.11,0,0,0,2.7,3.69,11.68,11.68,0,0,0,3.54,1.91c6.6,2.42,14,1.88,20.61-.57s12.37-6.68,17.45-11.53a34.36,34.36,0,0,0,5.67-6.66,43.42,43.42,0,0,0,4-9.9c2.67-8.52,5.35-17.07,6.68-25.9Z" transform="translate(-493.25 -14.47)" style="fill:#f9b233"/><path d="M1066.11,883.37a5.12,5.12,0,0,1-3.63-.59c-2-1.15-2.91-3.4-3.62-5.61l-.07.07a95.45,95.45,0,0,0-9.85-19.47,45.68,45.68,0,0,0-4.93-6.39,69.1,69.1,0,0,0-9.17-7.52,202.64,202.64,0,0,1-19.27-16.32l.12-.61c11.59,5,23.48,10.12,32.41,19,9.86,9.82,15.19,23.39,18,37ZM897.65,629.9v-.36a6.64,6.64,0,0,0,1.94-2.21,19.2,19.2,0,0,0,2-6.91,76.8,76.8,0,0,0,.4-7.76c-.51-4.08-2.45-7.29-4.64-8.85s-4.84-1.71-7.31-1.52a6.51,6.51,0,0,0-3.89,1.31c-2,1.65-3.18,5.17-4.16,8.61-1.46,5.09-2.63,11.4-1,16.29a13.54,13.54,0,0,0,3.81,5.61,45.21,45.21,0,0,0,5.62,4.66c2.64,1.82,5.4,3.26,7.79,5.94a19.56,19.56,0,0,1,4.64,12,24.21,24.21,0,0,1-1.82,10,36.47,36.47,0,0,1-4.33,7.41c-2.37,3.31-4.94,6.54-7.89,7.56A28.17,28.17,0,0,0,894.26,669a29.07,29.07,0,0,0-2.59-15.7A35.68,35.68,0,0,0,884,643.29a30.12,30.12,0,0,1-4.3-4.91c-3-4.52-4.5-11.56-4.61-18.49a67.13,67.13,0,0,1,3-19.93,13.59,13.59,0,0,1,2-4.59,5.48,5.48,0,0,1,3.22-1.73c2.47-.61,5-1.09,7.44-1.47,3.22-.48,6.52-.77,9.61.94s5.94,5.75,6.73,11.31c.12.87.19,1.76.27,2.65.19,2.43.39,4.87.59,7.3s.4,5,.35,7.55a13.25,13.25,0,0,1-.56,4,5.38,5.38,0,0,1-2.57,3C902.76,630.28,900.18,630.09,897.65,629.9Zm150,5.26a73.91,73.91,0,0,1-.18,8.15h-.09c-.14,5-.4,10.15-2.73,14.56-2.68,5.07-7.67,8.41-11.84,12.35a47.43,47.43,0,0,0-9.06,11.83l-.06-.12c-11.22,15.26-29.25,25.05-38.19,41.75l-.43.1c-6.78,5.84-9.26,15.11-11.39,23.8-1.24,5-2.47,10.36-1,15.35a3.15,3.15,0,0,1,.06,2.6c-.5.75-2.1.29-1.72-.53l.09-.61a19.94,19.94,0,0,1-2.22-7.79,51.56,51.56,0,0,1,11.59-38.46l-.17-.45a104.9,104.9,0,0,1,31.9-36.28l.33-.11q13.53-13.81,26.7-28c3.81-5.55,7.56-11.47,8.39-18.16ZM924.75,546.88c2.52-.19,5.11-.38,7.52,1a5.33,5.33,0,0,1,2.56,3,12.94,12.94,0,0,1,.57,4c.05,2.53-.15,5-.35,7.55s-.39,4.86-.59,7.3c-.07.89-.15,1.78-.27,2.65-.79,5.56-3.65,9.62-6.73,11.31s-6.39,1.42-9.61.94c-2.48-.38-5-.87-7.44-1.47a5.49,5.49,0,0,1-3.21-1.73,13.4,13.4,0,0,1-2-4.59,67.11,67.11,0,0,1-2.95-19.92c.11-6.95,1.65-14,4.61-18.5a30.61,30.61,0,0,1,4.3-4.91,35.41,35.41,0,0,0,7.64-10.06,28.93,28.93,0,0,0,2.59-15.69A28.11,28.11,0,0,0,916,495.15c2.94,1,5.51,4.25,7.88,7.56a36.47,36.47,0,0,1,4.33,7.41,24,24,0,0,1,1.82,10,19.51,19.51,0,0,1-4.64,12c-2.39,2.69-5.15,4.13-7.79,6a44.42,44.42,0,0,0-5.63,4.66,13.72,13.72,0,0,0-3.8,5.6c-1.66,4.9-.49,11.21,1,16.3,1,3.44,2.2,7,4.16,8.61a6.36,6.36,0,0,0,3.88,1.3c2.48.21,5,.12,7.32-1.51s4.14-4.78,4.63-8.84a69,69,0,0,0-.4-7.77,19,19,0,0,0-2-6.91,6.74,6.74,0,0,0-1.94-2.21Zm46.89-6.24h.06a4.83,4.83,0,0,1,2.38,3.26,14.35,14.35,0,0,1,.19,4.14l-1,20.58a197.41,197.41,0,0,0-11.8,39.84l0,1.66a432.7,432.7,0,0,1-16.08,42.5l.2.28a485.27,485.27,0,0,1-28.12,57.22l.12.24L893.79,749l-.18.35-20.15,17.23a11.53,11.53,0,0,1-2.94,2,11.06,11.06,0,0,1-4.47.59,148.83,148.83,0,0,1-15.65-.92c-.07.21-.16.42-.25.62l.11.14c1.28,3.58-1.31,7.27-3.59,10.3a113,113,0,0,0-15.91,29.38l.15.27-2.63,4.69q-1.14,2.05-2.29,4.11c-4.15,7.44-8.33,14.91-11.34,22.88h-.14c-6,16.68-11.43,33.67-13.52,51.26a4.56,4.56,0,0,1-.73,2,105.52,105.52,0,0,0,42.13-42.26l.07.12c6.5-9.21,14.64-17.4,24.44-23s21.32-8.41,32.49-6.92a27.67,27.67,0,0,1,8,2.17,20.49,20.49,0,0,1,11.37,20.71l-.06,0a8.25,8.25,0,0,0-2.56-3.92,8.71,8.71,0,0,0-7.54-2,13.06,13.06,0,0,0-4.39,2.09,19.18,19.18,0,0,0-7,8c-1.39,3.24-1.54,6.87-1.51,10.4,0,3.74.27,7.6,2,10.92,2.85,5.48,9.24,8.3,15.39,8.93a20.48,20.48,0,0,0,9.83-1.11,25.46,25.46,0,0,0,6.75-4.53c5.24-4.52,10-9.63,15.49-13.82s12.08-7.44,19-7.45l0,.18c8.24-2.12,17.26.87,23.8,6.35a18.25,18.25,0,0,1,6.85,11.3,34.65,34.65,0,0,1,.44,12.39l-.28-.12-4.62-6.4a13.5,13.5,0,0,0-3.06-3.37c-2.4-1.67-5.61-1.64-8.45-1a22,22,0,0,0-6.75,39.9,31.35,31.35,0,0,0,10.83,4,28,28,0,0,0,11.45.22c4.76-1,8.91-3.87,12.89-6.7,4.89-3.46,9.76-7,13.72-11.55,2.24-2.54,4.17-5.36,6.21-8.07a114.78,114.78,0,0,1,9-10.65c2.42-2.51,5.38-5.08,8.85-4.84l.24-.12a25.5,25.5,0,0,1,11.84,37.73,1.76,1.76,0,0,1-.79,1.59v-.24a6.73,6.73,0,0,1-.6-.72c-2.24-3.07-2.2-7.36-3-11.17a5.89,5.89,0,0,0-2-3.75,6.13,6.13,0,0,0-2.62-.88c-3-.5-6.41-.56-8.71,1.43-1.52,1.33-2.25,3.3-2.93,5.2-.89,2.5-1.79,5-2.68,7.49a36.64,36.64,0,0,0-2.46,9.5,12.34,12.34,0,0,0,2.66,9.19c3.15,3.53,8.45,4.1,13.15,3.59a34.58,34.58,0,0,0,13.68-4.35c7.26-4.22,12.5-11.36,15.7-19.13s4.5-16.16,5.31-24.52c.65-6.79,1.2-14.14,5.66-19.3l-.13-.35A37.71,37.71,0,0,1,1104.27,854a22.08,22.08,0,0,1,6.17-1.17,16,16,0,0,1,14.83,9.74l0,.16a5.8,5.8,0,0,0-.88-.4l.17.3-.49-.42c-4.37-1.47-9.61.48-12.69,4-3.44,3.95-4.65,9.38-4.89,14.6-.18,3.94.51,8.56,4,10.48s8.11-.16,11.16-2.92a29.08,29.08,0,0,0,8.8-15.26c.6-2.77,1-6,3.42-7.52h.14c0-.11,0-.22,0-.34l.13-.23a59,59,0,0,0-7.76-11.34c-2.85-3-6.29-5.45-9.18-8.45s-5.28-6.8-5.26-11l.1-.91c-2.17-2.28-4.55-4.4-6.91-6.49-4.38-3.88-8.77-7.78-13.31-11.48l-.22.86c-5.93-.26-11.26-3.54-16-7-4.61-3.39-9.11-7.16-14.48-9.11v-.06l-9.32-3.8c-1.36-.56-2.72-1.11-4-1.76-4.3-2.08-8.13-5-12.45-7.09-3.35-1.58-6.93-2.6-10.37-3.95a42.49,42.49,0,0,1-15.45-10.11A29.1,29.1,0,0,1,1001.5,757l-.1,0c-3.48-7.19-2.89-15.82-.14-23.31s7.46-14.09,12.16-20.54l-.31-.83a150.46,150.46,0,0,0,11-14.7q1.7-2.58,3.28-5.23c3.46-5.77,6.57-11.82,11-16.9a83.63,83.63,0,0,1,9.74-9.07l9.23-7.71c1.84-1.55,4.09-3.19,6.41-2.81l.54-.35.55-.17c-2.66-26.17-12.73-51.49-16.81-77.66-3.75-24.15-2.36-48.77-1-73.17l-.24,0q-.35-32.32.66-64.65l-.32,0c-.19.11-.39.21-.59.31a15.52,15.52,0,0,1-12,.84l-.68.5a160.39,160.39,0,0,1-38.48-14.77,35.82,35.82,0,0,0-6.08-2.86c-5.38-1.68-11.18-.42-16.81-.56-6.74.8-13.45-1.68-20.25-1.93-8.09-.29-16.09,2.68-22.67,7.4s-11.8,11.12-16,18l-.12.2c-6.16,7.58-9.45,17.07-14.77,25.27l-.38.1a122.67,122.67,0,0,1-17.41,42.08l-.18.28c-2.66,6.27-5.76,12.37-8.43,18.64-6.44,15.13-10.36,31.18-14.25,47.15l-.17-.13a249.77,249.77,0,0,0-10,30.13c-3.24,12.33-5.53,24.89-7.67,37.46l0,0a27.93,27.93,0,0,0-.48,5.32,4.65,4.65,0,0,1-.5,2.54l.08.16c-3.6,5.14-4.56,11.62-5.43,17.84q-.82,5.88-1.64,11.77a10.27,10.27,0,0,1-1.1,3.89,79,79,0,0,1,.49-20c.52-3.46,1.37-7.06,3.76-9.61a10.81,10.81,0,0,0,2.35-2.76l0-.18a4.17,4.17,0,0,1-2.17.1,21.64,21.64,0,0,1-5.54-1.5,10.4,10.4,0,0,1-4.42-3.55l0-.13-.11-.11c0,.12,0,.23-.07.34-.13.57-.25,1.13-.37,1.69l.26.18c1.06,4.79-.55,9.71-1.83,14.43a112.49,112.49,0,0,0-3.92,29.43h-.24c.17,13.81.41,27.84,4.52,41a37.78,37.78,0,0,0,6.18,12.46,42,42,0,0,0,8.93,7.83,51.48,51.48,0,0,0,12.23,6.7c0-.06,0-.12.07-.18l.25-.1c6.44,1.24,13.46,2.41,19.3-.58a27.22,27.22,0,0,0,5.43-4,131.07,131.07,0,0,0,31.05-41.51l-.12-.28c13.21-16.46,19.6-37.2,28.68-56.27,5.07-10.63,11.09-21,14-32.39l-.1-.08c4.41-22.58,13.48-44,19.4-66.21l-.38-.26q1.08-7.12,2.17-14.27A37.3,37.3,0,0,0,971.64,540.64Z" transform="translate(-493.25 -14.47)" style="fill:#c68b7a"/><path d="M944.9,867.34a56.89,56.89,0,0,1,23.17-8.86,18.9,18.9,0,0,1,7.75.12,21.16,21.16,0,0,1,5.77,2.91c4.83,3.13,9.81,6.91,11.57,12.36a19.74,19.74,0,0,0-25.94-1.32,27.29,27.29,0,0,0-7,8.94A43.75,43.75,0,0,0,956.5,912a14.94,14.94,0,0,0,2.54,5.86,6.65,6.65,0,0,0,5.55,2.73l.07-.3c8,1.26,16.08,2.51,24.18,2.15s16.33-2.44,22.82-7.3c6.86-5.12,11.22-12.82,16.52-19.55a70.29,70.29,0,0,1,9.45-9.91,18.17,18.17,0,0,1,7.09-4.15c2.68-.66,5.82-.09,7.59,2a10.69,10.69,0,0,1,1.82,4,71,71,0,0,1,2,9.24l-.1.26c1.4,4.57,1.29,9.45,1.16,14.22,0,.12,0,.24,0,.36a25.5,25.5,0,0,0-11.84-37.73l-.24.12c-3.47-.24-6.43,2.33-8.85,4.84a114.78,114.78,0,0,0-9,10.65c-2,2.71-4,5.53-6.21,8.07-4,4.5-8.83,8.09-13.72,11.55-4,2.83-8.13,5.65-12.89,6.7a28,28,0,0,1-11.45-.22,31.35,31.35,0,0,1-10.83-4,22,22,0,0,1,6.75-39.9c2.84-.68,6-.71,8.45,1a13.5,13.5,0,0,1,3.06,3.37l4.62,6.4.28.12a34.65,34.65,0,0,0-.44-12.39,18.25,18.25,0,0,0-6.85-11.3c-6.54-5.48-15.56-8.47-23.8-6.35l0-.18c-6.92,0-13.47,3.27-19,7.45s-10.25,9.3-15.49,13.82a25.46,25.46,0,0,1-6.75,4.53,20.48,20.48,0,0,1-9.83,1.11c-6.15-.63-12.54-3.45-15.39-8.93-1.73-3.32-2-7.18-2-10.92,0-3.53.12-7.16,1.51-10.4a19.18,19.18,0,0,1,7-8,13.06,13.06,0,0,1,4.39-2.09,8.71,8.71,0,0,1,7.54,2l-.09-1.42c0-.19-.07-.38-.11-.57-5.6-3.62-13.57-2.22-18.6,2.23s-7.56,11.59-8,18.46a29.77,29.77,0,0,0,3.32,16.5c2.8,4.95,7.67,8.88,13.28,9.79,4.54.73,9.15-.49,13.55-1.82a56.62,56.62,0,0,0,10-3.83c5.93-3.11,10.72-8,15.41-12.73Z" transform="translate(-493.25 -14.47)" style="fill:#f9b233"/><path d="M1106.07,897.25a13.84,13.84,0,0,0,10.71-.78,24.52,24.52,0,0,0,8.36-7.07,40.81,40.81,0,0,0,8.8-23.78h-.14c-2.4,1.52-2.82,4.75-3.42,7.52a29.08,29.08,0,0,1-8.8,15.26c-3,2.76-7.57,4.91-11.16,2.92s-4.14-6.54-4-10.48c.24-5.22,1.45-10.65,4.89-14.6,3.08-3.55,8.32-5.5,12.69-4-3.8-3-9.6-2.69-13.72-.07-4.3,2.74-7,7.49-8.45,12.36a31.5,31.5,0,0,0-.68,16.92,9.3,9.3,0,0,0,1.5,3.49A7.68,7.68,0,0,0,1106.07,897.25Z" transform="translate(-493.25 -14.47)" style="fill:#f9b233"/><path d="M915.94,838.9c0,.19.07.38.11.57l.09,1.42a8.25,8.25,0,0,1,2.56,3.92l.06,0a20.49,20.49,0,0,0-11.37-20.71,27.67,27.67,0,0,0-8-2.17c-11.17-1.49-22.69,1.35-32.49,6.92s-17.94,13.76-24.44,23l-.07-.12a105.52,105.52,0,0,1-42.13,42.26,1.26,1.26,0,0,1-1.19.64l-.29.15-.14,0c0,.44.07.88.12,1.31a3.5,3.5,0,0,0,2.87.58,95.21,95.21,0,0,0,15-3l.16.27c10-3.71,17.88-11.7,24.22-20.3s11.54-18,18.28-26.32l.17-.47a46,46,0,0,1,36.89-19.5,25.69,25.69,0,0,1,12.21,2.53A14,14,0,0,1,915.94,838.9Z" transform="translate(-493.25 -14.47)" style="fill:#f9b233"/><path d="M799.07,894.55l1.19-.64a4.56,4.56,0,0,0,.73-2c2.09-17.59,7.56-34.58,13.52-51.26h.14c3-8,7.19-15.44,11.34-22.88q1.15-2.06,2.29-4.11l-.59-1-.21.2a226.47,226.47,0,0,0-27.86,68l.46.34a66,66,0,0,0-1.47,9.34,32.7,32.7,0,0,0,0,4.2l.14,0Z" transform="translate(-493.25 -14.47)"/><path d="M799.07,894.55a1.26,1.26,0,0,0,1.19-.64Z" transform="translate(-493.25 -14.47)" style="fill:#ebc2b0"/><path d="M1058.86,877.17c.71,2.21,1.65,4.46,3.62,5.61a5.12,5.12,0,0,0,3.63.59l0-.38c-2.8-13.64-8.13-27.21-18-37-8.93-8.91-20.82-14.07-32.41-19l-.12.61a202.64,202.64,0,0,0,19.27,16.32,69.1,69.1,0,0,1,9.17,7.52,45.68,45.68,0,0,1,4.93,6.39,95.45,95.45,0,0,1,9.85,19.47Z" transform="translate(-493.25 -14.47)"/><path d="M1117.11,839.94a39.09,39.09,0,0,0-5.13-6.55l-.1.91c0,4.16,2.38,8,5.26,11s6.33,5.42,9.18,8.45a59,59,0,0,1,7.76,11.34c.07.11.13.23.19.34l.15-.16a77.62,77.62,0,0,0-3.9-9.43Z" transform="translate(-493.25 -14.47)"/><path d="M1124.53,862.62l-.17-.3a3,3,0,0,0-.32-.12Z" transform="translate(-493.25 -14.47)" style="fill:#ebc2b0"/><path d="M1006.51,730.87h0c2-6.52,5.7-12.39,9.34-18.18,2.89-4.62,5.8-9.25,8.82-13.79l-.56-1.2a150.46,150.46,0,0,1-11,14.7l.31.83c-4.7,6.45-9.41,13-12.16,20.54s-3.34,16.12.14,23.31l.1,0a29.1,29.1,0,0,0,7.89,16.31,42.49,42.49,0,0,0,15.45,10.11c3.44,1.35,7,2.37,10.37,3.95,4.32,2.05,8.15,5,12.45,7.09,1.33.65,2.69,1.2,4,1.76l9.32,3.8v.06c5.37,2,9.87,5.72,14.48,9.11,4.78,3.51,10.11,6.79,16,7l.22-.86a143.28,143.28,0,0,0-13.43-9.81l.05-.3-61.75-32.5,0,.21a25.58,25.58,0,0,1-12.77-15.74c-2.18-7.91-.39-16.25,2-24.17C1006,732.36,1006.28,731.61,1006.51,730.87Z" transform="translate(-493.25 -14.47)"/><path d="M828.28,813.66l2.63-4.69-.15-.27a113,113,0,0,1,15.91-29.38c2.28-3,4.87-6.72,3.59-10.3l-.11-.14c-2.39,5.67-6.06,10.78-9.34,16a133.71,133.71,0,0,0-13.12,27.69Z" transform="translate(-493.25 -14.47)"/><path d="M961.42,608.45a197.41,197.41,0,0,1,11.8-39.84l1-20.58a14.35,14.35,0,0,0-.19-4.14,4.83,4.83,0,0,0-2.38-3.26h-.06a37.3,37.3,0,0,1-.63,9.18q-1.08,7.14-2.17,14.27l.38.26c-5.92,22.23-15,43.63-19.4,66.21l.1.08C947,642,941,652.4,935.9,663c-9.08,19.07-15.47,39.81-28.68,56.27l.12.28a131.07,131.07,0,0,1-31.05,41.51,27.22,27.22,0,0,1-5.43,4c-5.84,3-12.86,1.82-19.3.58l-.25.1c0,.06,0,.12-.07.18-.24.78-.53,1.55-.84,2.3a148.83,148.83,0,0,0,15.65.92,11.06,11.06,0,0,0,4.47-.59,11.53,11.53,0,0,0,2.94-2l20.15-17.23.18-.35,23.77-38.63-.12-.24a485.27,485.27,0,0,0,28.12-57.22l-.2-.28a432.7,432.7,0,0,0,16.08-42.5Z" transform="translate(-493.25 -14.47)"/><path d="M825.11,653.9c.12-.56.24-1.12.37-1.69l-.48-.32c-6.64,16.44-7.66,34.53-8.59,52.24l-.53.29q2.32,21.54,5.56,43c.83,5.47,2,11.42,6.21,15,2.79,2.34,6.48,3.24,10.05,3.94q6.3,1.24,12.7,1.94c.31-.75.6-1.52.84-2.3a51.48,51.48,0,0,1-12.23-6.7,42,42,0,0,1-8.93-7.83A37.78,37.78,0,0,1,823.9,739c-4.11-13.18-4.35-27.21-4.52-41h.24a112.49,112.49,0,0,1,3.92-29.43c1.28-4.72,2.89-9.64,1.83-14.43Z" transform="translate(-493.25 -14.47)"/><path d="M1039.24,653.32q-13.17,14.17-26.7,28l-.33.11a104.9,104.9,0,0,0-31.9,36.28l.17.45a51.56,51.56,0,0,0-11.59,38.46,19.94,19.94,0,0,0,2.22,7.79L971,765c-.38.82,1.22,1.28,1.72.53a3.15,3.15,0,0,0-.06-2.6c-1.45-5-.22-10.31,1-15.35,2.13-8.69,4.61-18,11.39-23.8l.43-.1c8.94-16.7,27-26.49,38.19-41.75l.06.12a47.43,47.43,0,0,1,9.06-11.83c4.17-3.94,9.16-7.28,11.84-12.35,2.33-4.41,2.59-9.57,2.73-14.56h.09a73.91,73.91,0,0,0,.18-8.15h0C1046.8,641.85,1043.05,647.77,1039.24,653.32Z" transform="translate(-493.25 -14.47)"/><path d="M1025.2,734.25l.06,0a24.59,24.59,0,0,0,7.31-2.72,34.91,34.91,0,0,0,6.87-5.68.94.94,0,0,1,.1-.1c5-5,9.8-10.28,14.55-15.57,3.87-5.17,7.63-10.5,12.06-15.12l0,0a13,13,0,0,1,3.59-3.14v-.38a12.2,12.2,0,0,0-5.91,3.11,53.72,53.72,0,0,0-4.56,5,74.92,74.92,0,0,1-5.46,5.67l0,.21a58.41,58.41,0,0,0-7.25,8c-1.55,2.22-2.79,4.66-4.46,6.79-3.75,4.79-9.36,7.66-14.79,10.39a22.5,22.5,0,0,1-4.34,1.81,22.85,22.85,0,0,1-5.42.5l-11.28.11-.07.34a10.56,10.56,0,0,0,3.51,1.36A31,31,0,0,0,1025.2,734.25Z" transform="translate(-493.25 -14.47)"/><path d="M1065.2,668.65l.29-.19a119.76,119.76,0,0,0-.65-13l-.55.17-.54.35a85.93,85.93,0,0,0-23.47,22.81l-.42,0a178.68,178.68,0,0,0-15.18,20.14c-3,4.54-5.93,9.17-8.82,13.79-3.64,5.79-7.3,11.66-9.34,18.18h0c-.23.74-.47,1.49-.69,2.24l0,0,.33.23.07-.34,11.28-.11a22.85,22.85,0,0,0,5.42-.5,22.5,22.5,0,0,0,4.34-1.81c5.43-2.73,11-5.6,14.79-10.39,1.67-2.13,2.91-4.57,4.46-6.79a58.41,58.41,0,0,1,7.25-8l0-.21a74.92,74.92,0,0,0,5.46-5.67,53.72,53.72,0,0,1,4.56-5,12.2,12.2,0,0,1,5.91-3.11v.38l.29-.13,0,0q-1.47-9.42-2.8-18.87A9.87,9.87,0,0,1,1065.2,668.65Z" transform="translate(-493.25 -14.47)" style="fill:#c68b7a"/><path d="M1088.15,308.92l.07,0q.6,7,1.1,14.1l.3-.08.25,0,3.9-.83,16.61-6c.52-.19,1.22-.33,1.59,0a.47.47,0,0,1,.11.13,1.47,1.47,0,0,1,0,1.18c-1.11,3.76-.65,7.77-.74,11.69a55.32,55.32,0,0,1-2,12.84c-1,3.71-2.2,7.38-3.42,11-1,2.85-2,5.77-3.89,8.06a17.84,17.84,0,0,1-5.55,4.11l0,.21a16.72,16.72,0,0,1-5,2.27q1.05,41.09-1.29,82.15l-.13,1.14q.27,19.2-.9,38.38c-.05.95-.38,2.18-1.29,2.3l0-.61c-.2-1.14-.41-2.29-.61-3.42l.08,0A1670.76,1670.76,0,0,1,1088.15,308.92Zm-29.51-59.59c-6.07-21.15-27-37.18-49.06-37.36-7.07-.05-14.07,1.34-21,2.88q-18.92,4.22-37.46,9.87l-.07-.37a60.79,60.79,0,0,0-15,12,27.55,27.55,0,0,0-2.46,6.44,168.75,168.75,0,0,0-6,47l.25.19c-2.37,32.48,2.4,65,2.64,97.6l-.34.18c-.68,7-1.38,14.09-3.57,20.8-2.35,7.14-6.43,14.24-5.23,21.66l.22.75c1-.92,2-1.8,3.08-2.63a46.79,46.79,0,0,1,33.77-9.52l.22-.13c3.24-.16,6.47-.16,9.7,0v-.42a19.43,19.43,0,0,1-4.3-4.83l-.09.18A76.34,76.34,0,0,1,946,384.91c-1-3-1.87-6-2.72-9-1.15-4.13-2.31-8.24-3.47-12.37l-.26.22a11.83,11.83,0,0,0-.67-5.77c-.53-1.4-1.33-2.69-1.78-4.11-.94-3-.32-6.16.33-9.18q2.07-9.72,4.45-19.38c.09-.36.17-.71.26-1.07s.11-.45.17-.68l-.15-1.2a89.58,89.58,0,0,0,2.38-19.12c.47-14.82-1.16-30,2-44.37l0,0a5.55,5.55,0,0,1-.28-3.27l.54-.25,43.47.68c9.33.14,18.7.29,28,1.64,11.53,1.68,23.83,6.06,29.61,16.17a47.84,47.84,0,0,1,3.55,8.79c1.69,5.16,3.38,10.38,3.77,15.79a58.75,58.75,0,0,1-1,13.47c0,.13-.05.26-.07.4-.14.91-.3,1.81-.45,2.73l-.08.52a302,302,0,0,0-3.49,32.75c-.12,2.36,0,5.2,2.07,6.39l.05,0a11.31,11.31,0,0,1-.23,4.18l.19.16q-2.48,29.72-3.82,59.49-.48,10.73-.81,21.43-1,32.31-.66,64.65l.24,0c-1.41,24.4-2.8,49,1,73.17,4.08,26.17,14.15,51.49,16.81,77.66a119.76,119.76,0,0,1,.65,13l-.29.19a9.87,9.87,0,0,0,2.09,4.19q1.32,9.45,2.8,18.87c.16,1,.31,1.95.47,2.92.85,5.33,1.84,10.89,5.09,15.2,6.65,8.82,19.63,9,30.62,7.88q15.24-1.58,30.31-4.5c6.63-1.28,13.68-3,18.67-7.34l-.12-1.38c-1.29-7.87-1.06-15.9-.82-23.87q.69-22.87,1.37-45.77c.24-8,.48-16,1.32-23.91,1.66-15.66,5.65-31.27,4.46-46.93l0,0,2.22-2.67.22.06q4.26-47.83,8.55-95.66c1-11.18,2-22.4,1.88-33.63h.2c.54-10.81,2.47-21.5,3.73-32.26,2.64-22.51,2.36-45.25,2.07-67.92q-.32-24.37-.62-48.76c1.06-18.79-7.52-36.72-15.89-53.63-2.58-5.23-5.22-10.52-9-15-4.44-5.17-10.31-8.93-16.43-11.93-18.46-9-39.58-11.62-60.09-10.22q-4.48.3-9,.84-1.71,7.47-3.78,14.85c-1.41,5-3.1,10.25-6.08,14.41a50.1,50.1,0,0,1,11.94,21.32l0,.19A77.54,77.54,0,0,0,1058.64,249.33Z" transform="translate(-493.25 -14.47)" style="fill:#ea1573"/><path d="M1024.12,697.7l.56,1.2a178.68,178.68,0,0,1,15.18-20.14l.42,0A85.93,85.93,0,0,1,1063.75,656c-2.32-.38-4.57,1.26-6.41,2.81l-9.23,7.71a83.63,83.63,0,0,0-9.74,9.07c-4.4,5.08-7.51,11.13-11,16.9Q1025.81,695.13,1024.12,697.7Z" transform="translate(-493.25 -14.47)"/><path d="M831.17,689.58a10.27,10.27,0,0,0,1.1-3.89q.81-5.9,1.64-11.77c.87-6.22,1.83-12.7,5.43-17.84l-.08-.16a1.54,1.54,0,0,1-.59.51,1.09,1.09,0,0,1-.25.1h0a1.56,1.56,0,0,1-.67.53l0,.18a10.81,10.81,0,0,1-2.35,2.76c-2.39,2.55-3.24,6.15-3.76,9.61A79,79,0,0,0,831.17,689.58Z" transform="translate(-493.25 -14.47)"/><path d="M902,612.66a76.8,76.8,0,0,1-.4,7.76,19.2,19.2,0,0,1-2,6.91,6.64,6.64,0,0,1-1.94,2.21v.36c2.53.19,5.11.38,7.52-.95a5.38,5.38,0,0,0,2.57-3,13.25,13.25,0,0,0,.56-4c.05-2.52-.15-5-.35-7.55s-.4-4.87-.59-7.3c-.08-.89-.15-1.78-.27-2.65-.79-5.56-3.65-9.62-6.73-11.31s-6.39-1.42-9.61-.94c-2.49.38-5,.86-7.44,1.47a5.48,5.48,0,0,0-3.22,1.73,13.59,13.59,0,0,0-2,4.59,67.13,67.13,0,0,0-3,19.93c.11,6.93,1.65,14,4.61,18.49a30.12,30.12,0,0,0,4.3,4.91,35.68,35.68,0,0,1,7.64,10.05,29.07,29.07,0,0,1,2.59,15.7,28.17,28.17,0,0,1-5.39,12.59c3-1,5.52-4.25,7.89-7.56a36.47,36.47,0,0,0,4.33-7.41,24.21,24.21,0,0,0,1.82-10,19.56,19.56,0,0,0-4.64-12c-2.39-2.68-5.15-4.12-7.79-5.94a45.21,45.21,0,0,1-5.62-4.66,13.54,13.54,0,0,1-3.81-5.61c-1.66-4.89-.49-11.2,1-16.29,1-3.44,2.2-7,4.16-8.61a6.51,6.51,0,0,1,3.89-1.31c2.47-.19,5-.11,7.31,1.52S901.51,608.58,902,612.66Z" transform="translate(-493.25 -14.47)"/><path d="M825.66,652l0,.13a10.4,10.4,0,0,0,4.42,3.55,21.64,21.64,0,0,0,5.54,1.5,4.17,4.17,0,0,0,2.17-.1,1.56,1.56,0,0,0,.67-.53,1,1,0,0,1-.23.05l-.24,0a4.63,4.63,0,0,1-1-.08,27.15,27.15,0,0,1-11.41-4.68v0Z" transform="translate(-493.25 -14.47)"/><path d="M825.56,651.85A27.15,27.15,0,0,0,837,656.53a4.63,4.63,0,0,0,1,.08v-.18l-8.23-3.3a9,9,0,0,1-4.71-3.4,111.61,111.61,0,0,1-9.39-13.14l.1-.2c-.82-5.78-4.48-10.8-5.62-16.52a38.67,38.67,0,0,1-.43-8.54v-.12a49.5,49.5,0,0,1-.39-11.54,85.65,85.65,0,0,1,2.61-16.15l.13,0,4.07-11.61a45.41,45.41,0,0,1,1.81-4.61,46.06,46.06,0,0,1,3-5q2.28-3.42,4.54-6.84v-.21a9,9,0,0,1,1.67-2.71,112.46,112.46,0,0,1,11.54-13c1.59-1.44,3.26-2.81,4.93-4.16l3.05-2.49.21-.06a167.55,167.55,0,0,1,28.92-15.51,9.89,9.89,0,0,0,3.18-1.8l0-.29a121.56,121.56,0,0,0-39.38,22.63c-12.07,10.6-21.68,24.19-26.64,39.47l-.37-.33c-3.72,12.81-5.38,26.37-3.5,39.59s7.35,25.82,16.55,35.29Z" transform="translate(-493.25 -14.47)"/><path d="M850.78,589.32q4.61-14.21,9.22-28.4c5.1-15.73,10.31-31.66,19.39-45.47l0-.39-.46.16,0,.29a9.89,9.89,0,0,1-3.18,1.8,167.55,167.55,0,0,0-28.92,15.51l-.21.06-3.05,2.49c-1.67,1.35-3.34,2.72-4.93,4.16a112.46,112.46,0,0,0-11.54,13,9,9,0,0,0-1.67,2.71v.21q-2.26,3.42-4.54,6.84a46.06,46.06,0,0,0-3,5,45.41,45.41,0,0,0-1.81,4.61L812,583.48l-.13,0a85.65,85.65,0,0,0-2.61,16.15,49.5,49.5,0,0,0,.39,11.54v.12a38.67,38.67,0,0,0,.43,8.54c1.14,5.72,4.8,10.74,5.62,16.52l-.1.2A111.61,111.61,0,0,0,825,649.73a9,9,0,0,0,4.71,3.4l8.23,3.3v.18l.24,0v-.15c0-11.32.17-22.8,3.18-33.72,3.06-11.08,9-21.48,9.86-32.94Z" transform="translate(-493.25 -14.47)" style="fill:#c68b7a"/><path d="M880.75,514.79c0-.09.07-.17.1-.25l-.23.08-1.27.44,0,.39c-9.08,13.81-14.29,29.74-19.39,45.47q-4.62,14.21-9.22,28.4l.44.45c-.87,11.46-6.8,21.86-9.86,32.94-3,10.92-3.21,22.4-3.18,33.72v.15a1,1,0,0,0,.23-.05h0a1.09,1.09,0,0,0,.25-.1,1.54,1.54,0,0,0,.59-.51,4.65,4.65,0,0,0,.5-2.54,27.93,27.93,0,0,1,.48-5.32l0,0c2.14-12.57,4.43-25.13,7.67-37.46a249.77,249.77,0,0,1,10-30.13l.17.13c3.89-16,7.81-32,14.25-47.15C875,527.16,878.09,521.06,880.75,514.79Z" transform="translate(-493.25 -14.47)"/><path d="M929.11,564.13c-.49,4.06-2.44,7.28-4.63,8.84s-4.84,1.72-7.32,1.51a6.36,6.36,0,0,1-3.88-1.3c-2-1.65-3.17-5.17-4.16-8.61-1.46-5.09-2.63-11.4-1-16.3a13.72,13.72,0,0,1,3.8-5.6,44.42,44.42,0,0,1,5.63-4.66c2.64-1.82,5.4-3.26,7.79-6a19.51,19.51,0,0,0,4.64-12,24,24,0,0,0-1.82-10,36.47,36.47,0,0,0-4.33-7.41c-2.37-3.31-4.94-6.54-7.88-7.56a28.11,28.11,0,0,1,5.38,12.59,28.93,28.93,0,0,1-2.59,15.69,35.41,35.41,0,0,1-7.64,10.06,30.61,30.61,0,0,0-4.3,4.91c-3,4.53-4.5,11.55-4.61,18.5a67.11,67.11,0,0,0,2.95,19.92,13.4,13.4,0,0,0,2,4.59,5.49,5.49,0,0,0,3.21,1.73c2.47.6,5,1.09,7.44,1.47,3.22.48,6.52.76,9.61-.94s5.94-5.75,6.73-11.31c.12-.87.2-1.76.27-2.65.2-2.44.39-4.87.59-7.3s.4-5,.35-7.55a12.94,12.94,0,0,0-.57-4,5.33,5.33,0,0,0-2.56-3c-2.41-1.33-5-1.14-7.52-1v.36a6.74,6.74,0,0,1,1.94,2.21,19,19,0,0,1,2,6.91A69,69,0,0,1,929.11,564.13Z" transform="translate(-493.25 -14.47)"/><path d="M880.85,514.54c0,.08-.07.16-.1.25l.18-.28Z" transform="translate(-493.25 -14.47)" style="fill:#f3b7b9"/><path d="M972.55,423.37c5.63.14,11.43-1.12,16.81.56a35.82,35.82,0,0,1,6.08,2.86,160.39,160.39,0,0,0,38.48,14.77l.68-.5a15.52,15.52,0,0,0,12-.84l0-.18a79.94,79.94,0,0,1-11.82-2v.17c-8-1.3-16.76-3-22.5-8.54-.22-.21-.45-.43-.66-.66l-.28.08a112.91,112.91,0,0,0-41.88-10.3l-1-.05c-3.23-.12-6.46-.12-9.7,0l-.22.13a46.79,46.79,0,0,0-33.77,9.52c-1.06.83-2.09,1.71-3.08,2.63-7.88,7.28-13.37,16.92-18.67,26.33l-.08.09a323.46,323.46,0,0,0-22.35,56.4l.08.74.23-.08.08,0a122.67,122.67,0,0,0,17.41-42.08l.38-.1c5.32-8.2,8.61-17.69,14.77-25.27l.12-.2c4.22-6.9,9.45-13.3,16-18s14.58-7.69,22.67-7.4C959.1,421.69,965.81,424.17,972.55,423.37Z" transform="translate(-493.25 -14.47)"/><path d="M1091.46,367.65c0-.24,0-.49,0-.74,0-1.94-.11-3.88-.17-5.82q-.62-19.05-2-38-.51-7.07-1.1-14.1l-.07,0a1670.76,1670.76,0,0,0-.86,178.62l-.08,0c.2,1.13.41,2.28.61,3.42l0,.61c.91-.12,1.24-1.35,1.29-2.3q1.15-19.17.9-38.38l.13-1.14Q1092.51,408.79,1091.46,367.65Z" transform="translate(-493.25 -14.47)" style="fill:#ea1573"/><path d="M1034.75,438a79.94,79.94,0,0,0,11.82,2l0,.18c.2-.1.4-.2.59-.31l.32,0q.33-10.71.81-21.43l-.35-.05-.18.13a53.61,53.61,0,0,1-14.31,7.56c-6.74,2.52-14,4.34-21.1,3.12l-.13.4c5.74,5.58,14.46,7.24,22.5,8.54Z" transform="translate(-493.25 -14.47)" style="fill:#c68b7a"/><path d="M1012.24,429.67l.13-.4c7.09,1.22,14.36-.6,21.1-3.12a53.61,53.61,0,0,0,14.31-7.56l0-.11c0-.33,0-.65,0-1h-1.62q-17.13,6.18-34.54,11.5C1011.79,429.24,1012,429.46,1012.24,429.67Z" transform="translate(-493.25 -14.47)"/><path d="M989.17,400.58a6.15,6.15,0,0,1,4.69-2.23c-2.37,4.79-5.93,9.22-10.82,11.4s-11.22,1.55-14.81-2.42a14,14,0,0,1-3.13-7.06,35.22,35.22,0,0,1-.42-6.32,6.83,6.83,0,0,0-.31-2.55c-.86-2.11-3.5-2.67-5.8-2.89v-.2l.1-.1-.08-.25q-1.12-3.49-2.26-7a7.46,7.46,0,0,1-.51-2.54,6.43,6.43,0,0,1,1.22-3.16c2.8-4.36,7.76-7.88,12.87-7a17.53,17.53,0,0,1,6.87,3.28,113.12,113.12,0,0,1,18.74,16.21l.1.31a1.61,1.61,0,0,1-.64.43c.78,1.46-.86,3-2.1,4.08a12.71,12.71,0,0,0-4.21,8.6c.13-.14.26-.28.38-.43s0,0,0,0ZM995.91,260v-.21l-43.19-1.6a4.61,4.61,0,0,0-3,.57,4.29,4.29,0,0,0-1.3,2.46,65.21,65.21,0,0,0-1.52,13l-.39,7.84h0l13.59,11a1.5,1.5,0,0,1,.58.72,1.47,1.47,0,0,1-.39,1.14l-2,2.88c-3.08-1.69-6.21-3.41-8.65-6a13.47,13.47,0,0,1-3.34-5.62q-.44,8.58-.86,17.14l.28.72a41.44,41.44,0,0,1,4-4.21.46.46,0,0,1,.22-.14c.26,0,.35.34.33.6s0,.3,0,.45c2.64.8,4.35,3.48,5,6.19a2.85,2.85,0,0,1,.8-.2,3.46,3.46,0,0,1,.85,0q2.49,7.65,4.21,15.52c.14.64.18,1.5-.42,1.77a1.55,1.55,0,0,1-.8.05,3,3,0,0,1-1.26-.37,1.06,1.06,0,0,1-.49-1l-.31,0a15.83,15.83,0,0,1-3.77-.05,5.69,5.69,0,0,1-1.75-.56l-.07.38a4.05,4.05,0,0,1-3.89-.95c-.52-.48-.89-1.1-1.42-1.58a1.86,1.86,0,0,0-2-.47c-.91.45-.9,1.71-1.16,2.7a3.81,3.81,0,0,1-1.53,2.16l-.12-.1c-.09.36-.17.71-.26,1.07l.36.27c2.49,7.33-2.25,15.08-2.43,22.82-.09,3.79.93,7.5,1.94,11.15q2.07,7.5,4.13,15l-.35.41a86.4,86.4,0,0,0,18.31,34.6c2.39,2.75,5.09,5.63,5.61,9.2a112.91,112.91,0,0,1,41.88,10.3l.28-.08q17.42-5.33,34.54-11.5h1.62l-.39-24.8.22-1.58a71.18,71.18,0,0,1,1.42-17.47c.88-4.28,2.17-8.65,1.52-12.93l-.15-.82c-.39-1.79-1.13-3.49-1.59-5.26-.93-3.63-.65-7.44-.35-11.17q.75-9.14,1.59-18.28c.32-3.49.77-7.25,3.15-9.83l0-.43a27.85,27.85,0,0,0-5.58,1.55c-1.24.48-2.46,1-3.72,1.44-5,1.67-10.4,1.39-15.65,1.1l-.14.09a11.17,11.17,0,0,1-8.59,6.82,23.58,23.58,0,0,1-5.93-.16c-1.24-.13-2.47-.26-3.71-.36a170.37,170.37,0,0,0-17.2-.63c-.68.86-1.71,1.65-2.76,1.36-1.46-.4-1.61-2.4-1.35-3.9a33.89,33.89,0,0,1,7.48-16,23.3,23.3,0,0,1-.08,2.51c.83-1.34,1.11-3.11,2-4.45,1.16-1.71,3.19-2.58,5.11-3.36a58.86,58.86,0,0,1,11.12-3.66,3,3,0,0,1,1.52,0c1.3.42,1.62,2.21,2.76,2.93a3.85,3.85,0,0,1,0-1.69l1-.46c0,2,2.25,3.09,3.53,4.63a11.72,11.72,0,0,1,1.68,3.26,1.57,1.57,0,0,0,.43.71,1.58,1.58,0,0,0,.77.27,11.78,11.78,0,0,0,6.75-.95c3-1.41,5.39-4.07,8.57-5l.18.2c.53.94-.29,2.09-1.21,2.67s-2,1-2.58,1.9a13.66,13.66,0,0,0,9.7-2.06,3.24,3.24,0,0,1,1.74-.76c1.22,0,1.8,1.47,2.14,2.64a46.15,46.15,0,0,0,2.43,6.53l.54.28c0-.14,0-.27.07-.4-1-6.63-1-13.38-2.07-20-1.09-6.78-3.46-13.65-8.39-18.44a38.24,38.24,0,0,0-6.3-4.7,62.28,62.28,0,0,0-14.45-7.13C1014.26,259,1005,259.43,995.91,260Zm-7.62,32.44,0,0,26.59-13.8c5.47-2.84,11.5-5.76,17.54-4.53,5.88,1.19,10.19,6,14,10.67l-.08.2c-2.68,1.41-6,.27-8.64-1.16s-5.42-3.19-8.44-2.95a13.57,13.57,0,0,0-5.39,2.06L1000,296.24c-2.6,1.45-5.26,2.93-8.19,3.41a1.15,1.15,0,0,1-.8-.06,1.25,1.25,0,0,1-.43-.68C989.8,296.74,989.05,294.57,988.29,292.41Zm-14.51,65.87a16.09,16.09,0,0,1-5.87,0c-.91-.16-1.8-.41-2.69-.65-1.82-.5-3.92-1.26-4.47-3.07.37.5,1.25.22,1.49-.35a2.29,2.29,0,0,0-.22-1.78,4.26,4.26,0,0,1-.6-1.73,3.18,3.18,0,0,1,.37-1.31,16.09,16.09,0,0,1,3.82-5.24,3.24,3.24,0,0,1,1.23-.8,1.29,1.29,0,0,1,1.35.34l-.68.87-.12-.19a18.89,18.89,0,0,0-1.6,5.25,1.85,1.85,0,0,0,0,1c.23.52.84.73,1.37.92,2.84,1.07,5,3.41,7,5.68a.69.69,0,0,1,.26.56C974.42,358.1,974.07,358.23,973.78,358.28Z" transform="translate(-493.25 -14.47)" style="fill:#c68b7a"/><path d="M939.78,363.57c1.16,4.13,2.32,8.24,3.47,12.37.85,3,1.69,6,2.72,9A76.34,76.34,0,0,0,964,413.67l.09-.18a19.43,19.43,0,0,0,4.3,4.83v.42l1,.05c-.52-3.57-3.22-6.45-5.61-9.2A86.4,86.4,0,0,1,945.5,375l.35-.41q-2.05-7.49-4.13-15c-1-3.65-2-7.36-1.94-11.15.18-7.74,4.92-15.49,2.43-22.82l-.36-.27q-2.37,9.64-4.45,19.38c-.65,3-1.27,6.22-.33,9.18.45,1.42,1.25,2.71,1.78,4.11a11.83,11.83,0,0,1,.67,5.77Z" transform="translate(-493.25 -14.47)"/><path d="M1047.57,391.13l-.22,1.58.39,24.8c0,.32,0,.64,0,1l0,.11.18-.13.35.05q1.34-29.76,3.82-59.49l-.19-.16a10.45,10.45,0,0,1-.46,1.47l-1,.4c.65,4.28-.64,8.65-1.52,12.93A71.18,71.18,0,0,0,1047.57,391.13Z" transform="translate(-493.25 -14.47)"/><path d="M968.23,407.33c3.59,4,9.93,4.58,14.81,2.42s8.45-6.61,10.82-11.4a6.15,6.15,0,0,0-4.69,2.23l-.09.12s0,0,0,0a3.6,3.6,0,0,0-.39.57.66.66,0,0,1,0-.14c-1.88,2-4.55,3.17-7.1,4.26a15.27,15.27,0,0,1-5.36,1.55,9.79,9.79,0,0,1-6.16-2.09,20.11,20.11,0,0,1-4.45-4.88l-.51.28A14,14,0,0,0,968.23,407.33Z" transform="translate(-493.25 -14.47)"/><path d="M969.16,391.87l0-.21a52,52,0,0,1,.86-7.46,114.64,114.64,0,0,1,8.94,9,1.58,1.58,0,0,1,.55,1.18,1.07,1.07,0,0,1-1,.83,2.88,2.88,0,0,1-1.38-.39,20.07,20.07,0,0,1-3.39-2.09v0a3.23,3.23,0,0,1-2.79-2.29,2.19,2.19,0,0,1-.37.48l0,0A5.77,5.77,0,0,1,969.16,391.87Zm.9,13a9.79,9.79,0,0,0,6.16,2.09,15.27,15.27,0,0,0,5.36-1.55c2.55-1.09,5.22-2.27,7.1-4.26a12.71,12.71,0,0,1,4.21-8.6c1.24-1.1,2.88-2.62,2.1-4.08a2.62,2.62,0,0,1-2.07-.13,7.44,7.44,0,0,1-2.18-1.93,58.51,58.51,0,0,0-10.1-9.09A26.3,26.3,0,0,0,972,373a12.48,12.48,0,0,0-9.39,1.08,8.3,8.3,0,0,0-4.07,8.18c.36,2,1.52,4.5.12,6l-.1.1v.2c2.3.22,4.94.78,5.8,2.89a6.83,6.83,0,0,1,.31,2.55,35.22,35.22,0,0,0,.42,6.32l.51-.28A20.11,20.11,0,0,0,970.06,404.87Z" transform="translate(-493.25 -14.47)" style="fill:#ce0079"/><path d="M989.08,400.7l.09-.12Z" transform="translate(-493.25 -14.47)" style="fill:#ce0079"/><path d="M970.87,390.38a2.06,2.06,0,0,0,.28-1c.31,0,.55.25.73.51l1.92,2.76h-.14v0a20.07,20.07,0,0,0,3.39,2.09,2.88,2.88,0,0,0,1.38.39,1.07,1.07,0,0,0,1-.83,1.58,1.58,0,0,0-.55-1.18,114.64,114.64,0,0,0-8.94-9,52,52,0,0,0-.86,7.46l0,.21a5.77,5.77,0,0,0,1.32-1l0,0A2.19,2.19,0,0,0,970.87,390.38Z" transform="translate(-493.25 -14.47)"/><path d="M995,388.47a1.61,1.61,0,0,0,.64-.43l-.1-.31a113.12,113.12,0,0,0-18.74-16.21,17.53,17.53,0,0,0-6.87-3.28c-5.11-.84-10.07,2.68-12.87,7a6.43,6.43,0,0,0-1.22,3.16,7.46,7.46,0,0,0,.51,2.54q1.14,3.48,2.26,7l.08.25c1.4-1.46.24-3.92-.12-6a8.3,8.3,0,0,1,4.07-8.18A12.48,12.48,0,0,1,972,373a26.3,26.3,0,0,1,8.62,4.33,58.51,58.51,0,0,1,10.1,9.09,7.44,7.44,0,0,0,2.18,1.93A2.62,2.62,0,0,0,995,388.47Z" transform="translate(-493.25 -14.47)"/><path d="M1096.46,365.17a17.84,17.84,0,0,0,5.55-4.11c1.94-2.29,2.94-5.21,3.89-8.06,1.22-3.63,2.44-7.3,3.42-11-.51.91-1,1.79-1.6,2.66-2,9.07-8.71,16.42-16,22.24l-.31,0c0,.25,0,.5,0,.74a16.72,16.72,0,0,0,5-2.27Z" transform="translate(-493.25 -14.47)"/><path d="M1094.25,359.32a5,5,0,0,1-1.43.29c-.29.46-.57.93-.85,1.41l-.7.07c.06,1.94.12,3.88.17,5.82l.31,0c7.26-5.82,14-13.17,16-22.24a53.67,53.67,0,0,1-13.5,14.4Z" transform="translate(-493.25 -14.47)" style="fill:#c68b7a"/><path d="M1092.82,359.61a62.61,62.61,0,0,1,9.74-12.08,16.7,16.7,0,0,0,3.25-3.73,14.59,14.59,0,0,0,1.26-4.17q2.27-11.47,4.51-22.95l0-.17a82.72,82.72,0,0,1-10.07,5.74,20.19,20.19,0,0,1-2.89,1.19c-2.78.84-5.76.6-8.65.35l-.06-.88-.25,0-.3.08q1.34,19,2,38l.7-.07C1092.25,360.54,1092.53,360.07,1092.82,359.61Zm3.69-12.53c1-1.51,1.59-3.21.74-4.69-.57-1-1.68-1.56-2.46-2.4a4.85,4.85,0,0,1-1.11-4.55v-.57a23.23,23.23,0,0,1,9.31-9l.1.7a27.42,27.42,0,0,1-3.18,3.89,6.3,6.3,0,0,0-1.78,4.58c.2,1.66,2,3.18,3.53,2.6,1,2.12-.48,4.58-2.14,6.24a25.79,25.79,0,0,0-3,3.22Z" transform="translate(-493.25 -14.47)" style="fill:#c68b7a"/><path d="M1050.51,360.73l1-.4a10.45,10.45,0,0,0,.46-1.47,11.31,11.31,0,0,0,.23-4.18l-.05,0c-2-1.19-2.19-4-2.07-6.39a302,302,0,0,1,3.49-32.75l.08-.52-.26-.13-.22,0,0,.43c-2.38,2.58-2.83,6.34-3.15,9.83q-.84,9.14-1.59,18.28c-.3,3.73-.58,7.54.35,11.17.46,1.77,1.2,3.47,1.59,5.26Z" transform="translate(-493.25 -14.47)"/><path d="M1107.72,344.65c.56-.87,1.09-1.75,1.6-2.66a55.32,55.32,0,0,0,2-12.84c.09-3.92-.37-7.93.74-11.69a1.47,1.47,0,0,0,0-1.18.47.47,0,0,0-.11-.13l0,.09-.4.27,0,.17q-2.25,11.47-4.51,22.95a14.59,14.59,0,0,1-1.26,4.17,16.7,16.7,0,0,1-3.25,3.73,62.61,62.61,0,0,0-9.74,12.08,5,5,0,0,0,1.43-.29l0-.27A53.67,53.67,0,0,0,1107.72,344.65Z" transform="translate(-493.25 -14.47)"/><path d="M967.39,344.41l.12.19.68-.87a1.29,1.29,0,0,0-1.35-.34,3.24,3.24,0,0,0-1.23.8,16.09,16.09,0,0,0-3.82,5.24,3.18,3.18,0,0,0-.37,1.31,4.26,4.26,0,0,0,.6,1.73,2.29,2.29,0,0,1,.22,1.78c-.24.57-1.12.85-1.49.35.55,1.81,2.65,2.57,4.47,3.07.89.24,1.78.49,2.69.65a16.09,16.09,0,0,0,5.87,0c.29,0,.64-.18.68-.47a.69.69,0,0,0-.26-.56c-2-2.27-4.16-4.61-7-5.68-.53-.19-1.14-.4-1.37-.92a1.85,1.85,0,0,1,0-1A18.89,18.89,0,0,1,967.39,344.41Z" transform="translate(-493.25 -14.47)"/><path d="M1096.51,347.08l0,.05a25.79,25.79,0,0,1,3-3.22c1.66-1.66,3.16-4.12,2.14-6.24-1.58.58-3.33-.94-3.53-2.6a6.3,6.3,0,0,1,1.78-4.58,27.42,27.42,0,0,0,3.18-3.89l-.1-.7a23.23,23.23,0,0,0-9.31,9v.57a4.85,4.85,0,0,0,1.11,4.55c.78.84,1.89,1.4,2.46,2.4C1098.1,343.87,1097.5,345.57,1096.51,347.08Z" transform="translate(-493.25 -14.47)"/><path d="M995.91,308.73a23.3,23.3,0,0,0,.08-2.51,33.89,33.89,0,0,0-7.48,16c-.26,1.5-.11,3.5,1.35,3.9,1,.29,2.08-.5,2.76-1.36l-.15-.48c3.84-3.61,9.7-4.21,15-4.56a2.58,2.58,0,0,1,1.63.24,6.84,6.84,0,0,1,.82.88,2.23,2.23,0,0,0,2.1.57c-.84-.4-.33-1.81.56-2.06a2.1,2.1,0,0,1,.71-.09c.66,0,1.34.24,2,.33,1.91.27,3.81-.63,5.74-.52.66,0,1.47.35,1.48,1s-.63,1-1.17,1.18q-2.77,1.15-5.62,2.08t-5.94,1.67v.38c1.24.1,2.47.23,3.71.36a23.58,23.58,0,0,0,5.93.16,11.17,11.17,0,0,0,8.59-6.82l.14-.09c5.25.29,10.66.57,15.65-1.1,1.26-.42,2.48-1,3.72-1.44a27.85,27.85,0,0,1,5.58-1.55l.22,0,.26.13c.15-.92.31-1.82.45-2.73l-.54-.28a46.15,46.15,0,0,1-2.43-6.53c-.34-1.17-.92-2.6-2.14-2.64a3.24,3.24,0,0,0-1.74.76,13.66,13.66,0,0,1-9.7,2.06c.54-.94,1.66-1.33,2.58-1.9s1.74-1.73,1.21-2.67l-.18-.2c-3.18,1-5.56,3.62-8.57,5a11.78,11.78,0,0,1-6.75.95,1.58,1.58,0,0,1-.77-.27,1.57,1.57,0,0,1-.43-.71,11.72,11.72,0,0,0-1.68-3.26c-1.28-1.54-3.53-2.63-3.53-4.63l-1,.46a3.85,3.85,0,0,0,0,1.69c.48,2.11,2.5,4.06,2.87,6.32a1.19,1.19,0,0,1-.16,1,1.38,1.38,0,0,1-.95.33c-6.48.51-12.66,2.8-18.75,5.07a39.15,39.15,0,0,0-7.22,3.27A26.15,26.15,0,0,0,995.91,308.73Z" transform="translate(-493.25 -14.47)"/><path d="M1013.14,320.23c.06-.29.12-.58.19-.88v-.06a2.1,2.1,0,0,0-.71.09c-.89.25-1.4,1.66-.56,2.06a2.23,2.23,0,0,1-2.1-.57,6.84,6.84,0,0,0-.82-.88,2.58,2.58,0,0,0-1.63-.24c-5.34.35-11.2.95-15,4.56l.15.48a170.37,170.37,0,0,1,17.2.63V325q3-.71,5.94-1.67l0-.13-2.52-2.95Z" transform="translate(-493.25 -14.47)" style="fill:#fff"/><path d="M945.75,304.08l-.28-.72-1-.08a89.58,89.58,0,0,1-2.38,19.12l.15,1.2c-.06.23-.11.46-.17.68l.12.1a3.81,3.81,0,0,0,1.53-2.16c.26-1,.25-2.25,1.16-2.7a1.86,1.86,0,0,1,2,.47c.53.48.9,1.1,1.42,1.58a4.05,4.05,0,0,0,3.89.95l.07-.38A2.49,2.49,0,0,1,952,322c-2.11-1.23-3-3.78-3.72-6.12l0-.6a8.9,8.9,0,0,1,3.15.86,2.06,2.06,0,0,1,1.12,1,4.08,4.08,0,0,1,0,1.48,2,2,0,0,0,1.57,2.05,1.45,1.45,0,0,0,1.58-1.73,3.55,3.55,0,0,1,3,2.79,1,1,0,0,1,0,.63.8.8,0,0,1-.62.36,1.06,1.06,0,0,0,.49,1,3,3,0,0,0,1.26.37,1.55,1.55,0,0,0,.8-.05c.6-.27.56-1.13.42-1.77q-1.72-7.86-4.21-15.52a3.46,3.46,0,0,0-.85,0l0,.6.21,3.36a.65.65,0,0,1-.11.5.61.61,0,0,1-.51.11c-2.94-.35-4.74-3.37-7.34-4.79a14.8,14.8,0,0,0,2-5.77c0-.15,0-.3,0-.45s-.07-.64-.33-.6a.46.46,0,0,0-.22.14A41.44,41.44,0,0,0,945.75,304.08Z" transform="translate(-493.25 -14.47)"/><path d="M1093.77,322.08l-3.9.83.06.88c2.89.25,5.87.49,8.65-.35a20.19,20.19,0,0,0,2.89-1.19,82.72,82.72,0,0,0,10.07-5.74l.4-.27,0-.09c-.37-.37-1.07-.23-1.59,0Z" transform="translate(-493.25 -14.47)"/><path d="M1015.75,323.24l0,.13q2.85-.93,5.62-2.08c.54-.22,1.18-.59,1.17-1.18s-.82-1-1.48-1c-1.93-.11-3.83.79-5.74.52-.67-.09-1.35-.31-2-.33v.06c-.07.3-.13.59-.19.88l.09.06Z" transform="translate(-493.25 -14.47)" style="fill:#e9964e"/><path d="M958.08,322.72a.8.8,0,0,0,.62-.36,1,1,0,0,0,0-.63,3.55,3.55,0,0,0-3-2.79,1.45,1.45,0,0,1-1.58,1.73l-.12,2a15.83,15.83,0,0,0,3.77.05Z" transform="translate(-493.25 -14.47)" style="fill:#e9964e"/><path d="M954,322.7l.12-2a2,2,0,0,1-1.57-2.05,4.08,4.08,0,0,0,0-1.48,2.06,2.06,0,0,0-1.12-1,8.9,8.9,0,0,0-3.15-.86l0,.6c.73,2.34,1.61,4.89,3.72,6.12a2.49,2.49,0,0,0,.28.15A5.69,5.69,0,0,0,954,322.7Z" transform="translate(-493.25 -14.47)" style="fill:#fff"/><path d="M994.23,316.14a39.15,39.15,0,0,1,7.22-3.27c6.09-2.27,12.27-4.56,18.75-5.07a1.38,1.38,0,0,0,.95-.33,1.19,1.19,0,0,0,.16-1c-.37-2.26-2.39-4.21-2.87-6.32-1.14-.72-1.46-2.51-2.76-2.93a3,3,0,0,0-1.52,0,58.86,58.86,0,0,0-11.12,3.66c-1.92.78-3.95,1.65-5.11,3.36-.91,1.34-1.19,3.11-2,4.45A26.15,26.15,0,0,1,994.23,316.14Z" transform="translate(-493.25 -14.47)" style="fill:#ce0079"/><path d="M955.61,311.34a.61.61,0,0,0,.51-.11.65.65,0,0,0,.11-.5l-.21-3.36,0-.6a2.85,2.85,0,0,0-.8.2c-.62-2.71-2.33-5.39-5-6.19a14.8,14.8,0,0,1-2,5.77C950.87,308,952.67,311,955.61,311.34Z" transform="translate(-493.25 -14.47)" style="fill:#ce0079"/><path d="M946.33,286.22l.21-4.18.39-7.84a65.21,65.21,0,0,1,1.52-13,4.29,4.29,0,0,1,1.3-2.46,4.61,4.61,0,0,1,3-.57l43.19,1.6V260c9.06-.54,18.35-1,27,1.69a62.28,62.28,0,0,1,14.45,7.13,38.24,38.24,0,0,1,6.3,4.7c4.93,4.79,7.3,11.66,8.39,18.44,1.07,6.6,1.09,13.35,2.07,20a58.75,58.75,0,0,0,1-13.47c-.39-5.41-2.08-10.63-3.77-15.79a47.84,47.84,0,0,0-3.55-8.79c-5.78-10.11-18.08-14.49-29.61-16.17-9.25-1.35-18.62-1.5-28-1.64l-43.47-.68-.54.25a5.55,5.55,0,0,0,.28,3.27l0,0c-3.21,14.41-1.58,29.55-2,44.37l1,.08Q945.91,294.79,946.33,286.22Z" transform="translate(-493.25 -14.47)"/><path d="M991,299.59a1.15,1.15,0,0,0,.8.06c2.93-.48,5.59-2,8.19-3.41l23.94-13.38a13.57,13.57,0,0,1,5.39-2.06c3-.24,5.77,1.51,8.44,2.95s6,2.57,8.64,1.16l.08-.2c-3.82-4.67-8.13-9.48-14-10.67-6-1.23-12.07,1.69-17.54,4.53l-26.59,13.8,0,0c.76,2.16,1.51,4.33,2.27,6.5A1.25,1.25,0,0,0,991,299.59Z" transform="translate(-493.25 -14.47)"/><path d="M958.32,297.79l2-2.88a1.47,1.47,0,0,0,.39-1.14,1.5,1.5,0,0,0-.58-.72l-13.59-11h0l-.21,4.18a13.47,13.47,0,0,0,3.34,5.62C952.11,294.38,955.24,296.1,958.32,297.79Z" transform="translate(-493.25 -14.47)"/><path d="M1048.21,219.52a20.68,20.68,0,0,0-4.83-2.44q-.64-3.54-1.25-7.1a49.6,49.6,0,0,0-20-4.53c-1.35,0-2.68,0-4,.13s-2.37.18-3.55.31l-.52,1.61q-7.95,1.22-16,2.13v-.08c0-.16-.08-.33-.11-.49q-17.3,4-34.26,9.15l-.06-.38c-4.25,2-8.5,4.11-12.54,6.52l.07.37q18.52-5.66,37.46-9.87c6.9-1.54,13.9-2.93,21-2.88,22,.18,43,16.21,49.06,37.36a77.54,77.54,0,0,1,12.83-5.3l0-.19a50.1,50.1,0,0,0-11.94-21.32,19.62,19.62,0,0,1-4.34,4.48l-.17.09a20.83,20.83,0,0,0-4.13-5.43A20.42,20.42,0,0,0,1048.21,219.52Z" transform="translate(-493.25 -14.47)"/><path d="M1055,227.09l.17-.09a19.62,19.62,0,0,0,4.34-4.48,53.66,53.66,0,0,0-6-5.57c-.83,1.6-1.7,3.16-2.63,4.71A20.83,20.83,0,0,1,1055,227.09Z" transform="translate(-493.25 -14.47)"/><path d="M1048.1,218.73h0c0,.26.07.53.11.79a20.42,20.42,0,0,1,2.66,2.14c.93-1.55,1.8-3.11,2.63-4.71a54.35,54.35,0,0,0-6.83-4.64C1047.11,214.45,1047.59,216.6,1048.1,218.73Z" transform="translate(-493.25 -14.47)" style="fill:#ea1573"/><path d="M1048.21,219.52c0-.26-.07-.53-.11-.79h0c-.51-2.13-1-4.28-1.43-6.42q-2.22-1.27-4.54-2.33.6,3.56,1.25,7.1A20.68,20.68,0,0,1,1048.21,219.52Z" transform="translate(-493.25 -14.47)"/><path d="M1067.52,193.5c-1.83.23-3.66.5-5.48.79A109.21,109.21,0,0,1,1053.5,217a53.66,53.66,0,0,1,6,5.57c3-4.16,4.67-9.39,6.08-14.41s2.64-9.87,3.78-14.85Z" transform="translate(-493.25 -14.47)"/><path d="M963.62,217.83l.06.38q17-5.18,34.26-9.15c-.36-1.48-.72-3-1.07-4.44-1.3.38-2.59.78-3.87,1.19a244.33,244.33,0,0,0-27.72,11.24C964.73,217.31,964.17,217.56,963.62,217.83Z" transform="translate(-493.25 -14.47)" style="fill:#ea1573"/><path d="M1046.67,212.31a54.35,54.35,0,0,1,6.83,4.64,109.21,109.21,0,0,0,8.54-22.66c-6,.94-11.9,2.13-17.8,3.52Q1045.19,205.1,1046.67,212.31Z" transform="translate(-493.25 -14.47)" style="fill:#ea1573"/><path d="M1042.13,210q2.32,1.05,4.54,2.33-1.49-7.22-2.43-14.5c-1.3.29-2.6.61-3.89.92C1040.9,202.5,1041.49,206.24,1042.13,210Z" transform="translate(-493.25 -14.47)"/><path d="M998.05,209.55v.08q8-.91,16-2.13l.52-1.61c-.79.1-1.58.2-2.36.32-3.71.54-7.39,1.31-11,2.13-1.07.24-2.14.47-3.2.72C998,209.22,998,209.39,998.05,209.55Z" transform="translate(-493.25 -14.47)"/><path d="M1000.61,206.73v-.07c-.23-1-.46-1.94-.7-2.91-1,.28-2,.57-3,.87.35,1.48.71,3,1.07,4.44,1.06-.25,2.13-.48,3.2-.72,3.65-.82,7.33-1.59,11-2.13l0-1h0Q1006.39,206.08,1000.61,206.73Z" transform="translate(-493.25 -14.47)"/><path d="M1000.6,206.66v.07q5.77-.66,11.52-1.54.79-2.46,1.56-4.92c-4.62,1.08-9.23,2.2-13.79,3.48C1000.14,204.72,1000.37,205.69,1000.6,206.66Z" transform="translate(-493.25 -14.47)" style="fill:#ea1573"/><path d="M1012.13,205.19h0l0,1c.78-.12,1.57-.22,2.36-.32.66-2.08,1.32-4.18,2-6.27l-2.81.65Q1012.93,202.73,1012.13,205.19Z" transform="translate(-493.25 -14.47)"/><path d="M1014.54,205.89c1.18-.13,2.36-.24,3.55-.31l0-.69c7.38-2.2,14.8-4.31,22.28-6.16-.21-1.49-.43-3-.62-4.47l-.46.1-20.61,4.76-2.16.5C1015.86,201.71,1015.2,203.81,1014.54,205.89Z" transform="translate(-493.25 -14.47)" style="fill:#ea1573"/><path d="M1018.07,204.89l0,.69c1.34-.09,2.67-.14,4-.13a49.6,49.6,0,0,1,20,4.53c-.64-3.74-1.23-7.48-1.78-11.25C1032.87,200.58,1025.45,202.69,1018.07,204.89Z" transform="translate(-493.25 -14.47)" style="fill:#ea1573"/><path d="M996.59,73.65l0,.06.82-.82a131.74,131.74,0,0,1,24.1,99.84l-.12-.07q-3.48,13.91-7.72,27.61l2.81-.65q5.68-18.45,10.37-37.17l.17.09A182.42,182.42,0,0,0,993.59,24.18v0l-.62.46,0,0a82.36,82.36,0,0,0-10.66,17.43c-7.67,16.95-9.55,36.07-8.24,54.64s5.68,36.75,10,54.85l12.75,53c1-.3,2-.59,3-.87q-4.67-19.47-9.35-38.94c-3.14-13.06-6.29-26.2-7.24-39.6s.4-27.21,5.94-39.44A58.46,58.46,0,0,1,996.59,73.65Z" transform="translate(-493.25 -14.47)"/><path d="M990.55,164.81q4.68,19.47,9.35,38.94c4.56-1.28,9.17-2.4,13.79-3.48q4.24-13.7,7.72-27.61l.12.07a131.74,131.74,0,0,0-24.1-99.84l-.82.82,0-.06a58.46,58.46,0,0,0-7.34,12.12c-5.54,12.23-6.89,26-5.94,39.44S987.41,151.75,990.55,164.81Z" transform="translate(-493.25 -14.47)" style="fill:#ea1573"/><path d="M1040.35,198.73c1.29-.31,2.59-.63,3.89-.92q-.3-2.2-.54-4.44c-1.34.28-2.66.58-4,.89C1039.92,195.75,1040.14,197.24,1040.35,198.73Z" transform="translate(-493.25 -14.47)"/><path d="M1044.24,197.81c5.9-1.39,11.83-2.58,17.8-3.52q.29-1.06.54-2.13c-6.11-1-12.59-.11-18.88,1.21Q1043.94,195.61,1044.24,197.81Z" transform="translate(-493.25 -14.47)" style="fill:#ea1573"/><path d="M1062,194.29c1.82-.29,3.65-.56,5.48-.79a25.27,25.27,0,0,0-4.94-1.34Q1062.33,193.23,1062,194.29Z" transform="translate(-493.25 -14.47)"/><path d="M1039.73,194.26c1.31-.31,2.63-.61,4-.89a204.65,204.65,0,0,1,2-58.57,11.33,11.33,0,0,1,.12-1.43l0-.08a44.8,44.8,0,0,1-8.28-14.78C1035.1,143.53,1036.33,169.09,1039.73,194.26Z" transform="translate(-493.25 -14.47)"/><path d="M1068.43,67.18c-5.58,8.31-6.69,18.36-7.27,28.61l.26,0a73.07,73.07,0,0,1,7.61,27,143.93,143.93,0,0,1-.3,20.76c-1,16.24-2.28,32.88-6.15,48.61a25.27,25.27,0,0,1,4.94,1.34l1.85-.24a336.29,336.29,0,0,0,8.27-91.71l.09,0a111.51,111.51,0,0,0-9.07-35.77c-.11.4-.21.81-.32,1.21Z" transform="translate(-493.25 -14.47)"/><path d="M1054.51,131l-1.24,1.52c-.84,1.78-1.67,3.57-2.51,5.35a32.46,32.46,0,0,1-4.87-4.57l0,.08a11.33,11.33,0,0,0-.12,1.43,204.65,204.65,0,0,0-2,58.57c6.29-1.32,12.77-2.25,18.88-1.21,3.87-15.73,5.12-32.37,6.15-48.61a143.93,143.93,0,0,0,.3-20.76,73.07,73.07,0,0,0-7.61-26.95l-.26,0c-.7,12.31-.65,24.91-6.65,35.19Z" transform="translate(-493.25 -14.47)" style="fill:#ea1573"/><path d="M1053.27,132.51l1.24-1.52h0c6-10.28,6-22.88,6.65-35.19.58-10.25,1.69-20.3,7.27-28.61l-.09-.21a1.09,1.09,0,0,0-.82-.28v.15a44.25,44.25,0,0,0-18.37-.08l-.09-.11c-.11.3-.22.59-.32.89a216.45,216.45,0,0,0-11.12,51,44.8,44.8,0,0,0,8.28,14.78,32.46,32.46,0,0,0,4.87,4.57C1051.6,136.08,1052.43,134.29,1053.27,132.51Z" transform="translate(-493.25 -14.47)"/><path d="M1036.1,113.54q.64,2.5,1.51,5a216.45,216.45,0,0,1,11.12-51q-4,7.53-8,15.07c-2.28,4.27-4.58,8.6-5.59,13.33C1033.85,101.74,1034.61,107.8,1036.1,113.54Z" transform="translate(-493.25 -14.47)"/></svg>